<svg width="302" height="94" viewBox="0 0 302 94" fill="none" xmlns="http://www.w3.org/2000/svg">
<g clip-path="url(#clip0_12:1854)">
<path d="M229.83 28.5099C219.98 28.5099 210.14 29.0098 200.32 29.7198C190.5 30.4298 180.7 31.4 170.97 32.86C161.234 34.2559 151.595 36.2598 142.11 38.86C137.381 40.1555 132.744 41.7658 128.23 43.6801C123.726 45.5759 119.474 48.0212 115.57 50.9601C113.635 52.4199 111.859 54.079 110.27 55.91C108.673 57.661 107.56 59.7978 107.04 62.11C106.83 63.2333 106.88 64.39 107.187 65.4908C107.494 66.5917 108.049 67.6076 108.81 68.4601C110.455 70.194 112.413 71.6019 114.58 72.61C118.949 74.7692 123.587 76.3362 128.37 77.2699C133.174 78.2467 138.028 78.9579 142.91 79.4C162.494 81.2545 182.188 81.6455 201.83 80.5699C211.65 80.0799 221.48 79.33 231.26 78.4C241.049 77.509 250.783 76.0937 260.42 74.16C265.23 73.16 270.02 72.0801 274.72 70.6901C279.42 69.3573 283.984 67.5827 288.35 65.39C290.496 64.2691 292.535 62.9536 294.44 61.4601C296.338 60.0235 297.91 58.1998 299.05 56.11C299.593 55.0892 299.92 53.9681 300.013 52.8158C300.106 51.6635 299.962 50.5046 299.59 49.41C299.196 48.3257 298.629 47.3125 297.91 46.41C297.157 45.4952 296.306 44.6668 295.37 43.9401C293.409 42.5318 291.258 41.4104 288.98 40.61C286.695 39.7369 284.357 39.0089 281.98 38.4301C277.208 37.2872 272.368 36.4488 267.49 35.92C257.72 34.78 247.9 34.15 238.06 33.92C228.22 33.69 218.38 33.7199 208.53 33.9999L201.15 34.2399L193.78 34.62L179.02 35.42L193.77 34.42L201.14 33.9501L208.52 33.62C218.36 33.22 228.22 33.0201 238.08 33.1801C247.94 33.3401 257.79 33.9299 267.6 35.0099C272.52 35.5109 277.403 36.3227 282.22 37.4401C284.638 38.0189 287.019 38.7435 289.35 39.61C291.728 40.4351 293.977 41.5932 296.03 43.0499C297.048 43.8257 297.974 44.7149 298.79 45.7001C299.605 46.7146 300.247 47.8565 300.69 49.08C301.116 50.322 301.286 51.6377 301.19 52.9474C301.094 54.257 300.733 55.5336 300.13 56.7001C298.926 58.9588 297.247 60.9303 295.21 62.4799C293.24 64.0288 291.135 65.3977 288.92 66.5699C284.485 68.8078 279.848 70.6192 275.07 71.9799C270.32 73.3999 265.5 74.5099 260.67 75.5199C250.991 77.4835 241.214 78.9257 231.38 79.84C221.56 80.84 211.74 81.58 201.89 82.08C182.175 83.1189 162.41 82.6809 142.76 80.7699C137.831 80.3123 132.93 79.5846 128.08 78.59C123.188 77.6176 118.447 76.0001 113.98 73.7799C111.672 72.695 109.589 71.1854 107.84 69.33C106.966 68.3319 106.331 67.1473 105.985 65.8666C105.638 64.5858 105.589 63.2428 105.84 61.9401C106.405 59.4234 107.626 57.1013 109.38 55.2101C111.028 53.3231 112.871 51.6167 114.88 50.12C118.877 47.1564 123.223 44.6946 127.82 42.7899C132.378 40.8964 137.054 39.303 141.82 38.0199C151.355 35.476 161.041 33.5357 170.82 32.2101C180.59 30.8701 190.41 30.01 200.25 29.42C210.09 28.83 219.93 28.4199 229.78 28.5699" fill="#C3CF7B"/>
<path d="M229.83 28.5099C219.98 28.5099 210.14 29.0098 200.32 29.7198C190.5 30.4298 180.7 31.4 170.97 32.86C161.234 34.2559 151.595 36.2598 142.11 38.86C137.381 40.1555 132.744 41.7658 128.23 43.6801C123.726 45.5759 119.474 48.0212 115.57 50.9601C113.635 52.4199 111.859 54.079 110.27 55.91C108.673 57.661 107.56 59.7978 107.04 62.11C106.83 63.2333 106.88 64.39 107.187 65.4908C107.494 66.5917 108.049 67.6076 108.81 68.4601C110.455 70.194 112.413 71.6019 114.58 72.61C118.949 74.7692 123.587 76.3362 128.37 77.2699C133.174 78.2467 138.028 78.9579 142.91 79.4C162.494 81.2545 182.188 81.6455 201.83 80.5699C211.65 80.0799 221.48 79.33 231.26 78.4C241.049 77.509 250.783 76.0937 260.42 74.16C265.23 73.16 270.02 72.0801 274.72 70.6901C279.42 69.3573 283.984 67.5827 288.35 65.39C290.496 64.2691 292.535 62.9536 294.44 61.4601C296.338 60.0235 297.91 58.1998 299.05 56.11C299.593 55.0892 299.92 53.9681 300.013 52.8158C300.106 51.6635 299.962 50.5046 299.59 49.41C299.196 48.3257 298.629 47.3125 297.91 46.41C297.157 45.4952 296.306 44.6668 295.37 43.9401C293.409 42.5318 291.258 41.4104 288.98 40.61C286.695 39.7369 284.357 39.0089 281.98 38.4301C277.208 37.2872 272.368 36.4488 267.49 35.92C257.72 34.78 247.9 34.15 238.06 33.92C228.22 33.69 218.38 33.7199 208.53 33.9999L201.15 34.2399L193.78 34.62L179.02 35.42L193.77 34.42L201.14 33.9501L208.52 33.62C218.36 33.22 228.22 33.0201 238.08 33.1801C247.94 33.3401 257.79 33.9299 267.6 35.0099C272.52 35.5109 277.403 36.3227 282.22 37.4401C284.638 38.0189 287.019 38.7435 289.35 39.61C291.728 40.4351 293.977 41.5932 296.03 43.0499C297.048 43.8257 297.974 44.7149 298.79 45.7001C299.605 46.7146 300.247 47.8565 300.69 49.08C301.116 50.322 301.286 51.6377 301.19 52.9474C301.094 54.257 300.733 55.5336 300.13 56.7001C298.926 58.9588 297.247 60.9303 295.21 62.4799C293.24 64.0288 291.135 65.3977 288.92 66.5699C284.485 68.8078 279.848 70.6192 275.07 71.9799C270.32 73.3999 265.5 74.5099 260.67 75.5199C250.991 77.4835 241.214 78.9257 231.38 79.84C221.56 80.84 211.74 81.58 201.89 82.08C182.175 83.1189 162.41 82.6809 142.76 80.7699C137.831 80.3123 132.93 79.5846 128.08 78.59C123.188 77.6176 118.447 76.0001 113.98 73.7799C111.672 72.695 109.589 71.1854 107.84 69.33C106.966 68.3319 106.331 67.1473 105.985 65.8666C105.638 64.5858 105.589 63.2428 105.84 61.9401C106.405 59.4234 107.626 57.1013 109.38 55.2101C111.028 53.3231 112.871 51.6167 114.88 50.12C118.877 47.1564 123.223 44.6946 127.82 42.7899C132.378 40.8964 137.054 39.303 141.82 38.0199C151.355 35.476 161.041 33.5357 170.82 32.2101C180.59 30.8701 190.41 30.01 200.25 29.42C210.09 28.83 219.93 28.4199 229.78 28.5699" stroke="#C0CC7C" stroke-width="1.5" stroke-linecap="round" stroke-linejoin="round"/>
<path d="M172.6 25.2199C154.306 17.8102 135.379 12.0736 116.05 8.08005C106.428 6.05524 96.6839 4.66234 86.88 3.91013C77.1238 3.15029 67.3153 3.39825 57.61 4.65012C52.8045 5.25186 48.0579 6.25537 43.42 7.65012C38.8355 9.0129 34.4609 11.0016 30.42 13.56C26.4635 16.0819 23.0612 19.3821 20.42 23.26C19.1046 25.1956 17.9952 27.2637 17.11 29.4302C16.1904 31.606 15.474 33.8623 14.97 36.1701C14.4386 38.473 14.0842 40.8132 13.91 43.1701C13.7149 45.5584 13.6748 47.9567 13.79 50.3501C13.8989 52.7539 14.1325 55.1504 14.49 57.53C14.83 59.93 15.26 62.3202 15.8 64.6902C17.8 74.2302 20.96 83.6901 22.99 93.4201C18.99 84.3401 14.99 75.25 12.4 65.51C9.81002 55.77 8.91002 45.35 11.1 35.26C11.6328 32.7225 12.396 30.2389 13.38 27.8401C14.3487 25.4159 15.5687 23.1001 17.02 20.9302C19.9719 16.5963 23.7843 12.9165 28.22 10.1201C32.5794 7.39977 37.2895 5.28692 42.22 3.84006C47.0754 2.40458 52.048 1.40068 57.08 0.840064C67.0429 -0.2903 77.0953 -0.397594 87.08 0.519996C97.0079 1.43212 106.866 2.99228 116.59 5.19016C136.046 9.44936 155.013 15.6988 173.19 23.8401C173.351 23.9309 173.474 24.0782 173.533 24.2536C173.592 24.4291 173.585 24.6204 173.511 24.7905C173.438 24.9606 173.304 25.0975 173.136 25.175C172.968 25.2525 172.777 25.2651 172.6 25.2102V25.2199Z" fill="#C3CF7B"/>
<path d="M29.45 73.2101C29.062 77.2239 28.4173 81.2086 27.52 85.14C27.1 87.09 26.62 89.0398 26.12 90.9698C26.0354 91.3135 25.9182 91.6484 25.77 91.9698C25.5225 92.5082 25.1359 92.9709 24.65 93.3099C24.087 93.6859 23.4155 93.8652 22.74 93.8199C22.2434 93.7934 21.7571 93.6678 21.31 93.4501C20.9598 93.2953 20.6249 93.1078 20.31 92.89L19.93 92.6L19.63 92.36L18.47 91.4501L9.18999 84.0499C6.10999 81.5499 2.99998 79.0499 -0.0200195 76.3099C3.80832 77.6577 7.49312 79.383 10.98 81.4601C14.474 83.5033 17.816 85.7958 20.98 88.3199C21.73 88.9099 22.69 89.76 22.98 89.89C23.05 89.89 23.09 89.89 22.98 89.89C22.8043 89.8932 22.6337 89.9489 22.49 90.0499C22.32 90.1699 22.28 90.2899 22.31 90.2499C22.3738 90.121 22.4273 89.9873 22.47 89.85C23.11 87.95 23.78 86.0701 24.47 84.2001C25.8973 80.4357 27.5606 76.7651 29.45 73.2101Z" fill="#C3CF7B"/>
</g>
<defs>
<clipPath id="clip0_12:1854">
<rect width="301.99" height="93.85" fill="white"/>
</clipPath>
</defs>
</svg>
