<svg width="254" height="70" viewBox="0 0 254 70" fill="none" xmlns="http://www.w3.org/2000/svg">
<g clip-path="url(#clip0_12:1927)">
<path d="M160.88 0.739968C148.21 0.609968 135.54 1.09007 122.88 1.84007C110.22 2.59007 97.6101 3.67987 85.0701 5.38987C72.5267 7.02369 60.0963 9.43158 47.8501 12.5998C41.7496 14.1845 35.76 16.1689 29.9201 18.54C24.1011 20.8897 18.5931 23.9458 13.5201 27.6399C11.0106 29.4683 8.70406 31.5602 6.64006 33.8799C4.55477 36.0805 3.08556 38.7915 2.38008 41.74C2.09739 43.1731 2.14689 44.6521 2.52479 46.0632C2.9027 47.4743 3.59894 48.7798 4.56007 49.8799C6.65702 52.1132 9.15328 53.9347 11.9201 55.25C17.5148 58.079 23.46 60.1536 29.6001 61.4199C35.7655 62.7376 41.998 63.719 48.2701 64.3598C73.4362 67.0292 98.7654 67.8316 124.05 66.76C136.69 66.29 149.33 65.4799 161.94 64.4399C174.543 63.4411 187.084 61.7721 199.51 59.4399C205.72 58.2599 211.89 56.9299 217.95 55.2199C224.019 53.5989 229.922 51.4091 235.58 48.6799C238.353 47.2772 240.994 45.6273 243.47 43.75C245.921 41.9414 247.965 39.6384 249.47 36.99C250.18 35.6965 250.616 34.271 250.752 32.802C250.888 31.3329 250.72 29.8516 250.26 28.4499C249.776 27.0376 249.06 25.7162 248.14 24.54C247.191 23.3546 246.107 22.2839 244.91 21.3498C242.408 19.5171 239.657 18.0524 236.74 17C233.82 15.8496 230.831 14.8842 227.79 14.1098C221.671 12.5801 215.462 11.4346 209.2 10.6799C196.65 9.06991 184.02 8.11991 171.37 7.67991C158.72 7.23991 146.05 7.12005 133.37 7.32005L123.87 7.52L114.38 7.88987L95.3801 8.67991L114.38 7.67991L123.87 7.18992L133.37 6.87986C146.04 6.52986 158.72 6.43001 171.37 6.78001C184.02 7.13001 196.72 8.04005 209.32 9.57005C215.64 10.2857 221.909 11.3977 228.09 12.8999C231.19 13.6704 234.239 14.6323 237.22 15.78C240.269 16.8672 243.148 18.3824 245.77 20.28C247.067 21.2785 248.245 22.4225 249.28 23.6899C250.311 24.9984 251.118 26.4683 251.67 28.04C252.202 29.6311 252.403 31.3142 252.26 32.9858C252.117 34.6574 251.634 36.2821 250.84 37.76C249.242 40.6237 247.053 43.1154 244.42 45.07C241.86 47.0111 239.133 48.721 236.27 50.1799C230.524 52.9723 224.528 55.2155 218.36 56.8799C212.24 58.6199 206.02 59.9699 199.79 61.1699C187.308 63.5258 174.711 65.2216 162.05 66.25C149.4 67.31 136.75 68.1599 124.05 68.6399C98.688 69.6668 73.2848 68.8079 48.0501 66.07C41.7202 65.4133 35.4308 64.4119 29.2101 63.07C22.9324 61.7621 16.856 59.6266 11.1401 56.7199C8.19058 55.3064 5.53681 53.3448 3.32008 50.9399C2.20169 49.6629 1.39402 48.1443 0.960309 46.5032C0.526595 44.862 0.478604 43.1428 0.820081 41.48C1.59454 38.2727 3.20201 35.3267 5.48005 32.9399C7.63523 30.558 10.0351 28.4096 12.6401 26.53C17.8281 22.8006 23.4575 19.7271 29.4001 17.3799C35.3065 15.0204 41.3631 13.0561 47.5301 11.5C59.8377 8.38498 72.329 6.04704 84.9301 4.49998C97.5201 2.93998 110.17 1.98987 122.83 1.38987C135.49 0.78987 148.17 0.469978 160.83 0.749978" fill="#F0B73E"/>
<path d="M160.88 0.739968C148.21 0.609968 135.54 1.09007 122.88 1.84007C110.22 2.59007 97.6101 3.67987 85.0701 5.38987C72.5267 7.02369 60.0963 9.43158 47.8501 12.5998C41.7496 14.1845 35.76 16.1689 29.9201 18.54C24.1011 20.8897 18.5931 23.9458 13.5201 27.6399C11.0106 29.4683 8.70406 31.5602 6.64006 33.8799C4.55477 36.0805 3.08556 38.7915 2.38008 41.74C2.09739 43.1732 2.14689 44.6521 2.52479 46.0632C2.9027 47.4743 3.59894 48.7798 4.56007 49.8799C6.65702 52.1132 9.15328 53.9347 11.9201 55.25C17.5148 58.079 23.46 60.1536 29.6001 61.4199C35.7655 62.7376 41.998 63.719 48.2701 64.3598C73.4362 67.0292 98.7655 67.8316 124.05 66.76C136.69 66.29 149.33 65.4799 161.94 64.4399C174.543 63.4411 187.084 61.7721 199.51 59.4399C205.72 58.2599 211.89 56.9299 217.95 55.2199C224.019 53.5989 229.922 51.4091 235.58 48.6799C238.353 47.2772 240.994 45.6273 243.47 43.75C245.921 41.9414 247.965 39.6384 249.47 36.99C250.18 35.6965 250.616 34.271 250.752 32.802C250.888 31.3329 250.72 29.8516 250.26 28.4499C249.776 27.0376 249.06 25.7162 248.14 24.54C247.191 23.3546 246.107 22.2839 244.91 21.3498C242.408 19.5171 239.657 18.0524 236.74 17C233.82 15.8496 230.831 14.8842 227.79 14.1098C221.671 12.5801 215.462 11.4346 209.2 10.6799C196.65 9.06991 184.02 8.11991 171.37 7.67991C158.72 7.23991 146.05 7.12005 133.37 7.32005L123.87 7.52L114.38 7.88987L95.3801 8.67991L114.38 7.67991L123.87 7.18992L133.37 6.87986C146.04 6.52986 158.72 6.43001 171.37 6.78001C184.02 7.13001 196.72 8.04005 209.32 9.57005C215.64 10.2857 221.909 11.3977 228.09 12.8999C231.19 13.6704 234.239 14.6323 237.22 15.78C240.269 16.8672 243.148 18.3824 245.77 20.28C247.067 21.2785 248.245 22.4225 249.28 23.6899C250.311 24.9984 251.118 26.4683 251.67 28.04C252.202 29.6311 252.403 31.3142 252.26 32.9858C252.117 34.6574 251.634 36.2821 250.84 37.76C249.242 40.6237 247.053 43.1154 244.42 45.07C241.86 47.0111 239.133 48.721 236.27 50.1799C230.524 52.9723 224.528 55.2155 218.36 56.8799C212.24 58.6199 206.02 59.9699 199.79 61.1699C187.308 63.5258 174.711 65.2216 162.05 66.25C149.4 67.31 136.75 68.1599 124.05 68.6399C98.688 69.6668 73.2848 68.8079 48.0501 66.07C41.7202 65.4133 35.4308 64.4119 29.2101 63.07C22.9324 61.7621 16.856 59.6266 11.1401 56.7199C8.19058 55.3064 5.53681 53.3448 3.32008 50.9399C2.20169 49.6629 1.39402 48.1443 0.960309 46.5032C0.526595 44.862 0.478604 43.1428 0.820081 41.48C1.59454 38.2727 3.20201 35.3267 5.48005 32.9399C7.63523 30.558 10.0351 28.4096 12.6401 26.53C17.8281 22.8006 23.4575 19.7271 29.4001 17.3799C35.3065 15.0204 41.3631 13.0561 47.5301 11.5C59.8377 8.38498 72.329 6.04704 84.9301 4.49998C97.5201 2.93998 110.17 1.98987 122.83 1.38987C135.49 0.78987 148.17 0.469978 160.83 0.749978" stroke="#F0B73E" stroke-width="1.27" stroke-linecap="round" stroke-linejoin="round"/>
</g>
<defs>
<clipPath id="clip0_12:1927">
<rect width="253.02" height="69.64" fill="white"/>
</clipPath>
</defs>
</svg>
