<svg width="447" height="94" viewBox="0 0 447 94" fill="none" xmlns="http://www.w3.org/2000/svg">
<g clip-path="url(#clip0_12:2567)">
<path d="M170.73 31.28C157.25 31.28 143.73 31.78 130.33 32.49C116.93 33.2 103.46 34.17 90.14 35.63C76.82 37.09 63.59 38.97 50.63 41.63C44.2185 42.9112 37.8769 44.52 31.63 46.45C25.6216 48.2832 19.815 50.7224 14.2999 53.73C11.7272 55.1389 9.29889 56.7969 7.04995 58.68C4.93995 60.51 3.16996 62.61 2.62996 64.88C2.36875 66.0591 2.45873 67.2889 2.88881 68.4174C3.3189 69.546 4.07023 70.5238 5.04995 71.23C7.43556 73.0384 10.1053 74.4375 12.95 75.37C19.0676 77.5663 25.3939 79.1311 31.83 80.04C38.38 81.04 45.0499 81.68 51.7399 82.17C78.5887 84.0252 105.519 84.4158 132.41 83.34C145.85 82.85 159.3 82.1 172.7 81.17C186.1 80.24 199.45 78.92 212.62 76.93C219.21 75.93 225.76 74.85 232.19 73.45C238.536 72.1542 244.777 70.386 250.86 68.16C253.735 67.0626 256.523 65.7489 259.2 64.23C261.661 62.9091 263.815 61.0825 265.52 58.87C266.244 57.9291 266.694 56.8073 266.823 55.6273C266.952 54.4474 266.754 53.2548 266.25 52.18C265.673 51.0478 264.894 50.031 263.95 49.18C262.879 48.2363 261.709 47.4115 260.46 46.72C257.687 45.272 254.754 44.1544 251.72 43.39C248.61 42.51 245.41 41.8 242.16 41.21C235.66 40.02 229.01 39.28 222.33 38.7C208.96 37.55 195.5 36.93 182.04 36.7C168.58 36.47 155.09 36.5 141.61 36.77L131.5 37.02L121.41 37.4L101.21 38.19L121.39 37.19L131.49 36.72L141.59 36.39C155.07 35.99 168.59 35.79 182.06 35.95C195.53 36.11 209.06 36.7 222.47 37.78C229.19 38.33 235.9 39.04 242.47 40.21C245.76 40.8 249.03 41.5 252.22 42.38C255.392 43.1727 258.462 44.327 261.37 45.82C262.722 46.5634 263.99 47.452 265.15 48.47C266.222 49.4229 267.104 50.5697 267.75 51.85C268.331 53.0684 268.568 54.4228 268.434 55.7661C268.3 57.1095 267.801 58.3904 266.99 59.47C265.43 61.83 262.88 63.65 260.25 65.25C257.488 66.8272 254.61 68.1912 251.64 69.33C245.451 71.6084 239.1 73.4201 232.64 74.75C226.14 76.17 219.54 77.28 212.93 78.28C199.69 80.28 186.27 81.64 172.83 82.61C159.39 83.58 145.94 84.34 132.45 84.85C105.446 85.8854 78.4061 85.4481 51.45 83.54C44.73 83.04 37.9999 82.4 31.3599 81.36C24.8065 80.4036 18.367 78.7853 12.14 76.53C9.11663 75.5133 6.27935 74.0102 3.73995 72.08C2.60693 71.2533 1.74082 70.113 1.24855 68.7997C0.756293 67.4864 0.659475 66.0577 0.96999 64.69C1.62999 62.09 3.58996 59.86 5.80996 57.96C8.15209 56.0178 10.6811 54.3128 13.3599 52.87C18.9982 49.8271 24.9323 47.3677 31.07 45.53C37.3922 43.6174 43.8071 42.0254 50.29 40.76C63.34 38.17 76.63 36.31 90 34.95C103.37 33.59 116.83 32.75 130.29 32.16C143.75 31.57 157.29 31.16 170.73 31.31" fill="#C682B5"/>
<path d="M170.73 31.28C157.25 31.28 143.73 31.78 130.33 32.49C116.93 33.2 103.46 34.17 90.14 35.63C76.82 37.09 63.59 38.97 50.63 41.63C44.2185 42.9112 37.8769 44.52 31.63 46.45C25.6216 48.2832 19.815 50.7224 14.2999 53.73C11.7272 55.1389 9.29889 56.7968 7.04995 58.68C4.93995 60.51 3.16996 62.61 2.62996 64.88C2.36875 66.0591 2.45873 67.2889 2.88881 68.4174C3.3189 69.546 4.07023 70.5238 5.04995 71.23C7.43556 73.0384 10.1053 74.4375 12.95 75.37C19.0676 77.5663 25.3939 79.1311 31.83 80.04C38.38 81.04 45.0499 81.68 51.7399 82.17C78.5887 84.0252 105.519 84.4158 132.41 83.34C145.85 82.85 159.3 82.1 172.7 81.17C186.1 80.24 199.45 78.92 212.62 76.93C219.21 75.93 225.76 74.85 232.19 73.45C238.536 72.1542 244.777 70.386 250.86 68.16C253.735 67.0626 256.523 65.7489 259.2 64.23C261.661 62.9091 263.815 61.0825 265.52 58.87C266.244 57.9291 266.694 56.8073 266.823 55.6273C266.952 54.4474 266.754 53.2548 266.25 52.18C265.673 51.0478 264.894 50.031 263.95 49.18C262.879 48.2363 261.709 47.4115 260.46 46.72C257.687 45.272 254.754 44.1544 251.72 43.39C248.61 42.51 245.41 41.8 242.16 41.21C235.66 40.02 229.01 39.28 222.33 38.7C208.96 37.55 195.5 36.93 182.04 36.7C168.58 36.47 155.09 36.5 141.61 36.77L131.5 37.02L121.41 37.4L101.21 38.19L121.39 37.19L131.49 36.72L141.59 36.39C155.07 35.99 168.59 35.79 182.06 35.95C195.53 36.11 209.06 36.7 222.47 37.78C229.19 38.33 235.9 39.04 242.47 40.21C245.76 40.8 249.03 41.5 252.22 42.38C255.392 43.1727 258.462 44.327 261.37 45.82C262.722 46.5634 263.99 47.452 265.15 48.47C266.222 49.4229 267.104 50.5697 267.75 51.85C268.331 53.0684 268.568 54.4228 268.434 55.7661C268.3 57.1095 267.801 58.3904 266.99 59.47C265.43 61.83 262.88 63.65 260.25 65.25C257.488 66.8272 254.61 68.1912 251.64 69.33C245.451 71.6084 239.1 73.4201 232.64 74.75C226.14 76.17 219.54 77.28 212.93 78.28C199.69 80.28 186.27 81.64 172.83 82.61C159.39 83.58 145.94 84.34 132.45 84.85C105.446 85.8854 78.4061 85.4481 51.45 83.54C44.73 83.04 37.9999 82.4 31.3599 81.36C24.8065 80.4036 18.367 78.7853 12.14 76.53C9.11663 75.5133 6.27935 74.0102 3.73995 72.08C2.60693 71.2533 1.74082 70.113 1.24855 68.7997C0.756293 67.4864 0.659475 66.0577 0.96999 64.69C1.62999 62.09 3.58996 59.86 5.80996 57.96C8.15209 56.0178 10.6811 54.3128 13.3599 52.87C18.9982 49.8271 24.9323 47.3677 31.07 45.53C37.3922 43.6174 43.8071 42.0254 50.29 40.76C63.34 38.17 76.63 36.31 90 34.95C103.37 33.59 116.83 32.75 130.29 32.16C143.75 31.57 157.29 31.16 170.73 31.31" stroke="#C682B5" stroke-width="1.5" stroke-linecap="round" stroke-linejoin="round"/>
<path d="M272.89 23.85C291.051 15.7401 309.997 9.51741 329.43 5.28002C339.154 3.08214 349.012 1.52217 358.94 0.610041C368.925 -0.308321 378.977 -0.201087 388.94 0.930048C393.975 1.48942 398.952 2.49333 403.81 3.93005C408.743 5.37603 413.453 7.49244 417.81 10.22C422.248 13.009 426.062 16.6861 429.01 21.02C430.461 23.1899 431.681 25.5059 432.65 27.93C433.634 30.3289 434.397 32.8125 434.93 35.35C437.12 45.44 436.21 55.91 433.63 65.6C431.05 75.29 427.05 84.43 423.04 93.51C425.04 83.76 428.21 74.32 430.23 64.78C430.77 62.41 431.23 60.0201 431.54 57.6201C431.85 55.2201 432.14 52.84 432.24 50.44C432.355 48.0466 432.315 45.6482 432.12 43.26C431.943 40.8868 431.589 38.5302 431.06 36.21C430.552 33.9034 429.835 31.6475 428.92 29.47C428.035 27.3036 426.925 25.2357 425.61 23.3C422.966 19.4245 419.564 16.1247 415.61 13.6C411.568 11.0429 407.194 9.05421 402.61 7.69C397.972 6.29624 393.225 5.29275 388.42 4.69C378.715 3.43813 368.906 3.19016 359.15 3.95001C349.346 4.70222 339.602 6.09524 329.98 8.12005C310.648 12.1149 291.718 17.8516 273.42 25.26C273.328 25.3022 273.228 25.3251 273.127 25.3271C273.025 25.3292 272.925 25.3104 272.831 25.272C272.737 25.2335 272.652 25.1762 272.582 25.1036C272.511 25.0311 272.456 24.9448 272.42 24.85C272.381 24.7539 272.362 24.6507 272.364 24.5468C272.367 24.443 272.391 24.3408 272.435 24.2468C272.479 24.1527 272.543 24.069 272.621 24.0007C272.699 23.9324 272.791 23.8811 272.89 23.85Z" fill="#C682B5"/>
<path d="M416.65 73.21C418.523 76.7695 420.169 80.4434 421.58 84.21C422.3 86.08 422.97 87.97 423.58 89.86C423.623 89.9974 423.676 90.1311 423.74 90.26C423.74 90.26 423.74 90.18 423.56 90.06C423.418 89.957 423.245 89.9042 423.07 89.91C422.96 89.91 423 89.91 423.07 89.91C423.36 89.78 424.32 88.91 425.07 88.34C428.236 85.8178 431.577 83.5253 435.07 81.48C438.559 79.4067 442.243 77.6817 446.07 76.33C443.07 79.08 439.95 81.57 436.87 84.07L427.59 91.47L426.43 92.39L426.13 92.62L425.74 92.91C425.443 93.1278 425.125 93.3154 424.79 93.47C424.343 93.6877 423.857 93.8135 423.36 93.84C422.685 93.8852 422.013 93.7059 421.45 93.33C420.961 92.9939 420.574 92.5305 420.33 91.99C420.18 91.6692 420.063 91.3342 419.98 90.99C419.48 89.06 418.98 87.12 418.58 85.16C417.682 81.222 417.037 77.2305 416.65 73.21Z" fill="#C682B5"/>
</g>
<defs>
<clipPath id="clip0_12:2567">
<rect width="446.07" height="93.85" fill="white"/>
</clipPath>
</defs>
</svg>
