<svg width="14" height="16" viewBox="0 0 14 16" fill="none" xmlns="http://www.w3.org/2000/svg">
<path d="M3.69997 1.89014C3.69997 2.38344 3.50399 2.85675 3.15517 3.20557C2.80635 3.55438 2.33329 3.75 1.83998 3.75C1.59666 3.75001 1.3558 3.70212 1.13124 3.6084C0.906691 3.51468 0.70288 3.37709 0.531756 3.2041C0.360633 3.03112 0.225579 2.82614 0.134296 2.60059C0.0430117 2.37503 -0.00262666 2.13345 1.81666e-05 1.89014C-0.00533143 1.39588 0.185131 0.919594 0.529925 0.56543C0.87472 0.211266 1.34576 0.00790072 1.83998 0C2.33603 0.00787467 2.80914 0.210859 3.15712 0.564453C3.5051 0.918047 3.70003 1.39403 3.69997 1.89014ZM0.329974 15.3101V4.86035H3.32997V15.3101H0.329974ZM7.82997 4.86035V5.34033C8.44527 5.06638 9.11423 4.93409 9.78749 4.95312C10.4608 4.97216 11.1212 5.14191 11.72 5.4502C12.3186 5.81586 12.8155 6.32642 13.1651 6.93457C13.5146 7.54272 13.7054 8.2289 13.72 8.93018V15.3101H10.72V8.93018C10.7074 8.75712 10.6548 8.58919 10.5663 8.43994C10.4778 8.2907 10.3558 8.16436 10.21 8.07031C9.01998 7.40031 7.77993 8.61035 7.77993 8.61035V15.3101H4.77993V4.86035H7.82997Z" fill="white" fill-opacity="0.3"/>
</svg>
