<svg width="374" height="113" viewBox="0 0 374 113" fill="none" xmlns="http://www.w3.org/2000/svg">
<g clip-path="url(#clip0_12:2712)">
<path d="M201.789 51.5004C185.869 51.3214 169.958 51.6973 154.082 52.3149C138.207 52.9326 122.35 53.8548 106.61 55.3408C90.8691 56.8268 75.1825 58.7873 59.9179 61.6071C52.2587 63.0395 44.6534 64.7133 37.4072 66.8439C30.3046 68.8419 23.4195 71.5409 16.8539 74.9006C13.8048 76.4725 10.9151 78.3343 8.22491 80.4599C5.71075 82.5189 3.60064 84.891 2.91823 87.4781C2.23581 90.0652 3.21454 92.7777 5.69278 94.774C8.50472 96.8728 11.6364 98.5079 14.9683 99.6169C22.1715 102.213 29.616 104.087 37.1917 105.212C44.9048 106.465 52.7616 107.271 60.6542 107.897C92.3147 110.394 124.085 111.219 155.833 110.368C171.708 110.001 187.584 109.33 203.423 108.461C219.262 107.593 235.021 106.259 250.59 104.174C258.384 103.144 266.133 101.98 273.748 100.476C281.247 99.0822 288.635 97.1495 295.854 94.6934C299.252 93.4822 302.553 92.019 305.731 90.316C308.73 88.6062 311.568 86.6724 313.256 84.2912C314.944 81.9099 315.483 79.1619 314.217 76.6464C313.547 75.3188 312.633 74.1283 311.523 73.1371C310.273 72.0374 308.906 71.0769 307.446 70.2725C304.181 68.5808 300.735 67.2597 297.174 66.3338C293.511 65.2954 289.74 64.4358 285.914 63.7107C278.264 62.2605 270.416 61.3205 262.569 60.5686C246.801 59.0736 230.926 58.1695 215.042 57.6771C199.158 57.1848 183.229 57.0686 167.318 57.1939L155.384 57.3281L143.469 57.6236L119.611 58.2502L143.451 57.4177L155.375 57.0237L167.3 56.7909C183.22 56.5223 199.149 56.4866 215.078 56.8626C231.007 57.2386 246.918 58.098 262.748 59.5482C270.668 60.2643 278.578 61.1773 286.354 62.6007C290.233 63.3168 294.085 64.1674 297.83 65.2238C301.565 66.1644 305.18 67.528 308.605 69.288C310.19 70.1453 311.674 71.175 313.031 72.3584C314.273 73.4568 315.296 74.7776 316.048 76.2524C316.718 77.6515 316.979 79.2099 316.803 80.7499C316.627 82.29 316.02 83.7496 315.052 84.9625C313.184 87.6481 310.14 89.6713 307.024 91.4706C303.732 93.2341 300.313 94.7541 296.797 96.0182C289.467 98.5262 281.965 100.504 274.349 101.936C266.663 103.466 258.86 104.621 251.003 105.695C235.353 107.826 219.496 109.151 203.62 110.082C187.745 111.013 171.861 111.684 155.923 112.069C124.047 112.88 92.1501 112.004 60.3669 109.446C52.4383 108.775 44.5007 107.951 36.6799 106.662C28.9307 105.5 21.3175 103.569 13.9536 100.897C10.4015 99.7057 7.06604 97.9495 4.07655 95.6961C1.24811 93.4223 0.0269365 90.1636 0.897915 87.2184C1.76889 84.2733 4.05859 81.7311 6.71642 79.5827C9.51367 77.3915 12.5213 75.4813 15.6956 73.8802C22.4095 70.485 29.4447 67.7621 36.6978 65.7518C44.1057 63.6302 51.7469 61.974 59.46 60.5775C74.8952 57.8025 90.6087 55.8601 106.403 54.4904C122.197 53.1208 138.099 52.3508 153.993 51.8674C169.886 51.3839 185.815 51.1512 201.735 51.4646" fill="#F0B73E"/>
<path d="M201.789 51.5004C185.869 51.3214 169.958 51.6973 154.082 52.3149C138.207 52.9326 122.35 53.8548 106.61 55.3408C90.8691 56.8268 75.1825 58.7873 59.9179 61.6071C52.2587 63.0395 44.6534 64.7133 37.4072 66.8439C30.3046 68.8419 23.4195 71.5409 16.8539 74.9006C13.8048 76.4725 10.9151 78.3343 8.22491 80.4599C5.71075 82.5189 3.60064 84.891 2.91823 87.4781C2.23581 90.0652 3.21454 92.7777 5.69278 94.774C8.50472 96.8728 11.6364 98.5079 14.9683 99.6169C22.1715 102.213 29.616 104.087 37.1917 105.212C44.9048 106.465 52.7616 107.271 60.6542 107.897C92.3147 110.394 124.085 111.219 155.833 110.368C171.708 110.001 187.584 109.33 203.423 108.461C219.262 107.593 235.021 106.259 250.59 104.174C258.384 103.144 266.133 101.98 273.748 100.476C281.247 99.0822 288.635 97.1495 295.854 94.6934C299.252 93.4822 302.553 92.019 305.731 90.316C308.73 88.6062 311.568 86.6724 313.256 84.2912C314.944 81.9099 315.483 79.1619 314.217 76.6464C313.547 75.3188 312.633 74.1283 311.523 73.1371C310.273 72.0374 308.906 71.0769 307.446 70.2725C304.181 68.5808 300.735 67.2597 297.174 66.3338C293.511 65.2954 289.74 64.4358 285.914 63.7107C278.264 62.2605 270.416 61.3205 262.569 60.5686C246.801 59.0736 230.926 58.1695 215.042 57.6771C199.158 57.1848 183.229 57.0686 167.318 57.1939L155.384 57.3281L143.469 57.6236L119.611 58.2502L143.451 57.4177L155.375 57.0237L167.3 56.7909C183.22 56.5223 199.149 56.4866 215.078 56.8626C231.007 57.2386 246.918 58.098 262.748 59.5482C270.668 60.2643 278.578 61.1773 286.354 62.6007C290.233 63.3168 294.085 64.1674 297.83 65.2238C301.565 66.1644 305.18 67.528 308.605 69.288C310.19 70.1453 311.674 71.175 313.032 72.3584C314.273 73.4568 315.296 74.7776 316.048 76.2524C316.718 77.6515 316.979 79.2099 316.803 80.7499C316.627 82.29 316.02 83.7496 315.052 84.9625C313.184 87.6481 310.14 89.6713 307.024 91.4706C303.732 93.2341 300.313 94.7541 296.797 96.0182C289.467 98.5262 281.965 100.504 274.349 101.936C266.663 103.466 258.86 104.621 251.003 105.695C235.353 107.826 219.496 109.151 203.62 110.082C187.745 111.013 171.861 111.684 155.923 112.069C124.047 112.88 92.1501 112.004 60.3669 109.446C52.4383 108.775 44.5007 107.951 36.6799 106.662C28.9307 105.5 21.3175 103.569 13.9536 100.897C10.4015 99.7057 7.06604 97.9495 4.07655 95.6961C1.24811 93.4223 0.0269365 90.1636 0.897915 87.2184C1.76889 84.2733 4.05859 81.7311 6.71642 79.5827C9.51367 77.3915 12.5213 75.4813 15.6956 73.8802C22.4095 70.485 29.4447 67.7621 36.6978 65.7518C44.1057 63.6302 51.7469 61.974 59.46 60.5775C74.8952 57.8025 90.6087 55.8601 106.403 54.4904C122.197 53.1208 138.099 52.3508 153.993 51.8674C169.886 51.3839 185.815 51.1512 201.735 51.4646" stroke="#F0B73E" stroke-width="1.5" stroke-linecap="round" stroke-linejoin="round"/>
<path d="M355.072 25.3877C358.481 24.315 361.953 23.4568 365.47 22.8184C367.203 22.4962 368.972 22.2007 370.687 21.9232C370.77 21.9114 370.851 21.8903 370.929 21.8605C370.812 21.9037 370.712 21.9819 370.642 22.0843C370.561 22.1807 370.511 22.2994 370.498 22.4246C370.498 22.4246 370.498 22.4245 370.498 22.3081C370.371 22.0004 370.224 21.7013 370.058 21.4129L369.439 20.2225C367.801 17.0458 366.396 13.7548 365.236 10.3753C364.047 6.9941 363.195 3.50362 362.695 -0.0447998C364.572 3.04361 366.197 6.16796 367.831 9.26532L372.635 18.5842L373.228 19.7569C373.495 20.239 373.714 20.7456 373.883 21.2698C374.004 21.655 374.061 22.057 374.054 22.4604C374.042 23.0284 373.86 23.5799 373.533 24.0449C373.204 24.507 372.74 24.8569 372.204 25.0474C371.862 25.1653 371.506 25.2404 371.145 25.2712C369.349 25.4055 367.607 25.5041 365.82 25.5667C362.237 25.7366 358.647 25.6769 355.072 25.3877Z" fill="#F0B73E"/>
<path d="M369.07 21.8159C365.008 19.1141 360.473 17.1979 355.7 16.1672C350.928 15.0991 346.055 14.5409 341.163 14.502C336.28 14.4337 331.401 14.8203 326.59 15.6569C321.775 16.4491 317.041 17.6746 312.448 19.3183C303.264 22.6011 294.674 27.3442 287.01 33.3638C283.179 36.416 279.545 39.7049 276.127 43.2109C272.715 46.7379 269.563 50.5156 266.421 54.3918C266.309 54.5281 266.151 54.6183 265.977 54.6447C265.803 54.671 265.625 54.6317 265.478 54.5345C265.331 54.4373 265.226 54.2892 265.183 54.1188C265.14 53.9485 265.162 53.7682 265.244 53.6131C267.615 49.1344 270.401 44.8873 273.568 40.9281C286.71 24.9325 305.426 14.4744 325.97 11.6464C331.048 10.9489 336.181 10.7421 341.298 11.0288C346.417 11.321 351.486 12.2042 356.401 13.6606C361.359 15.0901 365.967 17.5285 369.932 20.8221C370.065 20.9408 370.146 21.1066 370.158 21.2839C370.17 21.4613 370.111 21.6361 369.995 21.7711C369.886 21.8969 369.733 21.9774 369.567 21.9973C369.401 22.0171 369.234 21.9748 369.097 21.8784L369.07 21.8159Z" fill="#F0B73E"/>
</g>
<defs>
<clipPath id="clip0_12:2712">
<rect width="374" height="113" fill="white"/>
</clipPath>
</defs>
</svg>
