<svg width="16" height="13" viewBox="0 0 16 13" fill="none" xmlns="http://www.w3.org/2000/svg">
<path d="M14.22 3.24045V3.62033C14.233 5.2834 13.7954 6.91883 12.9538 8.35324C12.1121 9.78766 10.8978 10.9675 9.43961 11.7673C7.98145 12.5671 6.3339 12.9573 4.67191 12.8962C3.00991 12.8351 1.39552 12.3249 3.05176e-05 11.4201C0.240031 11.4201 0.509938 11.4201 0.779938 11.4201C2.23036 11.4322 3.64147 10.9493 4.77994 10.0505C4.10544 10.0329 3.45349 9.80432 2.91544 9.39719C2.37738 8.99006 1.98024 8.4248 1.77994 7.78049C1.9725 7.83165 2.17079 7.85811 2.37003 7.86008C2.65999 7.85688 2.94858 7.8201 3.23001 7.75022C2.49748 7.5974 1.83915 7.19876 1.36441 6.62033C0.889668 6.04191 0.627069 5.3188 0.620026 4.57053C1.08454 4.8192 1.60314 4.94959 2.13004 4.95041C1.67461 4.66436 1.30076 4.26528 1.04495 3.79221C0.789142 3.31914 0.659968 2.78793 0.669952 2.25022C0.668572 1.67234 0.816757 1.10402 1.10001 0.600315C1.90591 1.61627 2.92187 2.4461 4.07828 3.03293C5.23468 3.61976 6.50416 3.94964 7.79996 4.00022C7.74328 3.7713 7.71643 3.53631 7.72 3.30051C7.71467 2.43497 8.05273 1.60228 8.66006 0.985569C9.2674 0.368858 10.0945 0.0183961 10.96 0.0104716C11.4025 0.00532929 11.8414 0.0913451 12.2492 0.263401C12.6569 0.435457 13.0249 0.68986 13.33 1.01047C14.06 0.877033 14.7628 0.623603 15.4099 0.260472C15.141 0.994348 14.6387 1.61946 13.98 2.04026C14.6209 1.9583 15.247 1.78685 15.84 1.53049C15.3859 2.17611 14.8401 2.75212 14.22 3.24045Z" fill="white" fill-opacity="0.3"/>
</svg>
