<svg width="45" height="48" viewBox="0 0 45 48" fill="none" xmlns="http://www.w3.org/2000/svg">
<path d="M25.87 28.5926C26.8531 28.5926 27.6501 27.7943 27.6501 26.8095C27.6501 25.8247 26.8531 25.0264 25.87 25.0264C24.8869 25.0264 24.09 25.8247 24.09 26.8095C24.09 27.7943 24.8869 28.5926 25.87 28.5926Z" fill="#374860"/>
<path d="M39.8641 27.9534C40.5072 27.9534 41.0285 27.4312 41.0285 26.7871C41.0285 26.143 40.5072 25.6208 39.8641 25.6208C39.2211 25.6208 38.6998 26.143 38.6998 26.7871C38.6998 27.4312 39.2211 27.9534 39.8641 27.9534Z" fill="#374860"/>
<path d="M37.1437 29.9271H35.1061C34.4816 29.9271 33.9754 30.4342 33.9754 31.0598V31.4971C33.9754 32.1227 34.4816 32.6298 35.1061 32.6298H37.1437C37.7682 32.6298 38.2744 32.1227 38.2744 31.4971V31.0598C38.2744 30.4342 37.7682 29.9271 37.1437 29.9271Z" fill="#374860"/>
<path d="M43.1009 16.5713C41.5194 13.4721 39.2931 10.7484 36.5721 8.58368C33.851 6.419 30.6985 4.86363 27.3267 4.02234C23.9692 3.176 20.6615 2.14267 17.4189 0.927156C17.3669 0.909715 17.3114 0.905735 17.2575 0.915593C17.2035 0.92545 17.153 0.948821 17.1105 0.983527C17.068 1.01823 17.035 1.06315 17.0146 1.11408C16.9941 1.16501 16.9868 1.2203 16.9935 1.2748C17.1487 2.29381 17.5915 3.24713 18.2697 4.02234C19.6132 5.53629 17.7995 5.42415 16.6576 5.58115C15.5157 5.73815 10.7465 6.05216 8.66415 6.9381C6.58182 7.82405 6.42509 8.12684 7.54462 9.18099C8.66415 10.2352 9.78369 10.4819 8.89926 11.5136C8.01483 12.5453 3.5031 14.2163 1.67827 15.8872C-0.146568 17.5582 -0.336882 18.5899 1.10731 18.4778C2.55151 18.3656 4.0181 17.8049 3.80539 18.7918C3.55909 19.9132 2.46196 21.0347 1.83502 22.0664C1.02281 23.4025 0.464822 24.8778 0.189307 26.4176C0.189307 26.7316 -0.415243 29.4343 0.536359 28.8736C1.48796 28.3128 2.66346 26.4849 3.50311 26.698C4.7234 27.0008 4.51069 31.1838 4.56666 32.0585C4.69502 34.387 5.07031 36.6952 5.68619 38.9442C6.03325 40.2675 6.51465 43.015 8.32829 43.015C9.78368 43.015 10.0971 42.1291 10.4106 40.3684C10.7241 38.6077 11.5973 38.1255 12.8512 39.1684C14.4638 40.3619 15.9629 41.7021 17.3293 43.172C18.0029 43.9907 18.5295 44.9203 18.8855 45.9195C19.1766 46.7158 19.4452 47.7587 20.4528 47.8484C21.4604 47.9381 22.8374 48.4204 23.9346 46.1887C24.36 45.3027 24.5951 44.3047 25.0541 43.4636C25.793 42.2188 27.6066 42.2412 28.8605 42.1627C30.5286 42.0618 32.1407 41.602 33.8088 41.5123C35.4769 41.4225 35.6785 42.701 36.0479 43.5309C36.4173 44.3607 36.7196 45.7738 38.119 45.7738C39.5184 45.7738 39.9327 45.7738 41.3321 42.6001C44.5004 35.3331 46.4259 26.0027 43.6943 18.332C43.4807 17.7355 43.234 17.1515 42.9554 16.5825L43.1009 16.5713ZM36.7196 32.7538C33.4091 33.6117 29.9613 33.8023 26.5767 33.3145C24.7495 33.2099 22.9748 32.6635 21.4044 31.722C17.3853 28.8624 18.3929 21.0459 23.5315 20.0814C26.1736 19.5768 28.3119 21.3823 30.5062 22.5262C32.1183 23.3673 33.6297 24.6345 35.5665 24.1523C37.0555 23.7822 38.3765 22.5038 39.9663 22.5374C41.7687 22.5374 42.2837 24.4551 42.2053 25.9017C42.109 27.4146 41.5628 28.864 40.637 30.0632C39.7112 31.2624 38.4482 32.1565 37.0107 32.6304L36.7084 32.7201" fill="#374860"/>
</svg>
