<svg width="14" height="16" viewBox="0 0 14 16" fill="none" xmlns="http://www.w3.org/2000/svg">
<g clip-path="url(#clip0_12:388)">
<path d="M3.69997 1.89087C3.69997 2.38417 3.50399 2.85748 3.15517 3.2063C2.80635 3.55512 2.33329 3.75073 1.83998 3.75073C1.59666 3.75075 1.3558 3.70285 1.13124 3.60913C0.906691 3.51541 0.70288 3.37782 0.531756 3.20483C0.360633 3.03185 0.225579 2.82687 0.134296 2.60132C0.0430117 2.37577 -0.00262666 2.13418 1.81666e-05 1.89087C-0.00533143 1.39662 0.185131 0.920326 0.529925 0.566162C0.87472 0.211998 1.34576 0.00863314 1.83998 0.000732422C2.33603 0.00860709 2.80914 0.211592 3.15712 0.565186C3.5051 0.918779 3.70003 1.39476 3.69997 1.89087ZM0.329974 15.3108V4.86108H3.32997V15.3108H0.329974ZM7.82997 4.86108V5.34106C8.44527 5.06712 9.11423 4.93482 9.78749 4.95386C10.4608 4.9729 11.1212 5.14265 11.72 5.45093C12.3186 5.81659 12.8155 6.32715 13.1651 6.9353C13.5146 7.54346 13.7054 8.22963 13.72 8.93091V15.3108H10.72V8.93091C10.7074 8.75785 10.6548 8.58992 10.5663 8.44067C10.4778 8.29143 10.3558 8.16509 10.21 8.07104C9.01998 7.40104 7.77993 8.61108 7.77993 8.61108V15.3108H4.77993V4.86108H7.82997Z" fill="#D07EB6"/>
</g>
<defs>
<clipPath id="clip0_12:388">
<rect width="13.74" height="15.31" fill="white" transform="translate(0 0.000976562)"/>
</clipPath>
</defs>
</svg>
