<svg width="13" height="14" viewBox="0 0 13 14" fill="none" xmlns="http://www.w3.org/2000/svg">
<g clip-path="url(#clip0_12_3089)">
<path d="M4.78991 1.99C5.34454 1.98802 5.88737 2.15081 6.34935 2.45771C6.81134 2.76462 7.17171 3.20184 7.38488 3.71388C7.59804 4.22592 7.65434 4.78973 7.54662 5.33381C7.4389 5.87789 7.17208 6.37772 6.7799 6.76991C6.38771 7.1621 5.88782 7.42897 5.34374 7.53669C4.79966 7.64441 4.23591 7.58811 3.72387 7.37495C3.21183 7.16179 2.77455 6.80135 2.46764 6.33937C2.16073 5.87738 1.99801 5.33461 1.99999 4.77998C1.99999 4.04002 2.2939 3.33043 2.81713 2.8072C3.34035 2.28397 4.04995 1.99 4.78991 1.99V1.99ZM4.78991 -0.00999936C3.83971 -0.0119769 2.91038 0.26808 2.1195 0.794749C1.32861 1.32142 0.711819 2.071 0.347279 2.9485C-0.0172605 3.82599 -0.113124 4.79191 0.0717663 5.72395C0.256656 6.65599 0.71396 7.5122 1.38585 8.18409C2.05775 8.85599 2.9139 9.31335 3.84594 9.49824C4.77798 9.68313 5.74396 9.58727 6.62145 9.22273C7.49894 8.85819 8.24847 8.2414 8.77514 7.45051C9.3018 6.65962 9.58192 5.73018 9.57994 4.77998C9.5773 3.5104 9.07179 2.29361 8.17406 1.39588C7.27633 0.498157 6.05948 -0.00735716 4.78991 -0.00999936V-0.00999936Z" fill="#374860"/>
<path d="M4.79001 4.79001L11.25 12.16" stroke="#374860" stroke-width="2" stroke-linecap="round" stroke-linejoin="round"/>
<path d="M4.79 7.58C6.33087 7.58 7.58 6.33087 7.58 4.79C7.58 3.24913 6.33087 2 4.79 2C3.24913 2 2 3.24913 2 4.79C2 6.33087 3.24913 7.58 4.79 7.58Z" fill="#F5BB3F"/>
</g>
<defs>
<clipPath id="clip0_12_3089">
<rect width="12.25" height="13.16" fill="white"/>
</clipPath>
</defs>
</svg>
