<svg width="12" height="13" viewBox="0 0 12 13" fill="none" xmlns="http://www.w3.org/2000/svg">
<path d="M3.36 1.56995C3.36 1.98103 3.1967 2.37533 2.90602 2.66602C2.61534 2.9567 2.22103 3.12 1.80995 3.12C1.60817 3.11869 1.4087 3.07751 1.22291 2.99878C1.03713 2.92005 0.868705 2.80532 0.727428 2.66125C0.586151 2.51719 0.47475 2.34659 0.399669 2.1593C0.324588 1.97201 0.287286 1.77171 0.289928 1.56995C0.284569 1.16056 0.441421 0.765711 0.726207 0.471558C1.01099 0.177404 1.4006 0.0078893 1.80995 0C2.22286 0.00526048 2.61712 0.172933 2.90724 0.466797C3.19736 0.760661 3.36003 1.157 3.36 1.56995ZM0.559947 12.71V4.03992H3.06996V12.71H0.559947ZM6.78993 4.03992V4.43994C7.3008 4.21251 7.85618 4.10259 8.41517 4.11816C8.97416 4.13374 9.5225 4.27439 10.0199 4.52991C10.5206 4.83119 10.9373 5.25406 11.231 5.75928C11.5247 6.26449 11.6859 6.83571 11.7 7.41992V12.71H9.22999V7.41992C9.22007 7.27569 9.17698 7.13574 9.10414 7.01086C9.03129 6.88599 8.93061 6.77958 8.80995 6.69995C7.80995 6.13995 6.80995 7.15002 6.80995 7.15002V12.71H4.29994V4.03992H6.78993Z" fill="#374860"/>
</svg>
