<svg width="215" height="140" viewBox="0 0 215 140" fill="none" xmlns="http://www.w3.org/2000/svg">
<g clip-path="url(#clip0_12:3373)">
<path d="M115.923 0.714398C106.781 0.714398 97.6479 1.18758 88.5337 1.83702C79.4196 2.48645 70.324 3.39568 61.2933 4.75022C52.2573 6.04539 43.3113 7.90455 34.5077 10.3168C30.1148 11.516 25.8078 13.0099 21.616 14.7886C17.4346 16.5449 13.4877 18.8137 9.86598 21.5428C8.06804 22.909 6.42204 24.4642 4.95622 26.1816C3.47045 27.8036 2.43668 29.7871 1.95834 31.9338C1.7645 32.976 1.81177 34.0487 2.09651 35.0698C2.38125 36.0909 2.89593 37.0334 3.60114 37.8251C5.12888 39.4305 6.94572 40.7335 8.95644 41.666C13.0116 43.6693 17.3157 45.1232 21.7553 45.9894C26.2138 46.8956 30.7189 47.5553 35.2502 47.9656C53.4259 49.6908 71.7053 50.0537 89.9352 49.0511C99.0494 48.6058 108.164 47.9006 117.25 47.0378C126.335 46.2112 135.37 44.898 144.314 43.1041C148.778 42.1763 153.224 41.1743 157.586 39.8847C161.947 38.6473 166.182 37.0041 170.237 34.9768C172.226 33.9335 174.118 32.7132 175.889 31.3307C177.651 29.9946 179.11 28.2996 180.168 26.3579C180.671 25.4108 180.975 24.3707 181.061 23.3017C181.148 22.2327 181.014 21.1573 180.669 20.1418C180.301 19.1367 179.775 18.197 179.109 17.3585C178.413 16.5107 177.622 15.745 176.752 15.0763C174.93 13.7703 172.934 12.7271 170.821 11.9775C168.697 11.1758 166.528 10.5005 164.324 9.95498C159.895 8.89466 155.404 8.11685 150.876 7.62627C141.808 6.56862 132.694 5.98412 123.561 5.77074C114.428 5.55735 105.296 5.57591 96.1537 5.83569L89.3042 6.05834L82.4638 6.4109L68.7648 7.1531L82.4546 6.22533L89.2949 5.78931L96.1444 5.48313C105.277 5.1213 114.428 4.93576 123.58 5.0842C132.731 5.23264 141.873 5.78004 150.978 6.78203C155.545 7.24234 160.077 7.99537 164.547 9.0365C166.793 9.56923 169.003 10.2416 171.165 11.0497C173.372 11.8152 175.459 12.8897 177.365 14.2413C178.311 14.9552 179.171 15.7772 179.926 16.6906C180.68 17.6334 181.276 18.6925 181.69 19.8264C182.085 20.9803 182.244 22.2024 182.154 23.419C182.065 24.6356 181.73 25.8215 181.17 26.9053C180.046 28.9969 178.49 30.825 176.603 32.2678C174.777 33.7051 172.823 34.9722 170.766 36.0531C166.648 38.1283 162.344 39.8119 157.911 41.0815C153.502 42.399 149.029 43.4288 144.546 44.3566C135.562 46.1762 126.488 47.5172 117.361 48.3738C108.247 49.2552 99.133 49.9789 89.991 50.4427C71.6932 51.4098 53.3486 51.0066 35.111 49.2366C30.5465 48.78 26.0104 48.0739 21.5232 47.1213C16.9812 46.2249 12.5799 44.724 8.43669 42.6588C6.29113 41.6584 4.35679 40.257 2.73799 38.5302C1.92617 37.6063 1.3368 36.5089 1.01504 35.3221C0.693274 34.1352 0.647667 32.8904 0.881744 31.6833C1.4084 29.3485 2.538 27.1925 4.15799 25.4301C5.69275 23.6843 7.40683 22.1046 9.27197 20.717C12.9796 17.9642 17.0135 15.68 21.2819 13.9166C25.5099 12.1543 29.8508 10.6758 34.2756 9.49109C43.1243 7.12651 52.1143 5.32612 61.1912 4.10077C70.259 2.84828 79.3732 2.05965 88.506 1.51226C97.6387 0.964881 106.771 0.58451 115.913 0.714398" fill="#C3CF7B"/>
<path d="M115.923 0.714398C106.781 0.714398 97.6479 1.18758 88.5338 1.83702C79.4196 2.48645 70.324 3.39568 61.2933 4.75022C52.2573 6.04539 43.3113 7.90455 34.5077 10.3168C30.1148 11.516 25.8078 13.0099 21.616 14.7886C17.4346 16.5449 13.4877 18.8137 9.86598 21.5428C8.06804 22.909 6.42204 24.4642 4.95622 26.1816C3.47045 27.8036 2.43668 29.7871 1.95834 31.9338C1.7645 32.976 1.81177 34.0487 2.09651 35.0698C2.38125 36.0909 2.89593 37.0334 3.60114 37.8251C5.12888 39.4305 6.94572 40.7335 8.95644 41.666C13.0116 43.6693 17.3157 45.1232 21.7553 45.9894C26.2138 46.8956 30.7189 47.5553 35.2502 47.9656C53.4259 49.6908 71.7053 50.0537 89.9352 49.0511C99.0494 48.6058 108.164 47.9006 117.25 47.0378C126.335 46.2112 135.37 44.898 144.314 43.1041C148.778 42.1763 153.224 41.1743 157.586 39.8847C161.947 38.6473 166.182 37.0041 170.237 34.9768C172.226 33.9335 174.118 32.7132 175.889 31.3307C177.651 29.9946 179.11 28.2996 180.168 26.3579C180.671 25.4108 180.975 24.3707 181.061 23.3017C181.148 22.2327 181.014 21.1573 180.669 20.1418C180.301 19.1367 179.775 18.197 179.109 17.3585C178.413 16.5107 177.622 15.745 176.752 15.0763C174.93 13.7703 172.934 12.7271 170.821 11.9775C168.697 11.1758 166.528 10.5005 164.324 9.95497C159.895 8.89466 155.404 8.11685 150.876 7.62627C141.808 6.56862 132.694 5.98412 123.561 5.77074C114.428 5.55735 105.296 5.57591 96.1537 5.83569L89.3042 6.05834L82.4638 6.4109L68.7648 7.1531L82.4546 6.22533L89.2949 5.78931L96.1444 5.48313C105.277 5.1213 114.428 4.93576 123.58 5.0842C132.731 5.23264 141.873 5.78004 150.978 6.78203C155.545 7.24234 160.077 7.99537 164.547 9.03649C166.793 9.56923 169.003 10.2416 171.165 11.0497C173.372 11.8152 175.459 12.8897 177.365 14.2413C178.311 14.9552 179.171 15.7772 179.926 16.6906C180.68 17.6334 181.276 18.6925 181.69 19.8264C182.085 20.9803 182.244 22.2024 182.154 23.419C182.065 24.6356 181.73 25.8215 181.17 26.9053C180.046 28.9969 178.49 30.825 176.603 32.2678C174.777 33.7051 172.823 34.9722 170.766 36.0531C166.648 38.1283 162.344 39.8119 157.911 41.0815C153.502 42.399 149.029 43.4288 144.546 44.3566C135.562 46.1762 126.488 47.5172 117.361 48.3738C108.247 49.2552 99.133 49.9789 89.991 50.4427C71.6932 51.4098 53.3486 51.0066 35.111 49.2366C30.5465 48.78 26.0104 48.0739 21.5232 47.1213C16.9812 46.2249 12.5799 44.724 8.43669 42.6588C6.29113 41.6584 4.35679 40.257 2.73799 38.5302C1.92617 37.6063 1.3368 36.5089 1.01504 35.3221C0.693274 34.1352 0.647667 32.8905 0.881744 31.6833C1.4084 29.3485 2.538 27.1925 4.15799 25.4301C5.69275 23.6843 7.40683 22.1046 9.27197 20.717C12.9796 17.9642 17.0135 15.68 21.2819 13.9166C25.5099 12.1543 29.8508 10.6758 34.2756 9.49109C43.1243 7.12651 52.1143 5.32612 61.1912 4.10077C70.259 2.84828 79.3732 2.05965 88.506 1.51226C97.6387 0.964881 106.771 0.58451 115.913 0.714398" stroke="#C0CC7C" stroke-width="1.5" stroke-linecap="round" stroke-linejoin="round"/>
<path d="M169.522 43.4288C174.596 44.8923 179.559 46.7185 184.372 48.8933C189.224 51.046 193.838 53.7016 198.136 56.8165C202.522 59.9728 206.317 63.8764 209.348 68.3486C212.362 72.9507 214.236 78.2047 214.814 83.6753C215.341 89.1006 214.879 94.5765 213.45 99.837C212.037 105.03 209.959 110.02 207.269 114.681C204.624 119.265 201.663 123.657 198.405 127.828C195.139 131.952 191.594 135.848 187.797 139.49C190.132 134.787 192.796 130.254 195.769 125.926C198.656 121.612 201.57 117.362 203.992 112.863C206.471 108.438 208.419 103.735 209.793 98.8536C211.157 94.0307 211.687 89.0106 211.362 84.0093C210.974 79.0378 209.402 74.2311 206.777 69.9907C204.041 65.7408 200.586 61.9988 196.567 58.9317C192.478 55.8156 188.088 53.1149 183.462 50.8694C178.818 48.5651 174.05 46.5209 169.178 44.7462C169.02 44.677 168.893 44.5515 168.823 44.394C168.752 44.2366 168.742 44.0585 168.795 43.8943C168.848 43.73 168.961 43.5914 169.111 43.5054C169.26 43.4194 169.437 43.3921 169.605 43.4288H169.522Z" fill="#C3CF7B"/>
<path d="M187.889 119.775C188.529 123.456 188.932 127.175 189.096 130.908C189.198 132.763 189.254 134.619 189.282 136.474C189.269 136.607 189.269 136.741 189.282 136.873C189.282 136.929 189.282 136.808 189.18 136.651C189.08 136.522 188.944 136.425 188.79 136.372C188.688 136.372 188.725 136.372 188.79 136.372C189.077 136.372 190.173 135.871 191.008 135.565C194.518 134.236 198.119 133.164 201.783 132.355C205.441 131.521 209.171 131.048 212.921 130.945C209.478 132.513 206.016 133.821 202.582 135.148L192.27 139.035L190.98 139.508L190.655 139.638L190.228 139.777C189.906 139.887 189.573 139.962 189.235 140C188.777 140.064 188.31 140.039 187.862 139.926C187.249 139.776 186.706 139.423 186.321 138.924C185.987 138.486 185.776 137.967 185.708 137.421C185.677 137.094 185.677 136.764 185.708 136.437C185.82 134.582 185.95 132.726 186.135 130.871C186.487 127.139 187.072 123.433 187.889 119.775Z" fill="#C3CF7B"/>
</g>
<defs>
<clipPath id="clip0_12:3373">
<rect width="215" height="140" fill="white"/>
</clipPath>
</defs>
</svg>
