<svg width="387" height="459" viewBox="0 0 387 459" fill="none" xmlns="http://www.w3.org/2000/svg">
<g opacity="0.5" clip-path="url(#clip0_12:2529)">
<g style="mix-blend-mode:multiply">
<g style="mix-blend-mode:multiply">
<path d="M235.424 250.603C229.563 238.276 217.132 228.984 204.064 225.716C197.394 224.035 190.823 221.985 184.381 219.575C184.275 219.525 184.157 219.506 184.041 219.518C183.925 219.531 183.814 219.576 183.722 219.647C183.629 219.718 183.558 219.814 183.516 219.923C183.474 220.032 183.462 220.151 183.483 220.266C183.812 222.289 184.705 224.178 186.059 225.716C188.752 228.706 185.162 228.499 182.864 228.804C180.566 229.11 171.106 229.702 166.987 231.498C162.867 233.293 162.445 233.868 164.716 236.041C166.987 238.213 169.15 238.617 167.409 240.682C165.667 242.747 156.638 246.069 153.048 249.346C149.458 252.623 149.027 254.733 151.917 254.499C154.807 254.266 157.688 253.162 157.302 255.119C156.818 257.444 154.61 259.608 153.389 261.619C151.763 264.265 150.654 267.196 150.122 270.256C150.005 270.875 148.91 276.235 150.804 275.14C152.698 274.044 155.04 270.39 156.683 270.803C159.115 271.414 158.702 279.71 158.819 281.46C159.097 286.085 159.871 290.666 161.126 295.125C161.808 297.746 162.768 303.205 166.385 303.205C169.266 303.205 169.886 301.454 170.505 297.944C171.124 294.433 172.875 293.509 175.352 295.574C178.412 298.123 181.769 300.422 184.327 303.519C185.655 305.149 186.699 306.992 187.415 308.969C187.98 310.549 188.528 312.614 190.52 312.802C192.692 313.009 195.268 313.934 197.431 309.499C198.284 307.757 198.75 305.755 199.738 304.112C201.201 301.652 204.8 301.688 207.295 301.535C210.616 301.329 213.82 300.44 217.168 300.242C220.677 300.036 220.884 302.612 221.71 304.264C222.535 305.916 223.047 308.601 225.829 308.601C228.612 308.601 229.419 308.7 232.229 302.316C238.511 287.88 242.335 269.358 236.896 254.149C236.447 252.865 235.962 251.698 235.424 250.603ZM223.02 282.708C216.439 284.42 209.581 284.795 202.852 283.812C199.343 283.355 195.546 282.771 192.593 280.67C184.587 274.978 186.589 259.473 196.812 257.552C202.053 256.564 206.308 260.137 210.661 262.4C213.874 264.07 216.881 266.602 220.731 265.641C223.684 264.905 226.314 262.373 229.464 262.427C233.054 262.49 234.087 266.252 233.952 269.232C233.753 272.228 232.664 275.096 230.823 277.467C228.982 279.838 226.474 281.604 223.621 282.538L223.02 282.708Z" fill="#EAE8DF"/>
</g>
<g style="mix-blend-mode:multiply">
<path d="M235.146 89.7531C229.285 77.4263 216.845 68.1252 203.786 64.8662C197.112 63.1851 190.538 61.1318 184.094 58.7161C183.988 58.6664 183.87 58.6469 183.754 58.6596C183.638 58.6723 183.527 58.7169 183.435 58.7883C183.342 58.8597 183.271 58.9552 183.229 59.0644C183.187 59.1737 183.175 59.2923 183.196 59.4075C183.515 61.4335 184.409 63.3253 185.772 64.8572C188.465 67.8468 184.875 67.6403 182.577 67.9545C180.279 68.2688 170.819 68.8523 166.691 70.6479C162.562 72.4435 162.203 73.0181 164.42 75.1369C166.637 77.2557 168.854 77.7135 167.112 79.7785C165.371 81.8434 156.342 85.1652 152.752 88.4422C149.162 91.7191 148.731 93.829 151.612 93.6045C154.493 93.3801 157.392 92.267 156.997 94.2242C156.512 96.5495 154.305 98.7131 153.084 100.715C151.456 103.364 150.344 106.298 149.808 109.361C149.7 109.971 148.605 115.34 150.499 114.236C152.393 113.132 154.726 109.496 156.378 109.909C158.81 110.51 158.388 118.815 158.514 120.556C158.793 125.183 159.564 129.766 160.812 134.23C161.503 136.843 162.454 142.31 166.071 142.31C168.961 142.31 169.581 140.515 170.2 137.049C170.819 133.584 172.569 132.56 175.047 134.67C178.107 137.22 181.464 139.518 184.022 142.624C185.356 144.247 186.401 146.088 187.11 148.065C187.684 149.645 188.231 151.71 190.224 151.899C192.387 152.105 194.972 153.039 197.135 148.604C198.033 146.808 198.445 144.86 199.442 143.217C200.905 140.748 204.504 140.784 206.999 140.631C210.311 140.434 213.524 139.536 216.872 139.339C220.372 139.132 220.579 141.718 221.36 143.37C222.14 145.022 222.706 147.697 225.488 147.697C228.271 147.697 229.078 147.805 231.879 141.412C238.161 126.976 241.994 108.463 236.555 93.2455C236.169 92.0514 235.684 90.8933 235.146 89.7531ZM222.742 121.858C216.159 123.563 209.303 123.935 202.574 122.954C199.065 122.496 195.268 121.921 192.306 119.811C184.3 114.119 186.302 98.6234 196.525 96.6931C201.775 95.7055 206.03 99.2787 210.383 101.55C213.596 103.22 216.603 105.752 220.453 104.791C223.406 104.046 226.036 101.523 229.186 101.577C232.776 101.64 233.799 105.393 233.674 108.373C233.473 111.37 232.383 114.238 230.543 116.61C228.702 118.982 226.195 120.75 223.343 121.688L222.742 121.858Z" fill="#EAE8DF"/>
</g>
<g style="mix-blend-mode:multiply">
<path d="M382.952 174.694C377.091 162.367 364.66 153.075 351.592 149.807C344.922 148.126 338.351 146.076 331.909 143.666C331.803 143.616 331.686 143.597 331.569 143.609C331.453 143.622 331.342 143.667 331.25 143.738C331.157 143.809 331.086 143.905 331.044 144.014C331.002 144.123 330.991 144.242 331.012 144.357C331.339 146.378 332.232 148.264 333.587 149.798C336.28 152.797 332.69 152.59 330.392 152.895C328.095 153.2 318.635 153.793 314.515 155.589C310.395 157.384 309.973 157.959 312.244 160.123C314.515 162.286 316.678 162.708 314.937 164.764C313.196 166.82 304.166 170.151 300.576 173.437C296.986 176.723 296.555 178.824 299.445 178.59C302.335 178.357 305.216 177.253 304.83 179.21C304.346 181.535 302.138 183.699 300.917 185.71C299.291 188.356 298.182 191.287 297.65 194.347C297.533 194.966 296.439 200.326 298.332 199.222C300.226 198.117 302.569 194.481 304.22 194.894C306.643 195.505 306.231 203.801 306.347 205.542C306.625 210.17 307.398 214.754 308.654 219.216C309.336 221.837 310.296 227.296 313.914 227.296C316.795 227.296 317.414 225.545 318.033 222.035C318.652 218.524 320.403 217.6 322.88 219.665C325.941 222.205 329.297 224.504 331.855 227.61C333.185 229.239 334.229 231.082 334.943 233.06C335.508 234.631 336.056 236.651 338.048 236.893C340.22 237.091 342.796 238.025 344.959 233.59C345.857 231.848 346.279 229.846 347.266 228.203C348.729 225.734 352.328 225.779 354.823 225.626C358.144 225.419 361.348 224.522 364.696 224.333C368.205 224.127 368.412 226.703 369.238 228.355C370.063 230.007 370.575 232.683 373.357 232.683C376.14 232.683 376.948 232.79 379.757 226.398C386.04 211.962 389.863 193.449 384.424 178.231C383.975 176.983 383.491 175.834 382.952 174.694ZM370.548 206.799C363.969 208.506 357.115 208.882 350.389 207.903C346.871 207.437 343.074 206.862 340.122 204.761C332.116 199.069 334.117 183.564 344.34 181.643C349.591 180.655 353.836 184.229 358.189 186.491C361.402 188.161 364.409 190.693 368.259 189.732C371.212 188.996 373.842 186.464 376.992 186.518C380.582 186.581 381.615 190.333 381.48 193.314C381.282 196.31 380.193 199.177 378.354 201.55C376.515 203.922 374.009 205.691 371.158 206.629L370.548 206.799Z" fill="#EAE8DF"/>
</g>
<g style="mix-blend-mode:multiply">
<path d="M382.952 317.534C377.091 305.207 364.66 295.906 351.592 292.647C344.921 290.967 338.35 288.914 331.909 286.497C331.803 286.45 331.686 286.433 331.572 286.447C331.457 286.462 331.348 286.506 331.256 286.577C331.164 286.647 331.093 286.741 331.05 286.849C331.007 286.957 330.994 287.074 331.012 287.188C331.339 289.211 332.232 291.101 333.587 292.638C336.28 295.627 332.69 295.421 330.392 295.735C328.095 296.049 318.635 296.633 314.515 298.429C310.395 300.224 309.973 300.799 312.244 302.918C314.515 305.036 316.678 305.503 314.937 307.559C313.196 309.615 304.166 312.946 300.576 316.232C296.986 319.518 296.555 321.619 299.445 321.385C302.335 321.152 305.216 320.048 304.83 322.005C304.346 324.33 302.138 326.494 300.917 328.505C299.291 331.151 298.182 334.081 297.65 337.142C297.533 337.761 296.439 343.121 298.332 342.017C300.226 340.912 302.569 337.276 304.22 337.689C306.643 338.3 306.231 346.596 306.347 348.337C306.626 352.964 307.399 357.548 308.654 362.011C309.336 364.623 310.296 370.091 313.914 370.091C316.795 370.091 317.414 368.295 318.033 364.83C318.652 361.364 320.403 360.395 322.88 362.451C325.941 365 329.297 367.299 331.855 370.405C333.185 372.034 334.229 373.877 334.943 375.855C335.508 377.426 336.056 379.491 338.048 379.679C340.22 379.886 342.796 380.82 344.959 376.385C345.857 374.589 346.279 372.641 347.266 370.998C348.729 368.529 352.328 368.574 354.823 368.412C358.144 368.214 361.348 367.317 364.696 367.128C368.205 366.922 368.412 369.498 369.238 371.15C370.063 372.802 370.575 375.478 373.357 375.478C376.14 375.478 376.948 375.586 379.757 369.193C386.04 354.757 389.863 336.244 384.424 321.026C383.975 319.832 383.491 318.674 382.952 317.534ZM370.548 349.639C363.968 351.342 357.116 351.717 350.389 350.743C346.871 350.277 343.074 349.702 340.122 347.601C332.116 341.909 334.117 326.404 344.34 324.483C349.591 323.495 353.836 327.068 358.189 329.331C361.402 331.001 364.409 333.533 368.259 332.572C371.212 331.827 373.842 329.304 376.992 329.358C380.582 329.421 381.615 333.173 381.48 336.154C381.282 339.15 380.193 342.017 378.354 344.389C376.515 346.762 374.009 348.531 371.158 349.469L370.548 349.639Z" fill="#EAE8DF"/>
</g>
<g style="mix-blend-mode:multiply">
<path d="M235.424 396.594C229.563 384.267 217.132 374.975 204.064 371.707C197.394 370.026 190.823 367.976 184.381 365.566C184.275 365.516 184.157 365.497 184.041 365.51C183.925 365.522 183.814 365.567 183.722 365.638C183.629 365.71 183.558 365.805 183.516 365.914C183.474 366.024 183.462 366.142 183.483 366.257C183.811 368.278 184.704 370.164 186.059 371.698C188.752 374.697 185.162 374.49 182.864 374.795C180.566 375.101 171.106 375.693 166.987 377.489C162.867 379.284 162.445 379.859 164.716 382.032C166.987 384.204 169.15 384.608 167.409 386.673C165.667 388.738 156.638 392.06 153.048 395.337C149.458 398.614 149.027 400.724 151.917 400.49C154.807 400.257 157.688 399.153 157.302 401.11C156.818 403.435 154.61 405.599 153.389 407.61C151.763 410.256 150.654 413.187 150.122 416.247C150.005 416.866 148.91 422.226 150.804 421.131C152.698 420.035 155.04 416.382 156.683 416.795C159.115 417.405 158.702 425.701 158.819 427.451C159.097 432.076 159.871 436.657 161.126 441.116C161.808 443.737 162.768 449.196 166.385 449.196C169.266 449.196 169.886 447.445 170.505 443.935C171.124 440.425 172.875 439.5 175.352 441.565C178.412 444.114 181.769 446.413 184.327 449.51C185.655 451.141 186.699 452.983 187.415 454.96C187.98 456.54 188.528 458.596 190.52 458.793C192.692 459 195.268 459.925 197.431 455.49C198.284 453.748 198.75 451.746 199.738 450.103C201.201 447.643 204.8 447.679 207.295 447.526C210.616 447.32 213.82 446.422 217.168 446.233C220.677 446.027 220.884 448.603 221.71 450.255C222.535 451.907 223.047 454.592 225.829 454.592C228.612 454.592 229.419 454.691 232.229 448.307C238.511 433.862 242.335 415.349 236.896 400.14C236.467 398.934 235.975 397.75 235.424 396.594ZM223.02 428.699C216.439 430.411 209.581 430.787 202.852 429.804C199.343 429.337 195.546 428.762 192.593 426.661C184.587 420.969 186.589 405.464 196.812 403.543C202.053 402.555 206.308 406.129 210.661 408.391C213.874 410.061 216.881 412.593 220.731 411.632C223.684 410.896 226.314 408.364 229.464 408.418C233.054 408.481 234.087 412.243 233.952 415.214C233.753 418.211 232.663 421.079 230.822 423.452C228.981 425.824 226.474 427.592 223.621 428.529L223.02 428.699Z" fill="#EAE8DF"/>
</g>
<g style="mix-blend-mode:multiply">
<path d="M382.952 31.0728C377.091 18.746 364.66 9.44484 351.592 6.18583C344.921 4.50606 338.35 2.45276 331.909 0.035814C331.803 -0.0105873 331.686 -0.0275905 331.572 -0.0135036C331.457 0.000583226 331.348 0.045388 331.256 0.116037C331.164 0.186687 331.093 0.280528 331.05 0.388051C331.007 0.495575 330.994 0.612704 331.012 0.727137C331.339 2.75053 332.232 4.64001 333.587 6.17684C336.28 9.16651 332.69 8.95998 330.392 9.27421C328.095 9.58844 318.635 10.172 314.515 11.9676C310.395 13.7632 309.973 14.3378 312.244 16.4566C314.515 18.5754 316.678 19.0334 314.937 21.0984C313.196 23.1633 304.166 26.4851 300.576 29.7621C296.986 33.039 296.555 35.1488 299.445 34.9244C302.335 34.6999 305.216 33.5866 304.83 35.5438C304.346 37.8691 302.138 40.0328 300.917 42.0349C299.292 44.6846 298.183 47.6183 297.65 50.6808C297.533 51.2913 296.439 56.6601 298.332 55.5558C300.226 54.4515 302.569 50.8154 304.22 51.2284C306.643 51.8299 306.231 60.1346 306.347 61.8764C306.626 66.5035 307.399 71.0875 308.654 75.5498C309.336 78.1624 310.296 83.63 313.914 83.63C316.795 83.63 317.414 81.8343 318.033 78.3688C318.652 74.9033 320.403 73.8799 322.88 75.9897C325.941 78.5395 329.297 80.838 331.855 83.9443C333.183 85.5712 334.227 87.4104 334.943 89.3848C335.508 90.965 336.056 93.0299 338.048 93.2185C340.22 93.4249 342.796 94.3587 344.959 89.9236C345.857 88.1729 346.279 86.1798 347.266 84.5368C348.729 82.0679 352.328 82.1037 354.823 81.951C358.144 81.7535 361.348 80.8558 364.696 80.6582C368.205 80.4518 368.412 83.0374 369.238 84.6894C370.063 86.3413 370.575 89.0168 373.357 89.0168C376.14 89.0168 376.948 89.1245 379.757 82.7322C386.04 68.2956 389.863 49.7831 384.424 34.5654C383.975 33.3354 383.491 32.213 382.952 31.0728ZM370.548 63.1781C363.968 64.8823 357.115 65.2547 350.389 64.2734C346.871 63.8155 343.074 63.2409 340.122 61.1311C332.116 55.4391 334.117 39.943 344.34 38.0128C349.591 37.0252 353.836 40.5986 358.189 42.87C361.402 44.5399 364.409 47.0716 368.259 46.1109C371.212 45.3658 373.842 42.8429 376.992 42.8968C380.582 42.9596 381.615 46.7125 381.48 49.6932C381.28 52.6882 380.191 55.5554 378.352 57.9274C376.514 60.2995 374.009 62.0685 371.158 63.0076L370.548 63.1781Z" fill="#EAE8DF"/>
</g>
<g style="mix-blend-mode:multiply">
<path d="M85.7058 174.694C79.8449 162.367 67.405 153.075 54.3458 149.807C47.6736 148.125 41.0996 146.074 34.6539 143.666C34.5482 143.612 34.4295 143.59 34.3116 143.601C34.1938 143.612 34.0815 143.657 33.9877 143.729C33.8939 143.801 33.8224 143.899 33.7815 144.01C33.7405 144.121 33.7319 144.241 33.7564 144.357C34.0754 146.38 34.9696 148.269 36.3323 149.798C39.0249 152.796 35.4347 152.59 33.137 152.895C30.8393 153.2 21.3793 153.793 17.2507 155.589C13.122 157.384 12.7091 157.959 14.9799 160.122C17.2506 162.286 19.4137 162.708 17.6725 164.764C15.9312 166.82 6.90202 170.151 3.31188 173.437C-0.278271 176.723 -0.709107 178.824 2.17199 178.59C5.05308 178.357 7.95213 177.252 7.55721 179.21C7.06356 181.535 4.8646 183.699 3.63498 185.71C2.01224 188.357 0.903804 191.288 0.367929 194.347C0.251249 194.966 -0.834753 200.326 1.05905 199.222C2.95285 198.117 5.28649 194.481 6.93796 194.894C9.37029 195.505 8.94845 203.8 9.0741 205.542C9.35276 210.169 10.1229 214.752 11.3717 219.216C12.0539 221.837 13.0142 227.296 16.6313 227.296C19.5214 227.296 20.1408 225.545 20.7601 222.035C21.3794 218.524 23.1295 217.6 25.6067 219.665C28.6583 222.205 32.0241 224.504 34.582 227.61C35.9182 229.234 36.9629 231.078 37.6696 233.06C38.244 234.631 38.7915 236.651 40.784 236.893C42.9471 237.091 45.5321 238.025 47.6951 233.589C48.5927 231.848 49.0055 229.846 50.0018 228.203C51.4648 225.734 55.0639 225.779 57.5591 225.626C60.871 225.419 64.0842 224.522 67.432 224.333C70.9324 224.127 71.1388 226.703 71.9197 228.355C72.7005 230.007 73.2659 232.683 76.0483 232.683C78.8307 232.683 79.6385 232.79 82.4388 226.398C88.7215 211.961 92.554 193.449 87.1149 178.231C86.6931 176.983 86.2443 175.834 85.7058 174.694ZM73.3018 206.799C66.7197 208.506 59.8632 208.881 53.1342 207.903C49.6158 207.436 45.8283 206.862 42.8664 204.761C34.8604 199.069 36.8618 183.564 47.0848 181.643C52.3354 180.655 56.5808 184.228 60.9428 186.491C64.156 188.161 67.1627 190.693 71.0042 189.732C73.966 188.996 76.5958 186.464 79.7462 186.518C83.3363 186.581 84.3595 190.333 84.2338 193.314C84.0323 196.31 82.9415 199.177 81.1011 201.549C79.2607 203.921 76.7544 205.69 73.9032 206.629L73.3018 206.799Z" fill="#EAE8DF"/>
</g>
<g style="mix-blend-mode:multiply">
<path d="M85.7059 317.534C79.845 305.207 67.405 295.906 54.3459 292.647C47.6667 290.972 41.0864 288.925 34.636 286.515C34.5301 286.465 34.4126 286.446 34.2963 286.458C34.1799 286.471 34.0694 286.516 33.9767 286.587C33.884 286.658 33.8127 286.754 33.7707 286.863C33.7287 286.972 33.7175 287.091 33.7385 287.206C34.0569 289.232 34.951 291.124 36.3144 292.656C39.007 295.645 35.4169 295.439 33.1192 295.753C30.8215 296.067 21.3614 296.651 17.2328 298.447C13.1041 300.242 12.6912 300.817 14.962 302.936C17.2327 305.054 19.3958 305.521 17.6546 307.577C15.9133 309.633 6.88412 312.964 3.29398 316.25C-0.296172 319.536 -0.726897 321.637 2.1542 321.403C5.03529 321.17 7.93433 320.066 7.53942 322.023C7.04577 324.348 4.8467 326.512 3.61708 328.523C1.99434 331.17 0.886014 334.101 0.350138 337.16C0.233458 337.779 -0.852653 343.139 1.04115 342.035C2.93495 340.931 5.26859 337.294 6.92006 337.707C9.35239 338.318 8.93055 346.613 9.0562 348.355C9.3356 352.982 10.1059 357.565 11.354 362.029C12.0361 364.641 12.9964 370.109 16.6135 370.109C19.5036 370.109 20.1229 368.313 20.7422 364.848C21.3615 361.382 23.1117 360.413 25.5889 362.469C28.6405 365.018 32.0063 367.317 34.5642 370.423C35.9004 372.048 36.945 373.891 37.6517 375.873C38.2261 377.444 38.7736 379.509 40.7661 379.697C42.9292 379.904 45.5142 380.838 47.6772 376.403C48.5748 374.607 48.9876 372.659 49.9839 371.016C51.4468 368.547 55.046 368.592 57.5412 368.43C60.8531 368.232 64.0663 367.335 67.4141 367.146C70.9145 366.94 71.1209 369.516 71.9018 371.168C72.6826 372.82 73.248 375.496 76.0304 375.496C78.8128 375.496 79.6205 375.604 82.4209 369.211C88.7036 354.775 92.5361 336.262 87.097 321.044C86.6931 319.832 86.2444 318.674 85.7059 317.534ZM73.3019 349.639C66.7191 351.342 59.8635 351.717 53.1342 350.743C49.6159 350.277 45.8283 349.702 42.8665 347.601C34.8604 341.909 36.8619 326.404 47.0848 324.483C52.3354 323.495 56.5808 327.068 60.9429 329.331C64.156 331.001 67.1628 333.533 71.0042 332.572C73.9661 331.827 76.5959 329.304 79.7462 329.358C83.3364 329.421 84.3596 333.173 84.2339 336.154C84.0324 339.15 82.9416 342.017 81.1012 344.389C79.2608 346.761 76.7545 348.53 73.9032 349.469L73.3019 349.639Z" fill="#EAE8DF"/>
</g>
<g style="mix-blend-mode:multiply">
<path d="M85.7066 31.0729C79.8457 18.7461 67.4058 9.4449 54.3466 6.18589C47.6731 4.50485 41.0989 2.45158 34.6547 0.0358768C34.5488 -0.0138194 34.4311 -0.0333841 34.3148 -0.0206741C34.1985 -0.00796411 34.0881 0.0365878 33.9954 0.10799C33.9027 0.179392 33.8314 0.274938 33.7894 0.384169C33.7474 0.493399 33.7362 0.612058 33.7572 0.7272C34.0756 2.75327 34.9697 4.64506 36.3331 6.1769C39.0257 9.16658 35.4355 8.96004 33.1378 9.27427C30.8401 9.5885 21.3801 10.1721 17.2514 11.9677C13.1228 13.7633 12.7099 14.3379 14.9806 16.4567C17.2514 18.5755 19.4145 19.0335 17.6733 21.0984C15.932 23.1634 6.90282 26.4851 3.31267 29.7621C-0.277478 33.0391 -0.708313 35.1489 2.17278 34.9245C5.05387 34.7 7.95292 33.5867 7.558 35.5439C7.06436 37.8692 4.8654 40.0329 3.63577 42.035C2.0145 44.6865 0.906214 47.6195 0.368722 50.6809C0.252043 51.2914 -0.83396 56.6602 1.05984 55.5559C2.95365 54.4516 5.28729 50.8154 6.93875 51.2284C9.37108 51.8299 8.94924 60.1347 9.0749 61.8764C9.3543 66.5028 10.1245 71.0864 11.3725 75.5499C12.0547 78.1625 13.015 83.6301 16.6321 83.6301C19.5222 83.6301 20.1415 81.8344 20.7608 78.3689C21.3801 74.9034 23.1303 73.88 25.6075 75.9898C28.6591 78.5395 32.0248 80.838 34.5828 83.9444C35.9171 85.5669 36.9616 87.4073 37.6704 89.3849C38.2448 90.965 38.7923 93.03 40.7848 93.2185C42.9479 93.425 45.5329 94.3588 47.6959 89.9237C48.5935 88.173 49.0063 86.1798 50.0026 84.5369C51.4655 82.0679 55.0647 82.1037 57.5599 81.9511C60.8718 81.7536 64.085 80.8558 67.4328 80.6583C70.9332 80.4518 71.1396 83.0375 71.9205 84.6894C72.7013 86.3414 73.2667 89.0169 76.0491 89.0169C78.8315 89.0169 79.6392 89.1246 82.4396 82.7323C88.7223 68.2957 92.5548 49.7831 87.1157 34.5654C86.6938 33.3354 86.2451 32.2131 85.7066 31.0729ZM73.3026 63.1782C66.7199 64.8824 59.8634 65.2547 53.135 64.2735C49.6166 63.8156 45.8291 63.241 42.8672 61.1312C34.8612 55.4391 36.8626 39.9431 47.0856 38.0128C52.3362 37.0253 56.5816 40.5986 60.9436 42.8701C64.1568 44.54 67.1635 47.0717 71.0049 46.111C73.9668 45.3658 76.5966 42.8429 79.7469 42.8968C83.3371 42.9597 84.3603 46.7125 84.2346 49.6932C84.0307 52.6883 82.939 55.5546 81.099 57.9262C79.2589 60.2977 76.7539 62.0669 73.904 63.0076L73.3026 63.1782Z" fill="#EAE8DF"/>
</g>
</g>
</g>
<defs>
<clipPath id="clip0_12:2529">
<rect width="387" height="459" fill="white"/>
</clipPath>
</defs>
</svg>
