<svg width="294" height="71" viewBox="0 0 294 71" fill="none" xmlns="http://www.w3.org/2000/svg">
<g clip-path="url(#clip0_12:1933)">
<path d="M107.41 69.68C122.13 69.68 136.84 69.0299 151.52 68.1299C166.2 67.2299 180.84 65.9899 195.38 64.1299C209.885 62.3627 224.282 59.8088 238.51 56.4798C245.542 54.8376 252.471 52.7808 259.26 50.3198C265.898 47.949 272.245 44.8323 278.18 41.0298C281.031 39.2059 283.682 37.0878 286.09 34.71C288.4 32.38 290.32 29.7098 290.92 26.7998C291.221 25.3343 291.135 23.8157 290.67 22.3936C290.205 20.9715 289.378 19.695 288.27 18.69C285.734 16.4279 282.815 14.6364 279.65 13.3999C273.037 10.616 266.119 8.61907 259.04 7.44997C251.89 6.14997 244.61 5.35976 237.31 4.72976C208.018 2.35834 178.605 1.86066 149.25 3.23977C134.58 3.85977 119.9 4.81978 105.25 5.99978C90.6 7.17978 76.06 8.87994 61.68 11.4199C54.49 12.6799 47.33 14.0699 40.31 15.8499C33.3432 17.5306 26.5294 19.7918 19.94 22.6099C16.7679 24.0171 13.7204 25.6897 10.8299 27.6099C8.06994 29.6099 5.47998 31.75 3.93998 34.45C3.14098 35.7088 2.65186 37.139 2.5128 38.6236C2.37373 40.1081 2.58863 41.6044 3.13993 42.9898C3.73979 44.4248 4.58965 45.742 5.64994 46.8799C6.7986 48.0686 8.07653 49.1251 9.45994 50.0298C12.4428 51.853 15.6496 53.2816 19 54.2798C22.4242 55.3958 25.9059 56.3272 29.43 57.0698C36.5836 58.5262 43.8108 59.5944 51.0799 60.2698C65.6799 61.7298 80.3599 62.5299 95.0799 62.8599C109.8 63.1899 124.5 63.1098 139.21 62.7598L150.21 62.45L161.21 61.97L183.26 60.97L161.26 62.22L150.26 62.8198L139.26 63.2398C124.55 63.7498 109.82 63.9998 95.0899 63.7898C80.3599 63.5798 65.63 62.84 50.97 61.46C43.6359 60.823 36.3418 59.788 29.12 58.3599C25.5236 57.6251 21.9686 56.7005 18.47 55.5899C14.961 54.5601 11.5998 53.0812 8.46995 51.19C6.96695 50.231 5.58092 49.0999 4.33995 47.8198C3.14567 46.5588 2.18419 45.0961 1.49998 43.4998C0.863553 41.9269 0.606986 40.2263 0.751201 38.5357C0.895415 36.8451 1.4363 35.2122 2.32994 33.7698C4.02994 30.7698 6.81997 28.4399 9.67997 26.3899C12.6663 24.3946 15.8139 22.6519 19.0899 21.18C25.7826 18.294 32.7073 15.979 39.79 14.2598C46.88 12.4498 54.09 11.0298 61.31 9.74978C75.76 7.16978 90.4099 5.46976 105.08 4.22976C119.75 2.98976 134.43 2.00989 149.16 1.36989C178.619 0.0458254 208.132 0.603548 237.52 3.03982C244.86 3.68982 252.2 4.48986 259.45 5.82986C266.693 7.04362 273.768 9.10456 280.53 11.97C283.901 13.3018 287.006 15.2253 289.7 17.6499C290.975 18.8265 291.922 20.3145 292.448 21.9678C292.974 23.6211 293.061 25.3828 292.7 27.0799C291.97 30.3999 289.84 33.25 287.41 35.68C284.895 38.1219 282.133 40.2968 279.17 42.1699C273.101 46.0083 266.616 49.1449 259.84 51.5198C252.966 53.9611 245.954 55.9948 238.84 57.6099C224.536 60.8731 210.065 63.3501 195.49 65.0298C180.89 66.7498 166.21 67.8399 151.49 68.5999C136.77 69.3599 122.07 69.82 107.35 69.69" fill="#C2CE7C"/>
<path d="M107.41 69.68C122.13 69.68 136.84 69.0299 151.52 68.1299C166.2 67.2299 180.84 65.9899 195.38 64.1299C209.885 62.3627 224.282 59.8088 238.51 56.4798C245.542 54.8376 252.471 52.7808 259.26 50.3198C265.898 47.949 272.245 44.8323 278.18 41.0298C281.031 39.2059 283.682 37.0878 286.09 34.71C288.4 32.38 290.32 29.7098 290.92 26.7998C291.221 25.3343 291.135 23.8157 290.67 22.3936C290.205 20.9715 289.378 19.695 288.27 18.69C285.734 16.4279 282.815 14.6364 279.65 13.3999C273.037 10.616 266.119 8.61907 259.04 7.44997C251.89 6.14997 244.61 5.35976 237.31 4.72976C208.018 2.35834 178.605 1.86066 149.25 3.23977C134.58 3.85977 119.9 4.81978 105.25 5.99978C90.6 7.17978 76.06 8.87994 61.68 11.4199C54.49 12.6799 47.33 14.0699 40.31 15.8499C33.3432 17.5306 26.5294 19.7918 19.94 22.6099C16.7679 24.0171 13.7204 25.6897 10.8299 27.6099C8.06994 29.6099 5.47998 31.75 3.93998 34.45C3.14098 35.7088 2.65186 37.139 2.5128 38.6236C2.37373 40.1081 2.58863 41.6044 3.13993 42.9898C3.73979 44.4248 4.58965 45.742 5.64994 46.8799C6.7986 48.0686 8.07653 49.1251 9.45994 50.0298C12.4428 51.853 15.6496 53.2816 19 54.2798C22.4242 55.3958 25.9059 56.3272 29.43 57.0698C36.5836 58.5262 43.8108 59.5944 51.0799 60.2698C65.6799 61.7298 80.3599 62.5299 95.0799 62.8599C109.8 63.1899 124.5 63.1098 139.21 62.7598L150.21 62.45L161.21 61.97L183.26 60.97L161.26 62.22L150.26 62.8198L139.26 63.2398C124.55 63.7498 109.82 63.9998 95.0899 63.7898C80.3599 63.5798 65.63 62.84 50.97 61.46C43.6359 60.823 36.3418 59.788 29.12 58.3599C25.5236 57.6251 21.9686 56.7005 18.47 55.5899C14.961 54.5601 11.5998 53.0812 8.46995 51.19C6.96695 50.231 5.58092 49.0999 4.33995 47.8198C3.14567 46.5588 2.18419 45.0961 1.49998 43.4998C0.863553 41.9269 0.606986 40.2263 0.751201 38.5357C0.895415 36.8451 1.4363 35.2121 2.32994 33.7698C4.02994 30.7698 6.81997 28.4399 9.67997 26.3899C12.6663 24.3946 15.8139 22.6519 19.0899 21.18C25.7826 18.294 32.7073 15.979 39.79 14.2598C46.88 12.4498 54.09 11.0298 61.31 9.74978C75.76 7.16978 90.4099 5.46976 105.08 4.22976C119.75 2.98976 134.43 2.00989 149.16 1.36989C178.619 0.0458254 208.132 0.603548 237.52 3.03982C244.86 3.68982 252.2 4.48986 259.45 5.82986C266.693 7.04362 273.768 9.10456 280.53 11.97C283.901 13.3018 287.006 15.2253 289.7 17.6499C290.975 18.8264 291.922 20.3145 292.448 21.9678C292.974 23.6211 293.061 25.3828 292.7 27.0799C291.97 30.3999 289.84 33.25 287.41 35.68C284.895 38.1219 282.133 40.2968 279.17 42.1699C273.101 46.0083 266.616 49.1449 259.84 51.5198C252.966 53.9611 245.954 55.9948 238.84 57.6099C224.536 60.8731 210.065 63.3501 195.49 65.0298C180.89 66.7498 166.21 67.8399 151.49 68.5999C136.77 69.3599 122.07 69.82 107.35 69.69" stroke="#C2CE7C" stroke-width="1.37" stroke-linecap="round" stroke-linejoin="round"/>
</g>
<defs>
<clipPath id="clip0_12:1933">
<rect width="293.63" height="70.38" fill="white"/>
</clipPath>
</defs>
</svg>
