<svg width="222" height="61" viewBox="0 0 222 61" fill="none" xmlns="http://www.w3.org/2000/svg">
<g clip-path="url(#clip0_12:1983)">
<path d="M141.156 0.648169C130.039 0.534297 118.923 0.954831 107.815 1.61178C96.7069 2.26873 85.6429 3.22333 74.6403 4.72117C63.6347 6.15229 52.7283 8.26144 41.9834 11.0366C36.6309 12.4247 31.3756 14.1629 26.2516 16.2398C21.146 18.298 16.3133 20.9749 11.8622 24.2107C9.6604 25.8123 7.63668 27.6447 5.82572 29.6765C3.99609 31.6041 2.707 33.9787 2.08801 36.5614C1.83998 37.8168 1.88341 39.1123 2.21499 40.3483C2.54656 41.5843 3.15745 42.7279 4.00074 43.6914C5.8406 45.6477 8.03083 47.2432 10.4584 48.3953C15.3672 50.8733 20.5835 52.6906 25.9709 53.7997C31.3804 54.954 36.8489 55.8136 42.3519 56.3749C64.4327 58.7132 86.6566 59.416 108.841 58.4773C119.932 58.0656 131.022 57.3561 142.086 56.4451C153.144 55.5702 164.148 54.1082 175.05 52.0654C180.499 51.0318 185.912 49.8668 191.229 48.369C196.554 46.9491 201.734 45.031 206.698 42.6404C209.131 41.4117 211.448 39.9665 213.621 38.3221C215.771 36.7379 217.565 34.7206 218.885 32.4008C219.508 31.2678 219.89 30.0191 220.01 28.7324C220.129 27.4456 219.982 26.148 219.578 24.9202C219.154 23.6831 218.525 22.5256 217.718 21.4954C216.886 20.4571 215.934 19.5192 214.884 18.701C212.689 17.0957 210.275 15.8127 207.716 14.8909C205.154 13.8832 202.531 13.0376 199.863 12.3593C194.494 11.0194 189.046 10.016 183.552 9.3549C172.541 7.94464 161.459 7.11251 150.36 6.7271C139.261 6.34168 128.144 6.23669 117.019 6.41188L108.683 6.58702L100.357 6.91101L83.6863 7.60303L100.357 6.7271L108.683 6.2979L117.019 6.02631C128.135 5.71973 139.261 5.63226 150.36 5.93884C161.459 6.24542 172.602 7.04255 183.657 8.38273C189.203 9.00958 194.703 9.98364 200.126 11.2994C202.846 11.9743 205.521 12.817 208.137 13.8222C210.812 14.7746 213.338 16.1017 215.639 17.7639C216.776 18.6385 217.81 19.6407 218.718 20.7508C219.623 21.8969 220.331 23.1844 220.815 24.5612C221.282 25.9549 221.458 27.4292 221.333 28.8934C221.208 30.3576 220.784 31.7807 220.087 33.0752C218.685 35.5837 216.765 37.7662 214.454 39.4784C212.208 41.1786 209.815 42.6764 207.303 43.9543C202.262 46.4002 197.001 48.3651 191.589 49.823C186.219 51.3471 180.762 52.5296 175.296 53.5808C164.344 55.6444 153.291 57.1298 142.183 58.0306C131.083 58.9591 119.984 59.7035 108.841 60.124C86.5887 61.0235 64.2999 60.2712 42.1589 57.873C36.6051 57.2977 31.0868 56.4205 25.6287 55.2452C20.1206 54.0995 14.7892 52.229 9.77403 49.6829C7.18616 48.4447 4.85774 46.7265 2.91277 44.62C1.9315 43.5014 1.22285 42.1712 0.842307 40.7337C0.461765 39.2961 0.419658 37.7902 0.71927 36.3337C1.39878 33.5243 2.80918 30.9439 4.80794 28.8532C6.69889 26.7668 8.80455 24.8849 11.0901 23.2385C15.6421 19.9718 20.5814 17.2797 25.7954 15.2236C30.9776 13.1568 36.2918 11.4363 41.7027 10.0732C52.5014 7.34469 63.4613 5.29681 74.5175 3.94169C85.5639 2.57523 96.6631 1.743 107.771 1.21744C118.879 0.69188 130.004 0.411675 141.112 0.656937" fill="#F0B73E"/>
<path d="M141.156 0.648169C130.039 0.534297 118.923 0.954831 107.815 1.61178C96.7069 2.26873 85.6429 3.22333 74.6403 4.72117C63.6347 6.15229 52.7283 8.26144 41.9834 11.0366C36.6309 12.4247 31.3756 14.1629 26.2516 16.2398C21.146 18.298 16.3133 20.9749 11.8622 24.2107C9.6604 25.8123 7.63668 27.6447 5.82572 29.6765C3.99609 31.6041 2.707 33.9787 2.08801 36.5614C1.83998 37.8168 1.88341 39.1123 2.21499 40.3483C2.54656 41.5843 3.15745 42.7279 4.00074 43.6914C5.8406 45.6477 8.03083 47.2432 10.4584 48.3953C15.3672 50.8733 20.5835 52.6906 25.9709 53.7997C31.3804 54.954 36.8489 55.8136 42.3519 56.3749C64.4327 58.7132 86.6566 59.416 108.841 58.4773C119.932 58.0656 131.022 57.3561 142.086 56.4451C153.144 55.5702 164.148 54.1082 175.05 52.0654C180.499 51.0318 185.912 49.8668 191.229 48.369C196.554 46.9491 201.734 45.031 206.698 42.6404C209.131 41.4117 211.448 39.9665 213.621 38.3221C215.771 36.7379 217.565 34.7206 218.885 32.4008C219.508 31.2678 219.89 30.0191 220.01 28.7324C220.129 27.4456 219.982 26.148 219.578 24.9202C219.154 23.6831 218.525 22.5256 217.718 21.4954C216.886 20.4571 215.934 19.5192 214.884 18.701C212.689 17.0957 210.275 15.8127 207.716 14.8909C205.154 13.8832 202.531 13.0376 199.863 12.3593C194.494 11.0194 189.046 10.016 183.552 9.3549C172.541 7.94464 161.459 7.11251 150.36 6.7271C139.261 6.34168 128.144 6.23669 117.019 6.41188L108.683 6.58702L100.357 6.91101L83.6863 7.60303L100.357 6.7271L108.683 6.2979L117.019 6.02631C128.135 5.71973 139.261 5.63226 150.36 5.93884C161.459 6.24542 172.602 7.04255 183.657 8.38273C189.203 9.00958 194.703 9.98364 200.126 11.2994C202.846 11.9743 205.521 12.817 208.137 13.8222C210.812 14.7746 213.338 16.1017 215.639 17.7639C216.776 18.6385 217.81 19.6407 218.718 20.7508C219.623 21.8969 220.331 23.1844 220.815 24.5612C221.282 25.9549 221.458 27.4292 221.333 28.8934C221.208 30.3576 220.784 31.7807 220.087 33.0752C218.685 35.5837 216.765 37.7662 214.454 39.4784C212.208 41.1786 209.815 42.6764 207.303 43.9543C202.262 46.4002 197.001 48.3651 191.589 49.823C186.219 51.3471 180.762 52.5296 175.296 53.5808C164.344 55.6444 153.291 57.1298 142.183 58.0306C131.083 58.9591 119.984 59.7035 108.841 60.124C86.5887 61.0235 64.2999 60.2712 42.1589 57.873C36.6051 57.2977 31.0868 56.4205 25.6287 55.2452C20.1206 54.0995 14.7892 52.229 9.77403 49.6829C7.18616 48.4447 4.85774 46.7265 2.91277 44.62C1.9315 43.5014 1.22285 42.1712 0.842307 40.7337C0.461765 39.2961 0.419658 37.7902 0.71927 36.3337C1.39878 33.5243 2.80918 30.9439 4.80794 28.8532C6.69889 26.7668 8.80455 24.8849 11.0901 23.2385C15.6421 19.9718 20.5814 17.2797 25.7954 15.2236C30.9777 13.1568 36.2918 11.4363 41.7027 10.0732C52.5014 7.34469 63.4613 5.29681 74.5175 3.94169C85.5639 2.57523 96.6631 1.743 107.771 1.21744C118.879 0.69188 130.004 0.411675 141.112 0.656937" stroke="#F0B73E" stroke-width="1.27" stroke-linecap="round" stroke-linejoin="round"/>
</g>
<defs>
<clipPath id="clip0_12:1983">
<rect width="222" height="61" fill="white"/>
</clipPath>
</defs>
</svg>
