<svg width="315" height="65" viewBox="0 0 315 65" fill="none" xmlns="http://www.w3.org/2000/svg">
<g clip-path="url(#clip0_12:1852)">
<path d="M115.262 64.0999C131.044 64.0999 146.801 63.5082 162.532 62.6852C178.263 61.8622 193.969 60.7134 209.546 59.0074C225.122 57.3014 240.614 55.0896 255.77 51.9948C263.274 50.4949 270.697 48.612 278.008 46.3537C285.043 44.2152 291.84 41.3598 298.292 37.8322C301.304 36.1913 304.144 34.2527 306.77 32.0455C309.248 29.9109 311.305 27.4505 311.914 24.7928C312.522 22.1352 311.554 19.3748 309.076 17.3602C306.28 15.2536 303.158 13.6175 299.835 12.5163C292.676 9.94986 285.273 8.12299 277.742 7.06406C270.087 5.86385 262.311 5.14359 254.459 4.5692C223.045 2.39722 191.536 1.93944 160.072 3.19766C144.349 3.77206 128.618 4.65507 112.921 5.76955C97.2244 6.88404 81.6305 8.40148 66.2165 10.7333C58.501 11.8821 50.8369 13.168 43.3185 14.7969C35.8983 16.3223 28.6003 18.391 21.4835 20.9865C18.1173 22.2728 14.8532 23.8117 11.7191 25.5901C8.76147 27.3818 5.98379 29.388 4.3378 31.857C3.48993 32.9588 2.96155 34.2725 2.81036 35.6545C2.65915 37.0365 2.89096 38.4335 3.48053 39.6925C4.15011 41.037 5.06616 42.2439 6.18097 43.2504C7.42941 44.356 8.79486 45.3218 10.2531 46.1308C13.4992 47.8237 16.9315 49.1328 20.4805 50.0316C24.124 51.0603 27.8702 51.8919 31.668 52.6034C39.2721 53.9922 47.0563 54.8583 54.8661 55.5355C70.5115 56.8729 86.2512 57.6014 102.017 57.91C117.782 58.2186 133.548 58.1416 149.313 57.8244L161.135 57.5414L172.948 57.0956L196.626 56.0755L173.017 57.2158L161.203 57.7643L149.382 58.1587C133.616 58.6216 117.834 58.8532 102.042 58.6646C86.2513 58.4759 70.4687 57.8073 54.7632 56.5213C46.9105 55.8784 39.0492 55.0467 31.3336 53.6836C27.4759 52.9978 23.6181 52.1748 19.9232 51.1117C16.2143 50.1872 12.6243 48.8381 9.22436 47.0911C7.64032 46.2214 6.15436 45.1837 4.79217 43.9962C3.54635 42.8765 2.51755 41.5368 1.75738 40.0442C1.07409 38.6195 0.792844 37.0353 0.943937 35.4626C1.09503 33.8898 1.67267 32.3881 2.61465 31.1196C4.44067 28.3677 7.43264 26.2331 10.5017 24.3556C13.7345 22.5128 17.1018 20.9165 20.5748 19.5805C27.8062 16.9224 35.2249 14.8048 42.7699 13.2451C50.374 11.582 58.0895 10.2788 65.8308 9.11292C81.3219 6.74679 97.0273 5.18658 112.741 4.04638C128.455 2.90618 144.204 2.02312 159.986 1.43159C191.561 0.216388 223.179 0.72583 254.699 2.95759C262.56 3.54912 270.43 4.29497 278.205 5.52947C285.908 6.62748 293.477 8.51199 300.795 11.1534C304.333 12.3364 307.653 14.0944 310.619 16.357C313.448 18.646 314.691 21.9723 313.868 24.9986C313.045 28.0248 310.799 30.6481 308.193 32.8771C305.461 35.1523 302.505 37.1456 299.372 38.8266C292.775 42.3836 285.832 45.2563 278.651 47.3996C271.254 49.647 263.746 51.5099 256.156 52.9806C240.896 56.0154 225.345 58.1845 209.7 59.7791C194.055 61.3736 178.315 62.3508 162.549 63.0452C146.784 63.7396 131.019 64.1684 115.236 64.0484" fill="#F0B73E"/>
<path d="M115.262 64.0999C131.044 64.0999 146.801 63.5082 162.532 62.6852C178.263 61.8622 193.969 60.7134 209.546 59.0074C225.122 57.3014 240.614 55.0896 255.77 51.9948C263.274 50.4949 270.697 48.612 278.008 46.3537C285.043 44.2152 291.84 41.3598 298.292 37.8322C301.304 36.1913 304.144 34.2527 306.77 32.0455C309.248 29.9109 311.305 27.4505 311.914 24.7928C312.522 22.1352 311.554 19.3748 309.076 17.3602C306.28 15.2536 303.158 13.6175 299.835 12.5163C292.676 9.94986 285.273 8.12299 277.742 7.06406C270.087 5.86385 262.311 5.14359 254.459 4.5692C223.045 2.39722 191.536 1.93944 160.072 3.19767C144.349 3.77205 128.618 4.65507 112.921 5.76955C97.2244 6.88404 81.6305 8.40148 66.2165 10.7333C58.501 11.8821 50.8369 13.168 43.3185 14.7969C35.8984 16.3223 28.6003 18.391 21.4835 20.9865C18.1173 22.2728 14.8532 23.8117 11.7191 25.5901C8.76147 27.3818 5.98378 29.388 4.3378 31.857C3.48994 32.9588 2.96155 34.2725 2.81035 35.6545C2.65915 37.0365 2.89095 38.4335 3.48052 39.6925C4.15013 41.037 5.06615 42.2439 6.18098 43.2504C7.42941 44.356 8.79487 45.3218 10.2531 46.1308C13.4992 47.8237 16.9315 49.1328 20.4805 50.0316C24.124 51.0603 27.8702 51.8919 31.668 52.6034C39.2721 53.9922 47.0563 54.8583 54.8661 55.5355C70.5115 56.8729 86.2512 57.6014 102.017 57.91C117.782 58.2186 133.548 58.1416 149.313 57.8244L161.135 57.5414L172.948 57.0956L196.626 56.0755L173.017 57.2158L161.203 57.7643L149.382 58.1587C133.616 58.6216 117.834 58.8532 102.042 58.6646C86.2513 58.4759 70.4687 57.8073 54.7632 56.5213C46.9105 55.8784 39.0492 55.0467 31.3336 53.6836C27.4759 52.9978 23.6181 52.1748 19.9233 51.1117C16.2143 50.1872 12.6243 48.8381 9.22438 47.0911C7.64032 46.2214 6.15435 45.1837 4.79219 43.9962C3.54636 42.8765 2.51754 41.5368 1.75737 40.0442C1.07409 38.6195 0.792858 37.0353 0.943938 35.4626C1.09502 33.8898 1.67268 32.3881 2.61466 31.1196C4.44067 28.3677 7.43265 26.2331 10.5017 24.3556C13.7345 22.5128 17.1018 20.9165 20.5748 19.5804C27.8062 16.9224 35.2249 14.8048 42.7699 13.2451C50.374 11.582 58.0895 10.2788 65.8308 9.11292C81.3219 6.74679 97.0273 5.18659 112.741 4.04638C128.455 2.90618 144.204 2.02312 159.986 1.43159C191.561 0.216389 223.179 0.725831 254.699 2.95759C262.56 3.54912 270.43 4.29497 278.205 5.52947C285.908 6.62748 293.477 8.51199 300.795 11.1534C304.333 12.3364 307.653 14.0944 310.619 16.357C313.448 18.646 314.691 21.9723 313.868 24.9986C313.045 28.0248 310.799 30.6481 308.193 32.8771C305.461 35.1523 302.505 37.1456 299.372 38.8266C292.775 42.3837 285.832 45.2563 278.651 47.3996C271.254 49.647 263.746 51.5099 256.156 52.9806C240.896 56.0154 225.345 58.1845 209.7 59.7791C194.055 61.3736 178.315 62.3508 162.549 63.0452C146.784 63.7396 131.019 64.1684 115.236 64.0484" stroke="#F0B73E" stroke-width="2.05" stroke-linecap="round" stroke-linejoin="round"/>
</g>
<defs>
<clipPath id="clip0_12:1852">
<rect width="315" height="65" fill="white" transform="translate(315 65) rotate(180)"/>
</clipPath>
</defs>
</svg>
