<svg width="16" height="13" viewBox="0 0 16 13" fill="none" xmlns="http://www.w3.org/2000/svg">
<g clip-path="url(#clip0_12:390)">
<path d="M14.22 3.24143V3.62131C14.233 5.28438 13.7954 6.9198 12.9538 8.35422C12.1121 9.78864 10.8978 10.9685 9.43961 11.7683C7.98145 12.5681 6.3339 12.9583 4.67191 12.8972C3.00991 12.8361 1.39552 12.3259 3.05176e-05 11.4211C0.240031 11.4211 0.509938 11.4211 0.779938 11.4211C2.23036 11.4332 3.64147 10.9502 4.77994 10.0515C4.10544 10.0339 3.45349 9.80529 2.91544 9.39817C2.37738 8.99104 1.98024 8.42577 1.77994 7.78147C1.9725 7.83262 2.17079 7.85909 2.37003 7.86106C2.65999 7.85785 2.94858 7.82108 3.23001 7.75119C2.49748 7.59837 1.83915 7.19973 1.36441 6.62131C0.889668 6.04289 0.627069 5.31977 0.620026 4.57151C1.08454 4.82018 1.60314 4.95057 2.13004 4.95139C1.67461 4.66534 1.30076 4.26626 1.04495 3.79319C0.789142 3.32011 0.659968 2.78891 0.669952 2.25119C0.668572 1.67331 0.816757 1.105 1.10001 0.601292C1.90591 1.61725 2.92187 2.44708 4.07828 3.03391C5.23468 3.62074 6.50416 3.95062 7.79996 4.00119C7.74328 3.77228 7.71643 3.53729 7.72 3.30149C7.71467 2.43594 8.05273 1.60326 8.66006 0.986546C9.2674 0.369834 10.0945 0.0193726 10.96 0.0114481C11.4025 0.00630585 11.8414 0.0923216 12.2492 0.264378C12.6569 0.436434 13.0249 0.690836 13.33 1.01145C14.06 0.878009 14.7628 0.62458 15.4099 0.261448C15.141 0.995324 14.6387 1.62044 13.98 2.04123C14.6209 1.95928 15.247 1.78783 15.84 1.53147C15.3859 2.17709 14.8401 2.75309 14.22 3.24143Z" fill="#D07EB6"/>
</g>
<defs>
<clipPath id="clip0_12:390">
<rect width="15.84" height="12.9" fill="white" transform="translate(0 0.000976562)"/>
</clipPath>
</defs>
</svg>
