<svg width="15" height="12" viewBox="0 0 15 12" fill="none" xmlns="http://www.w3.org/2000/svg">
<path d="M12.7999 3.63997V3.95991C12.8123 5.34164 12.4498 6.7009 11.7509 7.8929C11.0519 9.08489 10.0429 10.0649 8.83105 10.7288C7.61921 11.3927 6.24992 11.7156 4.86914 11.6629C3.48836 11.6103 2.14776 11.1841 0.98999 10.4299C1.20639 10.4451 1.42361 10.4451 1.64001 10.4299C2.85236 10.4414 4.0317 10.0353 4.97998 9.27986C4.41678 9.27131 3.87075 9.08494 3.41992 8.74727C2.9691 8.4096 2.63656 7.93804 2.46997 7.39998C2.63232 7.44764 2.80078 7.47117 2.96997 7.46992C3.20893 7.46221 3.4466 7.43211 3.67993 7.37996C3.07098 7.25048 2.52431 6.91742 2.12988 6.43574C1.73545 5.95407 1.51685 5.35246 1.51001 4.72993C1.89498 4.93532 2.32371 5.04502 2.76001 5.04988C2.3824 4.80998 2.07273 4.47709 1.86084 4.08308C1.64895 3.68907 1.54187 3.24718 1.54993 2.79988C1.55134 2.32318 1.67529 1.85486 1.90991 1.43989C2.58113 2.28018 3.42477 2.96673 4.38391 3.4532C5.34306 3.93967 6.39546 4.21483 7.46997 4.25996C7.42697 4.06951 7.40345 3.8751 7.3999 3.67988C7.39719 2.96099 7.67825 2.27003 8.18188 1.75703C8.68552 1.24404 9.37114 0.950423 10.09 0.939895C10.4651 0.934078 10.8373 1.00774 11.182 1.15596C11.5267 1.30418 11.8361 1.52358 12.09 1.79988C12.697 1.68519 13.2813 1.4724 13.8199 1.16988C13.594 1.77906 13.1765 2.29852 12.63 2.64998C13.1641 2.57933 13.6857 2.43455 14.1799 2.21992C13.796 2.76167 13.3305 3.24073 12.7999 3.63997Z" fill="#374860"/>
</svg>
