<svg width="18" height="14" viewBox="0 0 18 14" fill="none" xmlns="http://www.w3.org/2000/svg">
<g clip-path="url(#clip0_7:155)">
<path d="M0.189991 7.29012C1.11999 8.22012 2.00999 9.17024 2.85999 10.1602C3.70999 11.1502 4.51999 12.1602 5.33999 13.1602L3.28999 13.0501C4.10337 11.6833 4.99485 10.3645 5.95999 9.10018L7.44999 7.25008L9.05999 5.50008C10.1803 4.35071 11.3799 3.28147 12.65 2.30013C13.3071 1.80658 13.9952 1.35556 14.71 0.950036C15.071 0.730493 15.4489 0.540072 15.84 0.380212C16.2361 0.193662 16.6633 0.0817114 17.1 0.0501339C17.1126 0.0487215 17.1254 0.04991 17.1375 0.053796C17.1496 0.0576821 17.1607 0.0640924 17.1702 0.0725948C17.1796 0.0810973 17.1872 0.091486 17.1923 0.103112C17.1975 0.114739 17.2001 0.127512 17.2 0.140222C17.2017 0.161072 17.1968 0.181853 17.1861 0.199792C17.1753 0.217731 17.1592 0.231778 17.14 0.240075C16.4594 0.60287 15.8388 1.06845 15.3 1.6202C14.73 2.1502 14.18 2.71011 13.64 3.28011C12.55 4.41011 11.51 5.5801 10.48 6.7701C8.47999 9.1601 6.35999 11.51 4.36999 13.94C4.35696 13.9533 4.3414 13.9641 4.32423 13.9713C4.30706 13.9785 4.28862 13.9823 4.26999 13.9823C4.25137 13.9823 4.23293 13.9785 4.21576 13.9713C4.19858 13.9641 4.18303 13.9533 4.16999 13.94L0.0299911 7.3702C0.0116685 7.35151 0.00140381 7.32631 0.00140381 7.30013C0.00140381 7.27396 0.0116685 7.24876 0.0299911 7.23007C0.0464918 7.21531 0.0678546 7.20712 0.0899925 7.20712C0.11213 7.20712 0.133489 7.21531 0.14999 7.23007L0.189991 7.29012Z" fill="#C2CE7C"/>
</g>
<defs>
<clipPath id="clip0_7:155">
<rect width="17.22" height="13.95" fill="white"/>
</clipPath>
</defs>
</svg>
