<svg width="325" height="172" viewBox="0 0 325 172" fill="none" xmlns="http://www.w3.org/2000/svg">
<g clip-path="url(#clip0_12:2692)">
<path d="M121.211 3.26911C111.993 2.19511 102.718 1.64875 93.4342 1.32844C84.1501 1.00812 74.8566 0.979786 65.5631 1.48852C56.2406 1.92576 46.9613 3.02768 37.7955 4.78589C33.1753 5.67502 28.6274 6.90632 24.1895 8.46955C19.6685 10.0579 15.3757 12.2339 11.4215 14.9418C9.39228 16.3263 7.51721 17.9245 5.82846 19.7089C4.08368 21.4901 2.792 23.6645 2.06209 26.0492C1.71978 27.2217 1.6184 28.4514 1.76405 29.6641C1.9097 30.8769 2.29937 32.0476 2.90955 33.1056C4.18768 35.1091 5.84449 36.8435 7.78699 38.2117C11.5399 41.0134 15.6914 43.2363 20.103 44.8065C24.46 46.3885 28.9134 47.6912 33.4359 48.7068C51.5109 52.8736 69.9124 55.4679 88.4344 56.4604C97.6902 57.0162 106.974 57.28 116.258 57.4025C125.552 57.5214 134.845 57.0651 144.082 56.0364C148.706 55.4994 153.329 54.84 157.896 53.8508C162.511 52.9277 167.015 51.516 171.332 49.6395C173.507 48.6415 175.584 47.4431 177.537 46.0595C179.544 44.6607 181.242 42.8651 182.528 40.7838C183.823 38.6299 184.304 36.0831 183.884 33.6049C183.662 32.3938 183.262 31.2222 182.697 30.1285C182.123 29.0713 181.428 28.0849 180.626 27.1892C179.005 25.4779 177.131 24.0259 175.07 22.8838C173.059 21.7011 170.97 20.656 168.818 19.7559C164.514 18.0069 160.09 16.5713 155.579 15.46C146.578 13.1747 137.463 11.3603 128.273 10.024C119.102 8.63915 109.874 7.64052 100.628 6.84916L93.6885 6.30266L86.7395 5.89762L72.8322 5.13446L86.7489 5.70913L93.7072 6.01067L100.656 6.46286C109.921 7.12233 119.177 7.98907 128.377 9.28917C137.595 10.5502 146.741 12.2924 155.777 14.5085C160.329 15.6028 164.797 17.0195 169.148 18.7479C171.349 19.6396 173.486 20.6847 175.541 21.8757C177.699 23.0511 179.662 24.5544 181.36 26.3318C182.231 27.2958 182.986 28.3581 183.611 29.4973C184.251 30.7063 184.705 32.0055 184.957 33.3506C185.447 36.1667 184.92 39.0653 183.469 41.528C182.1 43.7774 180.283 45.7208 178.13 47.2372C176.115 48.6718 173.972 49.9175 171.728 50.9584C167.335 52.8671 162.756 54.3163 158.065 55.2828C153.451 56.2908 148.8 56.9597 144.148 57.5156C134.865 58.5719 125.526 59.0563 116.183 58.9663C106.88 58.9098 97.5866 58.6743 88.3025 58.1278C69.7166 57.0854 51.2554 54.4378 33.1252 50.2142C28.5627 49.1668 24.0691 47.839 19.6699 46.2385C15.1604 44.6274 10.9171 42.3507 7.08079 39.4837C5.01044 38.0151 3.25048 36.1517 1.90204 34.0006C1.20085 32.7685 0.755971 31.4072 0.594157 29.9987C0.432343 28.5901 0.556937 27.1634 0.960444 25.8043C1.77667 23.2035 3.2075 20.8379 5.13169 18.908C6.88467 17.078 8.82925 15.442 10.9319 14.028C14.9745 11.2972 19.3593 9.11146 23.973 7.52744C28.4612 5.99069 33.0559 4.78475 37.7202 3.91922C46.9278 2.22457 56.2454 1.195 65.6007 0.838525C74.9131 0.461684 84.216 0.612411 93.5001 1.06462C102.784 1.51683 112.04 2.19512 121.249 3.39159" fill="#C682B5"/>
<path d="M121.211 3.26911C111.993 2.19511 102.718 1.64875 93.4342 1.32844C84.1501 1.00812 74.8566 0.979786 65.5631 1.48852C56.2406 1.92576 46.9613 3.02768 37.7955 4.78589C33.1753 5.67502 28.6274 6.90632 24.1895 8.46955C19.6685 10.0579 15.3757 12.2339 11.4215 14.9418C9.39228 16.3263 7.51721 17.9245 5.82846 19.7089C4.08368 21.4901 2.792 23.6645 2.06209 26.0492C1.71978 27.2217 1.6184 28.4514 1.76405 29.6641C1.9097 30.8769 2.29937 32.0476 2.90955 33.1056C4.18768 35.1091 5.84449 36.8435 7.78699 38.2117C11.5399 41.0134 15.6914 43.2363 20.103 44.8065C24.46 46.3885 28.9134 47.6912 33.4359 48.7068C51.5109 52.8736 69.9124 55.4679 88.4344 56.4604C97.6902 57.0162 106.974 57.28 116.258 57.4025C125.552 57.5214 134.845 57.0651 144.082 56.0364C148.706 55.4994 153.329 54.84 157.896 53.8508C162.511 52.9277 167.015 51.516 171.332 49.6395C173.507 48.6415 175.584 47.4431 177.537 46.0595C179.544 44.6607 181.242 42.8651 182.528 40.7838C183.823 38.6299 184.304 36.0831 183.884 33.6049C183.662 32.3938 183.262 31.2222 182.697 30.1285C182.123 29.0713 181.428 28.0849 180.626 27.1892C179.005 25.4779 177.131 24.0259 175.07 22.8838C173.059 21.7011 170.97 20.656 168.818 19.7559C164.514 18.0069 160.09 16.5713 155.579 15.46C146.578 13.1747 137.463 11.3603 128.273 10.024C119.102 8.63915 109.874 7.64052 100.628 6.84916L93.6885 6.30266L86.7395 5.89762L72.8322 5.13446L86.7489 5.70913L93.7072 6.01067L100.656 6.46286C109.921 7.12233 119.177 7.98907 128.377 9.28917C137.595 10.5502 146.741 12.2924 155.777 14.5085C160.329 15.6028 164.797 17.0195 169.148 18.7479C171.349 19.6396 173.486 20.6847 175.541 21.8757C177.699 23.0511 179.662 24.5544 181.36 26.3318C182.231 27.2958 182.986 28.3581 183.611 29.4973C184.251 30.7063 184.705 32.0055 184.957 33.3506C185.447 36.1667 184.92 39.0653 183.469 41.528C182.1 43.7774 180.283 45.7208 178.13 47.2372C176.115 48.6718 173.972 49.9175 171.728 50.9584C167.335 52.8671 162.756 54.3163 158.065 55.2828C153.451 56.2908 148.8 56.9597 144.148 57.5156C134.865 58.5719 125.526 59.0563 116.183 58.9663C106.88 58.9098 97.5866 58.6743 88.3025 58.1278C69.7166 57.0854 51.2554 54.4378 33.1252 50.2142C28.5627 49.1668 24.0691 47.839 19.6699 46.2385C15.1604 44.6274 10.9171 42.3507 7.08079 39.4837C5.01044 38.0151 3.25048 36.1517 1.90204 34.0006C1.20085 32.7685 0.755971 31.4072 0.594157 29.9987C0.432343 28.5901 0.556937 27.1634 0.960444 25.8043C1.77667 23.2035 3.2075 20.8379 5.13169 18.908C6.88467 17.078 8.82925 15.442 10.9319 14.028C14.9745 11.2972 19.3593 9.11146 23.973 7.52744C28.4612 5.99069 33.0559 4.78475 37.7202 3.91922C46.9278 2.22457 56.2454 1.195 65.6007 0.838525C74.9131 0.461684 84.216 0.612411 93.5001 1.06462C102.784 1.51683 112.04 2.19512 121.249 3.39159" stroke="#C682B5" stroke-width="1.06" stroke-linecap="round" stroke-linejoin="round"/>
<path d="M307.176 144.17C310.794 145.13 314.348 146.319 317.816 147.731C319.558 148.429 321.243 149.145 322.966 149.917C323.305 150.068 323.622 150.265 323.908 150.501C324.378 150.875 324.721 151.386 324.889 151.963C325.058 152.54 325.044 153.155 324.849 153.723C324.715 154.126 324.518 154.504 324.266 154.844C323.909 155.303 323.512 155.729 323.079 156.116L322.081 157.058L314.03 164.595C311.309 167.092 308.607 169.607 305.66 172C307.407 168.661 309.482 165.505 311.855 162.579C314.2 159.643 316.756 156.882 319.501 154.317L320.537 153.375C320.803 153.149 321.052 152.904 321.281 152.64C321.347 152.564 321.375 152.508 321.365 152.546C321.334 152.672 321.334 152.805 321.365 152.932C321.386 152.884 321.422 152.845 321.469 152.821C321.515 152.797 321.568 152.789 321.619 152.8C321.67 152.81 321.715 152.838 321.748 152.879C321.781 152.919 321.799 152.969 321.799 153.021C321.799 153.073 321.781 153.124 321.748 153.164C321.715 153.204 321.67 153.232 321.619 153.243C321.568 153.253 321.515 153.246 321.469 153.222C321.422 153.198 321.386 153.159 321.365 153.111C319.765 152.254 318.117 151.34 316.526 150.398C313.279 148.524 310.156 146.444 307.176 144.17Z" fill="#C682B5"/>
<path d="M321.365 153.855C312.646 156.095 303.77 157.669 294.813 158.566C285.827 159.495 276.784 159.747 267.761 159.319C258.723 158.86 249.731 157.733 240.859 155.947C231.975 154.133 223.243 151.642 214.74 148.494C197.791 142.088 181.643 132.978 168.291 120.467L167.038 119.299L165.843 118.074L163.451 115.624C161.879 113.976 160.419 112.205 158.931 110.481C157.444 108.757 156.107 106.872 154.807 105.007L152.924 102.181L151.982 100.749C151.681 100.268 151.408 99.8065 151.126 99.2695C146.437 91.4307 143.188 82.8161 141.531 73.8327C141.507 73.65 141.552 73.465 141.657 73.3135C141.761 73.1619 141.919 73.0546 142.098 73.0124C142.277 72.9702 142.466 72.9961 142.627 73.085C142.788 73.1738 142.911 73.3194 142.971 73.4936C147.999 90.5645 158.329 105.45 171.417 117.104C184.638 128.793 199.89 137.957 216.416 144.142C224.657 147.328 233.132 149.876 241.763 151.764C250.41 153.689 259.183 154.995 268.015 155.673C276.864 156.33 285.748 156.393 294.605 155.862C303.491 155.312 312.33 154.173 321.064 152.451C321.155 152.431 321.249 152.429 321.341 152.444C321.433 152.46 321.52 152.494 321.599 152.544C321.678 152.594 321.746 152.659 321.799 152.735C321.853 152.811 321.891 152.897 321.912 152.988C321.932 153.079 321.934 153.173 321.918 153.265C321.902 153.357 321.869 153.445 321.819 153.523C321.769 153.602 321.704 153.67 321.628 153.724C321.552 153.778 321.466 153.816 321.375 153.836L321.365 153.855Z" fill="#C682B5"/>
</g>
<defs>
<clipPath id="clip0_12:2692">
<rect width="325" height="172" fill="white"/>
</clipPath>
</defs>
</svg>
