<svg width="100%" height="100%" viewBox="0 0 721 424" fill="none" xmlns="http://www.w3.org/2000/svg">
<g clip-path="url(#clip0_12:3425)">
<path d="M109.405 226.235C105.097 226.948 105.097 218.688 102.578 212.575C100.059 206.462 57.7067 173.047 57.7067 173.047V124.528H6.61362C7.21 126.907 7.71737 128.93 7.9399 129.919C8.61639 132.886 8.74991 137.332 7.39693 140.291C6.04394 143.249 6.86285 148.248 9.01695 152.151C11.171 156.054 9.69344 162.131 9.69344 162.131C9.69344 162.131 11.0375 167.246 12.3638 169.135C14.0671 171.253 15.8826 173.279 17.8025 175.203C19.4319 177.107 20.4631 179.451 20.7666 181.94C21.0336 184.23 22.9207 184.497 25.3418 185.308C27.7629 186.119 26.5524 192.312 26.5524 192.312C27.2626 194.757 28.2575 197.111 29.5165 199.324C31.1276 201.748 33.1482 201.748 33.9671 203.094C34.786 204.439 30.6024 203.637 32.1869 206.061C33.7713 208.485 34.4745 211.452 35.961 213.475C37.4475 215.497 40.2692 219.712 42.2898 222.385C44.3103 225.059 45.245 223.865 45.7879 224.943C46.4911 226.21 47.1211 227.516 47.675 228.855C48.7521 231.412 49.4553 230.2 50.9062 231.145C52.3571 232.089 49.8291 235.6 49.9626 236.001C50.0961 236.402 51.4402 237.213 52.3838 237.783C53.4928 238.246 54.4275 239.047 55.0541 240.073C56.1312 241.695 56.2736 240.216 57.7245 240.751C59.1754 241.285 61.2227 239.94 61.2227 239.94C61.2227 239.94 62.5668 238.995 65.1303 239.672C67.6939 240.35 64.0889 241.481 63.813 241.909C63.537 242.337 61.5164 242.452 60.3059 243.531C59.0953 244.609 54.9651 243.254 54.253 244.065C53.5409 244.876 58.8283 247.434 61.1159 248.779C62.1988 249.519 63.4452 249.984 64.7476 250.134C64.7476 250.134 66.7682 250.936 67.8452 251.345C68.9223 251.755 71.3434 250.936 74.174 253.769C77.0046 256.603 77.9481 255.792 79.9598 256.193C81.4139 256.605 82.9043 256.877 84.4104 257.004C87.2321 257.271 86.2886 257.547 87.7751 259.294C89.2616 261.04 90.0627 264.685 91.4068 265.629C92.7509 266.574 94.0771 264.818 96.525 266.307C98.9728 267.795 118.6 267.786 119.277 267.919C119.953 268.053 120.754 267.109 121.698 266.841C121.963 266.76 122.239 266.717 122.517 266.716C122.847 264.86 123.022 262.979 123.042 261.094C123.042 254.625 119.811 260.372 123.042 254.625C126.273 248.877 126.994 251.39 126.994 244.564C126.994 241.936 125.561 237.73 124.003 233.346C122.659 231.564 121.404 229.871 120.532 228.748C118.021 225.513 113.713 225.513 109.405 226.235Z" fill="#F0B73E"/>
<path d="M668.812 103.097C669.756 102.563 670.592 99.9964 670.156 97.9736C669.72 95.9509 674.607 94.6054 675.141 93.9371C675.675 93.2688 675.951 92.1549 676.351 92.048C676.938 91.9351 677.535 91.8903 678.132 91.9144C678.532 91.9144 680.953 91.2371 680.953 91.2371C681.503 90.3547 682.097 89.5012 682.734 88.6798C683.134 88.2699 684.514 88.2699 685.155 88.2699C685.796 88.2699 689.463 87.3788 689.73 86.657C689.997 85.9352 690.54 84.5006 691.083 84.0996C691.781 83.4274 692.548 82.8301 693.371 82.3175C694.038 82.0502 695.658 82.9947 696.468 83.3957C696.976 83.5849 697.532 83.5944 698.046 83.4225C698.559 83.2506 698.998 82.9078 699.29 82.4511C699.533 82.0253 699.888 81.6746 700.317 81.4373C700.745 81.2 701.231 81.0852 701.72 81.1056C702.521 81.1056 708.983 78.5393 708.983 78.5393V76.9532C708.983 76.9532 709.526 72.9077 709.526 71.8295C709.526 70.7513 711.68 73.6117 712.197 73.6117C712.713 73.6117 716.647 73.2107 717.448 73.0681C718.25 72.9256 720.413 70.1098 720.947 68.8979C721.481 67.686 719.336 63.2307 719.336 63.2307C719.336 63.2307 717.991 55.6833 717.991 54.2041C717.991 52.7249 711.761 52.9922 711.761 52.9922L702.601 51.2101L701.124 41.6399L697.759 31.9361L693.584 31.1342L688.333 33.4242L685.511 31.1342L674.464 39.6261L664.771 60.1208L660.32 60.4951C660.534 77.9958 660.828 101.903 660.828 101.903L665.056 106.466C665.092 105.939 665.274 105.433 665.581 105.004C666.591 104.262 667.674 103.623 668.812 103.097Z" fill="#374860"/>
<path d="M660.828 101.885C660.828 101.885 660.534 77.9779 660.32 60.4772L656.698 60.7802L650.369 69.2721H647.476C649.345 71.7315 651.597 74.779 651.49 75.0909C651.506 77.0149 651.627 78.9367 651.855 80.8472L644.672 83.0036C644.672 83.0036 642.002 98.2766 642.002 99.1677V110.85H659.804L664.958 108.23C664.963 107.633 665.011 107.038 665.1 106.448L660.828 101.885Z" fill="#C682B5"/>
<path d="M607.696 175.604C606.753 175.061 607.02 173.18 607.02 173.18C607.233 172.264 607.531 171.369 607.91 170.507C607.701 169.735 607.402 168.99 607.02 168.288C603.25 166.451 599.387 164.809 595.448 163.37H592.057C592.947 165.027 592.991 166.569 591.505 166.569C588.232 168.187 585.582 170.839 583.966 174.116C579.657 179.507 588.274 181.663 592.582 184.898C593.659 185.976 590.428 189.211 591.505 190.289C592.374 190.304 593.235 190.451 594.06 190.726C593.606 189.986 592.974 189.068 593.25 189.068C593.659 189.068 592.982 187.856 594.327 187.286C595.671 186.716 595.947 187.42 596.89 187.821C597.755 188.27 598.531 188.874 599.178 189.603C599.712 190.138 600.121 192.971 599.578 194.317C599.035 195.662 601.065 199.44 601.065 199.44C601.065 199.44 602.275 198.897 602.275 197.819C602.306 196.479 602.581 195.157 603.085 193.916C603.486 193.238 604.429 192.027 605.24 191.893C606.05 191.759 606.717 189.22 607.527 187.438C608.061 186.142 608.423 184.782 608.604 183.392C608.604 183.392 609.681 179.623 610.215 179.213C610.749 178.803 608.64 176.139 607.696 175.604Z" fill="#C0CC7C"/>
<path d="M496.582 173.225C497.659 175.203 500.89 175.381 503.4 175.381C505.697 175.381 513.076 177.163 516.254 179.133C516.469 177.799 516.794 176.484 517.224 175.203C518.301 173.047 525.84 176.281 526.917 173.047C527.995 166.578 533.38 168.734 535.534 164.421C537.688 162.265 534.457 157.952 535.534 154.717C537.688 155.796 537.688 152.561 539.842 153.639C540.803 148.818 540.065 144.007 544.506 141.494V124.118H538.231L534.67 127.584L530.433 131.665H513.993L509.694 127.584H487.966V167.682C487.966 167.682 495.505 171.247 496.582 173.225Z" fill="#F0B73E"/>
<path d="M448.302 187.063C450.456 188.141 450.456 184.907 452.61 185.985C453.678 166.658 454.746 146.27 455.823 126.942C454.616 126.775 453.387 126.935 452.263 127.406C449.753 128.84 446.165 130.97 443.646 131.353C441.127 131.736 437.184 130.997 434.318 131.353C431.452 131.71 414.566 130.275 413.489 133.51C412.412 136.744 407.392 143.935 405.238 148.248C403.084 152.561 406.315 153.595 408.104 160.821C409.893 168.048 412.056 164.777 415.287 166.577C418.518 168.377 418.848 169.09 421.028 171.247C423.209 173.403 422.809 175.559 422.47 179.872C422.132 184.185 424.624 183.107 426.031 184.907C427.437 186.707 431.416 188.854 432.849 192.454C434.282 196.054 433.214 196.402 435.003 199.993C435.057 200.1 435.083 200.189 435.119 200.278C438.074 200.198 441.029 200.697 444.02 198.915C446.495 197.266 445.801 193.078 448.782 192.196C447.978 190.608 447.806 188.773 448.302 187.063Z" fill="#C0CC7C"/>
<path d="M487.966 167.656V127.557H466.701L466.603 127.736C465.526 130.026 463.105 129.348 462.152 129.892C461.2 130.436 458.387 129.215 457.31 128.68C457.061 128.555 456.794 127.896 456.544 126.951H455.814C454.737 146.279 453.669 166.667 452.601 185.994C450.447 184.916 450.447 188.15 448.293 187.072C447.789 188.779 447.951 190.613 448.747 192.205C450.03 191.921 451.367 192.01 452.601 192.463C453.678 192.463 454.755 190.307 455.832 188.15C457.986 184.916 464.44 191.385 467.671 183.838C468.748 180.603 477.364 183.838 478.441 181.681C482.287 176.869 484.423 172.067 490.182 168.787C488.927 168.11 487.966 167.656 487.966 167.656Z" fill="#374860"/>
<path d="M452.61 192.722H452.53C451.343 192.293 450.061 192.204 448.827 192.463L448.622 192.526L448.515 192.33C447.689 190.671 447.518 188.762 448.035 186.983L448.115 186.662L448.417 186.805C449.254 187.233 449.726 186.805 450.26 186.324C450.437 186.076 450.664 185.869 450.926 185.716C451.189 185.562 451.48 185.466 451.782 185.433C451.979 185.436 452.174 185.469 452.361 185.531C452.886 175.952 453.42 166.105 453.954 156.259C454.488 146.412 455.022 136.495 455.556 126.853V126.586L456.749 126.648L456.802 126.836C457.176 128.235 457.417 128.386 457.426 128.395C458.697 129.07 460.077 129.516 461.502 129.714C461.68 129.724 461.857 129.691 462.019 129.616C462.431 129.429 462.875 129.324 463.327 129.304C464.431 129.17 465.677 129.028 466.353 127.575C466.353 127.531 466.398 127.495 466.416 127.459L466.531 127.237H488.233V167.522C488.553 167.674 489.354 168.066 490.324 168.582L490.761 168.805L490.324 169.055C486.15 171.425 483.88 174.651 481.477 178.055C480.587 179.302 479.696 180.585 478.664 181.868C478.272 182.661 477.044 182.759 475.896 182.759C475.237 182.759 474.525 182.715 473.768 182.67C473.012 182.626 472.202 182.572 471.463 182.572C469.335 182.572 468.249 182.991 467.902 183.927C466.727 186.689 465.009 187.963 462.499 187.963C461.635 187.941 460.775 187.846 459.927 187.678C459.263 187.55 458.591 187.473 457.915 187.446C457.55 187.411 457.181 187.475 456.849 187.632C456.517 187.789 456.233 188.033 456.028 188.338C454.933 190.556 453.847 192.722 452.61 192.722ZM450.02 191.759C450.907 191.778 451.788 191.919 452.637 192.178C453.527 192.125 454.631 189.941 455.592 188.017C455.847 187.633 456.2 187.325 456.616 187.126C457.031 186.927 457.492 186.843 457.951 186.885C458.656 186.909 459.359 186.989 460.051 187.126C460.87 187.289 461.701 187.382 462.535 187.402C464.084 187.402 466.042 186.983 467.439 183.722C467.938 182.216 469.852 182.02 471.463 182.02C472.219 182.02 473.02 182.02 473.804 182.118C474.587 182.216 475.255 182.207 475.896 182.207C477.249 182.207 477.987 181.993 478.21 181.548C479.26 180.229 480.159 178.946 481.032 177.716C483.39 174.365 485.625 171.202 489.639 168.805C488.607 168.262 487.859 167.914 487.859 167.914L487.708 167.843V127.851H466.861C466.051 129.571 464.529 129.749 463.416 129.883C463.034 129.901 462.659 129.983 462.303 130.124C462.062 130.249 461.792 130.307 461.52 130.293C460.01 130.101 458.547 129.636 457.203 128.921C456.998 128.814 456.722 128.529 456.313 127.21H456.046C455.521 136.744 454.995 146.537 454.461 156.33C453.927 166.301 453.384 176.272 452.85 185.976V186.386L452.485 186.208C452.27 186.087 452.029 186.019 451.782 186.012C451.556 186.042 451.339 186.118 451.143 186.234C450.948 186.35 450.777 186.505 450.643 186.689C450.462 186.929 450.234 187.128 449.971 187.274C449.709 187.42 449.419 187.509 449.121 187.536C448.905 187.53 448.692 187.491 448.489 187.42C448.116 188.908 448.257 190.478 448.889 191.875C449.261 191.794 449.64 191.755 450.02 191.759Z" fill="#374860"/>
<path d="M544.15 241.33L536.433 238.656L529.615 236.874L520.82 236.696C512.738 234.183 506.997 236.34 506.997 236.34C506.997 236.34 500.534 233.827 510.406 242.987C520.277 252.147 524.763 254.491 524.763 254.491L529.072 261.495C529.072 261.495 531.048 263.829 531.582 268.864C532.062 273.319 534.386 275.395 537.546 277.944C537.947 277.009 538.556 276.177 539.326 275.511C541.747 273.221 541.204 274.7 542.824 271.742C544.444 268.784 542.824 271.742 544.604 271.742C546.385 271.742 548.512 271.199 548.779 270.12C548.949 269.083 549.474 268.138 550.265 267.447C551.209 266.636 554.031 265.825 555.108 264.48C556.185 263.134 556.888 261.807 558.739 260.568C560.341 259.463 561.79 258.15 563.048 256.665C563.324 256.255 564.125 254.232 564.125 254.232C564.318 253.921 564.532 253.624 564.766 253.341L558.926 248.396L544.15 241.33Z" fill="#374860"/>
<path d="M537.635 278.345L537.35 278.113C534.003 275.44 531.769 273.301 531.288 268.846C530.772 263.972 528.858 261.646 528.84 261.628L524.55 254.642C523.936 254.313 519.458 251.737 510.192 243.139C504.771 238.104 504.442 236.75 504.673 236.17C504.753 235.957 504.976 235.707 505.563 235.707C506.051 235.734 506.531 235.836 506.988 236.01C508.936 235.41 510.967 235.124 513.005 235.164C515.665 235.174 518.309 235.585 520.847 236.384L529.606 236.563L536.495 238.345L544.23 241.018L559.033 248.075L565.086 253.19L564.908 253.395C564.588 253.787 564.303 254.286 564.294 254.286C563.98 255.116 563.621 255.928 563.217 256.719C561.936 258.237 560.46 259.579 558.828 260.711C557.692 261.469 556.723 262.451 555.98 263.598C555.749 263.918 555.517 264.239 555.259 264.56C554.356 265.449 553.281 266.144 552.099 266.601C551.489 266.855 550.91 267.178 550.372 267.563C549.626 268.224 549.135 269.126 548.984 270.111C548.645 271.448 546.144 271.894 544.533 271.894C544.275 271.914 544.019 271.839 543.812 271.683C543.605 271.527 543.463 271.301 543.411 271.047L543.02 271.751C542.014 273.596 541.827 273.774 541.177 274.201C540.565 274.61 539.993 275.076 539.468 275.592C538.743 276.239 538.166 277.035 537.777 277.926L537.635 278.345ZM505.59 236.251C505.492 236.251 505.261 236.251 505.216 236.366C505.172 236.482 505.216 237.765 510.602 242.747C520.322 251.764 524.844 254.179 524.906 254.206H524.977L529.321 261.272C529.383 261.343 531.333 263.696 531.876 268.757C532.312 272.892 534.279 274.843 537.457 277.427C537.878 276.599 538.449 275.856 539.139 275.235C539.683 274.696 540.279 274.213 540.919 273.792C541.462 273.426 541.605 273.328 542.584 271.528C543.385 270.067 543.385 270.067 543.607 270.067C543.83 270.067 543.91 270.37 543.919 270.53C543.919 271.092 544.052 271.421 544.569 271.421C546.287 271.421 548.263 270.887 548.485 270.013C548.659 268.914 549.213 267.911 550.052 267.18C550.622 266.762 551.241 266.415 551.894 266.146C553 265.714 554.009 265.069 554.867 264.248C555.117 263.936 555.348 263.616 555.571 263.304C556.354 262.105 557.371 261.078 558.561 260.283C560.131 259.195 561.552 257.907 562.789 256.451C563.18 255.677 563.531 254.883 563.84 254.072C563.998 253.81 564.17 253.557 564.356 253.315L558.722 248.61L544.035 241.615L536.344 238.942L529.543 237.16L520.74 236.972C518.24 236.183 515.635 235.778 513.014 235.769C511.006 235.73 509.004 236.012 507.086 236.607H506.997H506.899C506.481 236.427 506.041 236.307 505.59 236.251Z" fill="#374860"/>
<path d="M522.075 299.187C521.71 301.522 522.965 304.4 520.82 304.035C518.675 303.669 514.714 300.087 508.786 299.909C502.858 299.731 502.51 301.691 499.279 300.8C496.048 299.909 494.971 299.722 493.529 298.644C492.087 297.565 491.562 295.231 485.99 294.874C480.417 294.518 460.505 294.874 459.962 294.874C459.419 294.874 457.541 297.209 457.052 299.722C457.319 300.132 458.93 300.399 458.93 300.399L460.55 302.422C460.55 302.422 462.33 302.823 462.704 302.555C464.644 302.083 466.664 302.037 468.623 302.422C470.243 302.956 473.074 306.877 473.074 306.877L475.638 305.398C475.638 305.398 474.56 302.725 475.504 301.486C475.985 300.862 479.002 302.564 479.679 302.832C480.355 303.099 479.946 305.122 480.079 305.933C480.213 306.744 482.634 307.822 482.91 308.606C483.077 309.992 483.122 311.391 483.043 312.785L483.844 312.241C484.654 311.707 485.865 310.762 487.209 311.03C488.553 311.297 491.66 309.007 492.461 308.472C493.262 307.938 493.538 306.449 494.081 305.906C494.624 305.362 498.79 304.293 499.6 304.427C500.41 304.56 507.273 314.665 507.949 314.665C508.626 314.665 510.904 318.167 511.581 319.388C512.257 320.609 514.411 322.346 514.678 323.023C514.9 325.311 514.855 327.616 514.545 329.894C514.269 330.705 515.346 336.363 515.755 338.252C516.165 340.141 516.832 336.639 517.642 336.47C518.452 336.3 518.577 337.691 518.577 338.769C518.577 339.847 515.079 341.593 515.622 342.672C516.165 343.75 518.043 346.45 518.043 346.45C518.043 346.45 518.987 348.33 519.521 349.818C520.055 351.306 519.521 349.818 520.197 349.684C520.874 349.551 523.028 348.74 523.695 349.952C524.363 351.164 523.695 349.952 522.752 351.03C521.808 352.108 521.808 352.812 523.428 353.997C525.048 355.182 524.772 361.001 526.099 363.425C527.425 365.848 527.452 365.047 528.119 365.207C528.787 365.367 531.217 365.474 531.76 366.151C532.303 366.829 533.237 369.787 533.638 371.409C534.039 373.031 537.412 374.367 537.813 374.911C538.213 375.454 541.453 374.1 541.854 374.643C542.254 375.187 544.684 373.565 544.951 372.621C545.218 371.676 544.542 370.188 545.486 366.953C546.429 363.719 546.162 362.917 546.028 361.972C545.895 361.028 547.809 357.517 548.183 356.715C548.556 355.913 547.64 353.347 547.239 350.246C546.838 347.145 543.607 339.874 544.275 339.196C544.943 338.519 544.408 334.073 545.352 331.515C546.296 328.958 541.453 325.447 539.121 323.701C536.789 321.954 532 306.984 532.525 305.238C533.05 303.491 531.858 301.192 529.971 299.57C529.768 299.359 529.626 299.096 529.562 298.811C529.498 298.525 529.513 298.227 529.606 297.949C528.361 297.341 527.149 296.668 525.974 295.935C524.407 294.874 522.431 296.853 522.075 299.187Z" fill="#F0B73E"/>
<path d="M431.603 19.0512C431.603 18.7749 428.043 18.5076 428.043 18.5076L423.013 18.3294C420.859 17.7858 416.017 13.473 413.32 12.3948C410.623 11.3166 403.092 7.5474 400.938 7.0484C397.221 6.25373 393.425 5.89193 389.625 5.9702C384.213 5.92565 375.062 0 375.062 0H338.247L339.279 11.1384L335.959 18.9532L340.802 25.3333L342.333 41.5063L343.766 50.417L344.656 56.4407L343.401 61.5643L346.961 68.0335V97.84L346.4 102.42H411.477C411.488 101.609 411.553 100.799 411.673 99.9964C412.207 94.8816 411.673 95.1489 409.519 91.9143C407.365 88.6797 396.105 80.865 393.372 75.474C390.64 70.083 392.829 68.1939 393.372 65.7702C393.915 63.3465 390.951 60.9139 392.295 58.4901C393.639 56.0664 397.636 56.3337 398.758 53.6338C399.854 50.9898 401.271 48.4909 402.977 46.1933H402.799L403.6 43.1369L417.245 29.1203L426.369 26.5006C426.369 26.5006 432.324 21.3858 432.68 21.3858C433.036 21.3858 431.603 19.3185 431.603 19.0512Z" fill="#374860"/>
<path d="M364.399 155.43L362.049 152.106L358.488 147.437L357.678 141.146L356.512 135.933L354.358 130.453L350.139 121.828L349.872 112.757L347.851 109.192C343.276 109.593 340.214 105.129 335.238 105.129C335.238 104.051 333.084 107.285 332.007 107.285C302.215 103.356 273.179 101.155 252.038 106.341V140.344H277.078V155.439L364.399 155.43Z" fill="#C682B5"/>
<path d="M377.573 251.568L375.596 247.113L375.507 241.633L373.086 234.807V203.949H264.135C263.967 205.862 263.981 207.787 264.18 209.697H306.131V239.173C306.131 239.173 315.469 242.738 320.854 243.486C326.239 244.235 327.316 245.268 333.057 247.434C338.799 249.599 339.52 246.721 344.184 247.077C348.848 247.434 357.474 247.799 366.09 247.799C374.706 247.799 366.09 247.799 368.956 251.034C370.496 252.753 374.377 253.457 378 253.849L377.573 251.568Z" fill="#374860"/>
<path d="M277.861 203.949V155.43H277.051V140.335H191.599C191.599 140.335 191.412 171.282 191.288 205.116H264.037C264.037 204.404 264.117 203.949 264.117 203.949H277.861Z" fill="#F0B73E"/>
<path d="M252.012 70.6177V0H104.483C104.507 1.49832 104.352 2.99416 104.02 4.45537C102.943 7.68997 104.376 15.2374 104.02 18.8284C103.664 22.4194 114.79 29.6104 114.069 37.8796C113.348 46.1488 117.63 42.5488 123.042 47.227C128.454 51.9051 125.196 52.618 123.042 54.0526C120.888 55.4872 123.042 59.0872 123.042 64.8346C123.042 70.582 123.042 64.8346 130.946 65.5474C138.85 66.2603 133.1 70.9384 138.841 75.2512C144.583 79.564 138.841 75.2513 140.622 80.6423C142.402 86.0332 144.93 81.7205 147.084 82.0858C149.238 82.4511 153.92 81.3997 159.332 81.0878C161.743 81.0082 164.151 81.3366 166.453 82.0591V70.6177H252.012Z" fill="#C2CE7C"/>
<path d="M252.012 140.335V70.6177H166.453V124.171H165.02V142.314C165.02 142.314 176.369 142.429 191.572 142.554C191.572 141.119 191.572 140.335 191.572 140.335H252.012Z" fill="#374860"/>
<path d="M247.837 307.269C248.781 307.813 251.211 312.937 251.878 313.204C252.546 313.471 257.219 312.393 257.219 312.393C257.219 312.393 262.738 316.305 264.224 318.051C265.711 319.798 266.236 315.761 266.512 313.338C266.788 310.914 277.95 305.924 277.95 305.924C277.95 305.924 281.724 308.891 283.335 309.426C284.946 309.96 289.397 311.315 289.931 311.315C290.465 311.315 305.686 331.809 307.297 333.592C308.908 335.374 310.261 338.983 310.938 340.863C311.577 343.149 311.938 345.503 312.015 347.876C312.148 350.032 316.323 354.879 317.801 355.004C319.278 355.129 328.304 358.916 328.304 358.916C328.304 358.916 333.957 361.206 334.633 360.939C335.31 360.671 335.301 358.916 336.111 358.381C336.921 357.847 335.977 353.926 335.434 352.99C334.891 352.055 333.957 348.678 333.013 347.457C332.069 346.236 334.9 345.033 335.683 344.365C336.467 343.696 336.484 342.342 336.76 341.932C337.036 341.522 337.428 340.15 338.104 339.776C338.892 339.186 339.507 338.395 339.885 337.486C340.027 336.951 340.428 335.062 340.428 335.062C340.428 335.062 341.905 332.905 342.982 332.389C344.059 331.872 346.489 331.711 345.813 329.715C345.136 327.719 349.445 326.748 350.522 326.481C351.599 326.214 353.753 322.845 355.106 322.569C356.459 322.293 361.702 318.532 363.046 317.989C364.39 317.445 363.046 314.754 363.446 314.22C363.847 313.685 364.256 310.441 365.734 309.64C367.212 308.838 370.585 311.119 370.585 311.119C370.585 311.119 383.243 310.308 383.777 310.718C384.44 310.906 385.119 311.028 385.806 311.083C385.802 311.065 385.802 311.047 385.806 311.03C385.45 305.817 386.073 304.017 386.073 304.017L388.583 299.348L385.913 296.024L377.208 284.885C377.208 284.885 375.499 272.758 377.119 265.923C378.739 259.089 378.374 255.952 378.374 255.952L377.991 253.921C374.368 253.529 370.487 252.825 368.947 251.105C366.081 247.87 374.697 247.87 366.081 247.87C357.465 247.87 348.848 247.505 344.175 247.148C339.502 246.792 338.79 249.661 333.049 247.505C327.307 245.348 326.23 244.27 320.845 243.557C315.46 242.845 306.122 239.245 306.122 239.245V209.697H264.135V279.058H224.836C229.171 282.622 249.19 300.132 249.19 300.132C249.19 300.132 246.902 306.735 247.837 307.269Z" fill="#C2CE7C"/>
<path d="M191.377 286.427C192.67 286.34 193.949 286.101 195.186 285.714C197.857 284.903 198.818 285.981 200.705 285.981C202.592 285.981 202.993 281.259 202.993 281.259L209.224 278.969C209.224 278.969 223.465 278.3 224.026 278.434C224.317 278.622 224.594 278.83 224.854 279.058H264.153V209.697H264.198C264.034 208.176 263.993 206.644 264.073 205.116H191.305C191.19 238.211 191.145 274.059 191.377 286.427Z" fill="#C682B5"/>
<path d="M493.529 298.644C494.971 299.722 496.048 299.909 499.279 300.8C502.51 301.691 502.84 299.722 508.786 299.909C514.732 300.096 518.666 303.678 520.82 304.035C522.974 304.391 521.71 301.522 522.075 299.187C522.44 296.853 524.407 294.874 526.018 295.953C527.194 296.686 528.406 297.358 529.65 297.966C530.113 295.703 533.006 292.326 533.113 291.907C533.22 291.488 532.036 289.35 532.846 288.539C533.656 287.728 534.056 284.77 534.323 282.881C534.59 280.991 536.611 280.858 536.994 280.047C537.234 279.575 537.154 278.862 537.528 277.899C534.368 275.351 532.045 273.293 531.564 268.819C531.03 263.785 529.054 261.45 529.054 261.45L524.746 254.446C524.746 254.446 520.295 252.112 510.388 242.943C508.707 241.457 507.15 239.835 505.733 238.095L503.231 234.531H479.492C481.272 241.41 487.352 264.943 485.856 266.209C484.076 267.688 482.901 270.379 484.512 270.922C486.123 271.466 488.82 273.596 487.343 274.968C485.865 276.34 485.562 277.392 485.723 278.603C485.883 279.815 485.856 278.871 485.856 282.515C485.856 286.16 488.82 287.63 487.2 289.252C485.58 290.874 483.978 291.542 484.913 293.565C485.108 293.983 485.286 294.456 485.447 294.883H485.99C491.562 295.231 492.096 297.565 493.529 298.644Z" fill="#C682B5"/>
<path d="M508.741 126.684L511.029 121.961C511.029 121.961 514.26 119.671 514.26 119.288C514.26 118.905 514.402 112.953 514.402 112.953L520.055 106.893C520.055 106.893 518.568 102.981 518.274 102.714C517.981 102.447 518.274 98.4014 518.274 97.4568C518.099 96.3858 517.781 95.343 517.331 94.3559L514.233 91.9322H508.714C508.714 91.9322 508.857 96.646 508.714 97.0469C508.572 97.4479 503.472 99.4796 503.472 99.4796C503.472 99.4796 502.395 97.0469 502.119 96.5123C501.843 95.9776 502.662 93.8391 502.795 92.6005C502.963 91.5892 503.235 90.5979 503.605 89.6421L507.103 87.4857L510.468 75.3493L510.201 72.9255C510.201 72.9255 508.714 69.4236 508.421 69.0226C508.127 68.6217 503.712 68.4791 502.19 68.6127C500.668 68.7464 497.739 63.7831 498.158 63.899C497.846 63.8099 493.547 62.4465 493.173 62.8208C492.799 63.195 489.541 63.2217 488.598 63.899C487.654 64.5762 490.378 67.6682 491.019 68.3543C491.66 69.0405 489.408 69.0316 488.998 69.6999C488.589 70.3682 486.177 70.9117 486.177 70.9117C486.177 70.9117 485.099 78.3255 485.099 78.869C485.099 79.4126 482.669 74.5562 482.669 74.5562C482.669 74.5562 476.074 74.28 476.074 74.6899C476.074 75.0998 474.863 81.4264 474.863 83.3155C474.908 84.618 474.863 85.922 474.73 87.2184C474.596 88.0293 472.308 89.2411 472.175 89.7847C472.243 90.7445 472.569 91.6681 473.118 92.4579C473.519 93.0015 472.175 94.347 472.175 94.748C472.175 95.1489 469.344 100.139 469.505 100.985C469.665 101.832 473.003 103.819 473.412 104.22C473.822 104.621 475.433 112.578 475.833 113.523C476.234 114.467 475.023 116.624 473.679 117.158C472.335 117.693 470.448 121.338 470.715 122.282C470.982 123.227 467.804 125.392 466.638 127.629H509.631L508.741 126.684Z" fill="#C682B5"/>
<path d="M429.182 51.21C431.069 52.0209 438.608 53.6338 439.142 56.0664C439.676 58.499 444.795 58.2228 448.302 60.3792C451.809 62.5356 458.262 68.7286 456.642 70.885L460.594 67.6504L461.671 65.0484C461.671 65.0484 462.392 62.8029 462.748 62.7138C463.588 62.3629 464.458 62.0914 465.348 61.9029C465.713 61.992 466.158 63.6138 466.336 64.0593C466.514 64.5049 468.579 62.9811 468.944 62.892C469.309 62.8029 472.504 60.0139 472.887 60.103C473.27 60.1921 477.649 59.9247 477.916 60.103C478.183 60.2812 478.183 58.2228 478.183 58.2228L482.491 55.9773L487.832 60.2901L492.452 59.9693L491.348 58.9357L491.713 56.8684H502.484L498.825 54.2664L498.469 51.9318L494.161 48.8754C494.161 48.8754 491.197 49.0536 490.387 49.1427C489.577 49.2319 489.675 47.5299 489.675 47.5299V45.7478L488.055 43.4844L485.189 46.3359H472.976L468.757 49.6596L459.072 49.4814L455.654 43.6626L451.079 41.2389C451.079 41.2389 445.952 45.0171 445.952 45.5517C445.952 46.0864 444.43 45.3735 444.43 45.3735C444.43 45.3735 443.985 42.7003 443.985 41.9607C443.985 41.2211 446.584 39.5281 446.584 39.5281C447.113 39.4094 447.653 39.3496 448.195 39.3498C448.471 39.4389 449.37 37.1934 449.459 36.9261C450.073 36.142 450.73 35.3924 451.426 34.6806L453.491 33.5133L455.2 30.6351H448.827C448.827 30.6351 443.709 37.5588 443.62 38.0043C443.531 38.4499 441.742 39.0825 441.742 39.0825C441.742 39.0825 438.323 39.0825 438.012 39.0825C437.7 39.0825 435.342 41.7557 435.342 41.7557H430.668L426.164 46.5408C427.135 48.715 428.256 50.7912 429.182 51.21Z" fill="#C682B5"/>
<path d="M109.939 307.02V373.85C109.939 373.85 116.045 378.707 117.657 380.676C119.268 382.645 119.811 386.254 121.431 384.989C123.051 383.723 124.84 381.22 127.172 382.476C128.847 383.235 130.188 384.578 130.946 386.254C131.658 387.689 133.456 388.927 135.966 390.923C138.477 392.919 139.376 394.336 140.275 397.927C141.174 401.518 144.049 397.927 144.049 404.396C144.049 410.866 147.458 412.487 146.915 415.544C146.372 418.6 144.939 415.722 143.506 413.209C142.073 410.696 140.835 408.174 137.043 407.096C133.251 406.018 133.99 406.018 132.379 403.532C131.315 401.775 129.981 400.196 128.427 398.854C127.537 398.141 126.647 399.576 124.867 396.341C123.086 393.106 122.712 390.594 121.306 390.228C119.9 389.863 118.787 390.406 116.455 389.15C114.123 387.894 116.099 380.168 107.304 378.733C98.51 377.299 98.688 379.09 95.6349 375.677C92.5817 372.264 91.5047 371.222 89.1726 372.442C86.8405 373.663 85.9414 376.755 83.6093 378.555C81.2772 380.355 82.8883 382.859 79.8352 381.424C76.7821 379.99 77.325 381.068 76.7821 379.99C76.2391 378.912 80.5562 373.699 78.046 373.699C75.5359 373.699 74.7704 374.759 72.9901 376.925C71.2099 379.09 70.3198 381.594 69.581 381.594C68.8422 381.594 67.2488 388.428 64.3737 391.841C61.4986 395.254 66.3498 393.623 59.3445 398.31C52.3393 402.997 51.8052 403.88 49.295 404.414C46.7849 404.949 47.1409 405.136 45.3429 406.036C43.5448 406.936 39.6016 409.092 39.6016 407.818C39.6016 406.544 40.8567 405.662 43.1621 404.254C45.4675 402.846 49.9893 398.863 51.7785 397.428C53.4457 396.058 54.9402 394.49 56.2291 392.759C57.1192 391.494 58.5612 390.781 59.0953 388.981C59.6294 387.181 64.1245 384.525 58.2052 385.568C52.2859 386.611 49.9537 390.603 47.9777 387.35C46.0016 384.098 44.2035 386.807 43.6695 384.828C43.1354 382.85 44.0255 378.359 41.5154 378.546C39.0052 378.733 37.5632 379.981 36.3081 376.764C35.0531 373.547 33.976 368.86 33.255 367.595C32.534 366.33 39.0052 357.535 42.0494 357.713C45.0937 357.891 49.7757 357 49.2327 353.258C48.6898 349.515 50.4878 345.532 47.6216 345.71C44.7554 345.888 44.5685 348.045 41.6934 347.867C38.8183 347.688 38.1329 347.154 36.1301 346.976C34.1273 346.797 30.2108 347.519 29.1338 345.719C28.0567 343.919 27.1577 341.772 25.7157 340.872C24.2737 339.972 31.2878 332.959 34.875 333.146C38.4622 333.333 40.9724 333.502 41.5154 334.581C42.0583 335.659 44.1857 340.328 45.6455 337.993C47.1053 335.659 50.4878 334.037 50.0962 333.146C49.7045 332.255 50.2742 330.09 47.9421 330.268C45.6099 330.446 42.7348 331.346 41.6578 328.646C40.5807 325.946 40.0467 326.133 38.9874 324.699C37.9282 323.264 35.5782 324.155 33.2372 320.92C30.8962 317.686 41.3195 314.638 42.5746 313.195C43.8297 311.751 46.8828 315.173 46.8828 310.682C46.8828 306.191 46.7048 302.413 47.9599 301.513C49.2149 300.613 52.4105 300.435 53.8792 299C55.3479 297.565 57.2973 295.436 58.9084 295.231C60.5195 295.026 61.7835 296.122 64.1156 297.013C66.4477 297.904 70.934 297.904 72.3671 298.635C73.8002 299.365 82.9595 298.457 86.0126 300.969C89.0658 303.482 93.0179 304.534 95.172 304.026C97.3261 303.518 101.625 301.869 102.889 302.404C104.153 302.939 110.482 307.02 109.939 307.02Z" fill="#E7E5DD"/>
<path d="M34.3766 409.52L32.8544 411.302C32.4814 411.641 32.1827 412.053 31.9774 412.513C31.772 412.974 31.6645 413.471 31.6617 413.975C33.344 414.056 34.8394 412.933 36.0144 411.721C36.4991 411.287 36.8509 410.725 37.0291 410.099C37.1087 409.786 37.0723 409.455 36.9267 409.166C36.781 408.878 36.536 408.652 36.2369 408.531C35.5159 408.317 34.8572 408.95 34.3766 409.52Z" fill="#E7E5DD"/>
<path d="M19.1822 418.351C19.5957 418.537 20.0464 418.627 20.4999 418.613C20.9534 418.6 21.3978 418.482 21.7991 418.27C23.4922 417.655 25.1477 416.941 26.7571 416.132C27.0613 416.014 27.3221 415.805 27.5048 415.535C27.8342 414.911 26.9707 414.1 26.3744 414.466C23.9295 415.66 21.5321 416.955 19.1822 418.351Z" fill="#E7E5DD"/>
<path d="M13.8503 419.179C13.6145 419.058 13.3436 419.023 13.0848 419.081C12.4981 419.17 11.936 419.378 11.4336 419.694C10.9312 420.01 10.4994 420.426 10.1652 420.917L10.3432 421.354C11.2374 421.517 12.1588 421.44 13.0136 421.131C13.4502 421.007 13.8307 420.737 14.0907 420.364C14.2068 420.173 14.2466 419.944 14.2021 419.725C14.1575 419.505 14.0319 419.31 13.8503 419.179Z" fill="#E7E5DD"/>
<path d="M0.356041 422.637C-0.0890204 422.735 -0.106823 423.439 0.249227 423.733C0.636703 423.982 1.10573 424.072 1.55771 423.982C3.36545 423.829 5.1541 423.501 6.89845 423.002C7.15659 422.931 7.44142 422.806 7.50373 422.556C7.56604 422.307 7.2278 421.986 6.92515 421.879C5.70568 421.416 1.62892 422.369 0.356041 422.637Z" fill="#E7E5DD"/>
<path d="M72.8299 392.073C73.1237 391.681 73.6132 391.387 73.72 390.905C73.8269 390.424 73.2483 389.694 73.4085 389.123C73.5687 388.553 74.0761 388.402 74.5122 388.143C74.9484 387.885 75.4024 387.314 75.0552 386.905C74.739 386.662 74.3414 386.55 73.9451 386.593C73.5489 386.637 73.1845 386.831 72.9278 387.136C72.4422 387.769 72.0273 388.453 71.6906 389.177C70.9072 390.451 69.6255 391.315 68.5662 392.367C67.507 393.418 66.608 394.88 66.9284 396.341C68.0557 396.386 69.1712 396.098 70.1365 395.513C71.1018 394.929 71.8743 394.073 72.3581 393.053C72.476 392.709 72.6344 392.38 72.8299 392.073Z" fill="#E7E5DD"/>
<path d="M32.3204 380.426C33.3618 380.025 34.332 379.027 34.1006 377.931C33.8239 377.461 33.396 377.098 32.8868 376.902C32.3775 376.706 31.817 376.689 31.2967 376.853C30.7929 377.05 30.3568 377.389 30.0409 377.828C29.7251 378.268 29.5429 378.79 29.5165 379.33C29.4818 379.568 29.5114 379.811 29.6022 380.034C29.693 380.256 29.8416 380.45 30.0328 380.596C30.2659 380.706 30.5232 380.755 30.7805 380.738C31.3077 380.722 31.8284 380.617 32.3204 380.426Z" fill="#E7E5DD"/>
<path d="M61.552 291.88C61.3236 291.997 61.1462 292.194 61.0536 292.433C60.9023 292.887 61.285 293.324 61.6856 293.618C62.5635 294.207 63.6375 294.428 64.6764 294.233C64.855 294.223 65.0288 294.172 65.1836 294.082C65.3383 293.992 65.4696 293.866 65.5665 293.716C65.6252 293.539 65.6372 293.35 65.6013 293.168C65.5655 292.985 65.4829 292.815 65.3618 292.673C64.9352 292.096 64.3109 291.695 63.6081 291.549C62.9054 291.403 62.1734 291.521 61.552 291.88Z" fill="#E7E5DD"/>
<path d="M136.527 410.509C135.477 410.768 134.195 411.302 134.195 412.372C134.225 412.754 134.347 413.124 134.551 413.45C135.982 416.852 138.401 419.745 141.494 421.755C141.59 421.838 141.707 421.893 141.832 421.915C142.153 421.915 142.26 421.487 142.242 421.158C141.976 419.009 141.28 416.936 140.194 415.063L138.414 411.374C138.287 411.005 138.039 410.691 137.711 410.482C137.325 410.356 136.907 410.365 136.527 410.509Z" fill="#E7E5DD"/>
<path d="M176.298 381.549C176.426 381.532 176.549 381.488 176.658 381.418C176.767 381.349 176.86 381.257 176.93 381.148C177.17 380.729 176.93 380.141 177.143 379.714C177.357 379.286 177.953 379.268 178.434 379.25C178.915 379.232 179.511 379.054 179.591 378.582C179.603 378.398 179.569 378.215 179.493 378.047C179.39 377.568 179.11 377.145 178.71 376.862C178.541 376.787 178.361 376.741 178.176 376.729C177.524 376.672 176.868 376.801 176.286 377.1C175.703 377.4 175.217 377.858 174.883 378.422C174.693 378.726 174.572 379.067 174.528 379.422C174.483 379.778 174.516 380.139 174.624 380.48C174.744 380.82 174.974 381.11 175.277 381.303C175.58 381.497 175.94 381.584 176.298 381.549Z" fill="#E7E5DD"/>
<path d="M184.006 374.634C183.838 374.777 183.711 374.962 183.639 375.171C183.567 375.379 183.553 375.603 183.597 375.82C183.739 376.717 184.14 377.553 184.751 378.226C185.361 378.899 186.154 379.379 187.033 379.607C187.418 379.766 187.841 379.811 188.251 379.736C188.661 379.662 189.042 379.472 189.347 379.188C189.499 378.972 189.6 378.724 189.642 378.463C189.684 378.202 189.665 377.935 189.587 377.682C189.433 377.176 189.198 376.698 188.893 376.265C188.634 375.767 188.262 375.337 187.807 375.009C187.333 374.775 186.813 374.651 186.285 374.643L184.914 374.519C184.607 374.461 184.289 374.502 184.006 374.634Z" fill="#E7E5DD"/>
<path d="M207.025 384.713C206.956 384.153 206.776 383.612 206.497 383.123C206.217 382.633 205.843 382.204 205.396 381.861C204.941 381.525 204.401 381.321 203.837 381.272C203.273 381.223 202.707 381.332 202.2 381.585C201.705 381.854 201.317 382.287 201.105 382.811C200.892 383.334 200.867 383.915 201.034 384.454C201.276 385.013 201.667 385.494 202.165 385.844C203.313 386.735 204.96 387.208 206.215 386.486C206.555 386.309 206.822 386.019 206.972 385.666C207.069 385.358 207.088 385.03 207.025 384.713Z" fill="#E7E5DD"/>
<path d="M217.359 388.152C217.735 388.254 218.101 388.388 218.454 388.553C219.174 388.835 219.943 388.965 220.715 388.936C220.88 388.946 221.045 388.92 221.198 388.86C221.352 388.8 221.491 388.708 221.605 388.589C221.725 388.414 221.779 388.202 221.756 387.992C221.681 387.553 221.468 387.149 221.148 386.84C220.827 386.531 220.417 386.332 219.976 386.272C219.106 386.158 218.225 386.173 217.359 386.317C216.245 386.41 215.124 386.365 214.021 386.183C214.173 386.575 213.416 386.718 213.291 387.127C213.167 387.537 213.603 387.751 213.959 387.858C214.603 388.046 215.273 388.133 215.944 388.116C216.415 388.071 216.891 388.083 217.359 388.152Z" fill="#E7E5DD"/>
<path d="M222.905 390.371C222.662 390.79 222.543 391.27 222.562 391.754C222.581 392.239 222.737 392.708 223.012 393.106C223.581 393.887 224.294 394.553 225.112 395.067C225.292 395.217 225.506 395.321 225.735 395.37C225.996 395.376 226.252 395.298 226.465 395.147C226.931 394.839 227.31 394.415 227.564 393.917C227.818 393.419 227.94 392.863 227.916 392.305C227.671 392.075 227.369 391.917 227.041 391.846C226.714 391.776 226.373 391.796 226.056 391.904C225.897 391.975 225.729 392.023 225.557 392.046C224.996 392.046 224.738 391.387 224.32 391.012C224.056 390.804 223.735 390.681 223.4 390.659C223.065 390.637 222.731 390.716 222.442 390.888C221.854 391.182 223.296 389.818 222.905 390.371Z" fill="#E7E5DD"/>
<path d="M219.335 391.939C219.223 391.731 219.045 391.566 218.829 391.471C218.613 391.376 218.371 391.355 218.143 391.413C217.831 391.502 217.555 391.761 217.252 391.707C217.149 391.891 217.089 392.097 217.08 392.308C217.07 392.519 217.11 392.73 217.197 392.922C217.284 393.115 217.414 393.284 217.579 393.417C217.743 393.55 217.936 393.642 218.143 393.686C218.353 393.692 218.561 393.645 218.749 393.55C218.937 393.454 219.097 393.313 219.216 393.139C219.335 392.965 219.408 392.764 219.429 392.554C219.45 392.345 219.418 392.133 219.335 391.939Z" fill="#E7E5DD"/>
<path d="M220.92 395.931C220.92 395.405 220.484 394.844 219.958 394.88C219.736 394.913 219.528 395.012 219.362 395.165C218.739 395.682 218.472 396.795 219.122 397.277C219.319 397.406 219.553 397.469 219.789 397.454C220.025 397.44 220.25 397.349 220.43 397.196C220.608 397.041 220.745 396.845 220.831 396.624C220.916 396.404 220.946 396.166 220.92 395.931Z" fill="#E7E5DD"/>
<path d="M238.811 405.662C238.722 405.252 238.722 404.824 238.624 404.414C238.499 403.961 238.271 403.543 237.957 403.193C236.648 401.705 234.316 401.492 232.456 402.169C231.83 402.366 231.27 402.729 230.836 403.22C230.62 403.466 230.476 403.766 230.419 404.089C230.363 404.411 230.396 404.742 230.515 405.047C230.72 405.519 231.183 405.893 231.165 406.41C231.165 407.239 230.008 407.417 229.34 407.916C228.45 408.611 228.45 410.001 228.682 411.142C229.197 413.462 230.301 415.61 231.886 417.379C231.994 417.524 232.143 417.633 232.313 417.691C232.437 417.7 232.56 417.684 232.677 417.642C232.793 417.601 232.9 417.536 232.99 417.451C233.765 416.959 234.467 416.359 235.073 415.669C235.376 415.325 235.604 414.921 235.742 414.484C235.88 414.046 235.925 413.585 235.874 413.129C235.785 412.894 235.785 412.634 235.874 412.398C235.975 412.291 236.101 412.21 236.241 412.163C236.381 412.117 236.53 412.106 236.675 412.131C237.841 412.214 239.012 412.078 240.129 411.73C240.686 411.55 241.189 411.232 241.591 410.805C241.992 410.378 242.279 409.856 242.425 409.288C241.588 409.431 240.867 408.736 240.307 408.094C239.616 407.419 239.102 406.583 238.811 405.662Z" fill="#E7E5DD"/>
<path d="M627.484 126.007V141.93C628.338 141.603 629.24 141.413 630.154 141.369C631.498 141.369 632.032 140.291 632.575 140.291C633.118 140.291 634.355 138.678 634.996 138.134C635.637 137.591 637.667 137.6 637.667 137.6C637.667 137.6 639.287 138.544 639.821 138.945C640.355 139.346 645.073 135.711 645.348 136.923C645.624 138.134 647.503 136.655 648.437 137.199C648.909 137.466 649.719 137.127 650.458 136.575V126.007H627.484Z" fill="#E7E5DD"/>
<path d="M658.585 127.085C656.021 125.873 654.677 126.007 652.523 126.007H650.502V136.575C651.203 136.08 651.761 135.411 652.122 134.632C652.523 133.421 655.887 130.453 657.775 131.532C659.158 132.209 660.687 132.533 662.225 132.476C662.225 132.476 662.688 132.022 663.249 131.425C661.842 129.794 660.098 127.807 658.585 127.085Z" fill="#E7E5DD"/>
<path d="M641.975 110.859V99.1855C641.975 98.2945 644.645 83.0214 644.645 83.0214L651.829 80.865C651.601 78.9545 651.479 77.0328 651.464 75.1087C651.57 74.7968 649.318 71.7493 647.449 69.29C643.079 69.29 634.898 69.3434 630.822 69.29V111.384L641.975 110.859Z" fill="#E7E5DD"/>
<path d="M665.314 127.762C665.314 127.762 666.524 124.26 665.714 123.307C665.003 122.359 664.018 121.653 662.893 121.284C661.816 121.017 663.694 119.939 664.504 118.611C665.314 117.283 663.026 115.243 662.083 113.763C661.139 112.284 662.617 112.418 663.427 111.607C664.237 110.796 664.86 108.417 664.904 108.266L659.751 110.885H641.948L626.38 111.616V126.034H652.496C654.65 126.034 655.994 125.9 658.558 127.112C660.071 127.834 661.816 129.785 663.213 131.451C663.623 131.024 664.103 130.56 664.477 130.079C664.762 129.767 664.982 129.402 665.126 129.004C665.269 128.607 665.333 128.185 665.314 127.762Z" fill="#E7E5DD"/>
<path d="M627.083 142.046L627.484 141.93V126.007H626.407V111.589L630.857 111.384V69.3256C629.46 69.3256 628.543 69.3256 628.436 69.2721C627.893 69.1385 619.01 72.5067 619.01 72.5067L600.023 87.058C600.023 87.058 601.501 95.9687 601.902 96.4945C602.302 97.0202 597.451 97.84 597.451 97.84C597.451 97.84 591.532 102.019 590.855 102.295C590.179 102.572 586.547 102.162 586.547 102.162L580.628 103.65L579.292 100.691C579.292 100.691 574.174 100.014 573.765 100.148C573.355 100.282 566.225 102.821 566.225 102.821L566.118 110.493C566.118 110.493 561.81 117.773 561.668 118.174C561.525 118.575 555.882 120.848 555.882 120.848L553.301 123.423L555.482 124.84H607.892C613.126 124.84 618.075 137.315 618.075 137.315C619.25 138.66 622.997 141.993 625.481 144.096C625.757 143.401 626.513 142.162 627.083 142.046Z" fill="#E7E5DD"/>
<path d="M608.64 169.402C609.574 168.734 610.251 170.213 610.927 170.748C611.604 171.282 614.292 171.969 614.693 171.291C615.093 170.614 616.58 169.135 617.363 167.923C617.363 167.923 619.517 167.112 620.461 166.711C621.404 166.31 622.072 164.038 621.938 163.067C621.805 162.095 621.538 161.053 621.938 160.643C622.339 160.233 623.549 157.007 624.359 156.33C625.169 155.653 623.692 153.229 623.015 152.285C622.339 151.34 625.686 146.76 624.359 146.493C623.033 146.225 625.169 145.013 625.303 144.47C625.336 144.347 625.381 144.228 625.436 144.114C622.953 142.011 619.206 138.678 618.031 137.332C618.031 137.332 617.452 135.88 616.491 133.973C614.924 134.953 612.832 136.513 612.93 137.867C612.968 138.743 612.819 139.617 612.494 140.432C612.169 141.246 611.674 141.982 611.043 142.59C610.233 143.258 610.634 145.824 610.91 147.045C611.186 148.266 611.853 151.082 611.577 152.703C611.301 154.325 609.29 156.205 607.945 157.016C606.601 157.827 603.637 157.016 603.904 160.652C604.162 164.109 607.322 167.914 607.874 170.454C608.045 170.049 608.307 169.689 608.64 169.402Z" fill="#E7E5DD"/>
<path d="M613.829 171.844C612.747 171.813 611.69 171.506 610.758 170.953C610.537 170.762 610.334 170.55 610.153 170.32C609.833 169.928 609.459 169.491 609.12 169.491C609.001 169.498 608.886 169.542 608.791 169.616C608.495 169.877 608.268 170.208 608.132 170.578L607.794 171.309L607.625 170.525C607.237 169.235 606.689 167.999 605.996 166.845C604.972 164.911 603.806 162.719 603.655 160.652C603.441 157.783 605.151 157.435 606.53 157.159C606.978 157.096 607.414 156.964 607.821 156.767C609.085 156.009 611.079 154.174 611.328 152.641C611.577 151.108 610.99 148.56 610.714 147.295L610.66 147.063C610.411 145.913 609.922 143.16 610.883 142.349C611.474 141.773 611.939 141.078 612.245 140.311C612.552 139.543 612.694 138.72 612.663 137.894C612.592 136.726 613.838 135.328 616.366 133.75L616.615 133.599L616.749 133.857C617.639 135.577 618.182 136.94 618.28 137.199C619.392 138.455 622.882 141.592 625.623 143.917L625.775 144.051L625.703 144.229C625.65 144.354 625.606 144.47 625.579 144.55C625.517 144.8 625.276 145.031 624.876 145.441C624.644 145.655 624.217 146.056 624.208 146.208C624.279 146.238 624.354 146.259 624.431 146.27C624.527 146.288 624.618 146.328 624.697 146.386C624.776 146.445 624.84 146.521 624.885 146.609C625.152 147.134 624.76 148.079 624.075 149.576C623.656 150.467 623.033 151.866 623.256 152.178C623.665 152.748 625.65 155.662 624.555 156.58C623.907 157.417 623.38 158.34 622.989 159.324C622.765 159.874 622.482 160.397 622.143 160.884C621.912 161.115 622.036 161.935 622.143 162.594L622.223 163.076C622.366 164.074 621.698 166.524 620.585 167.005C619.749 167.362 617.915 168.039 617.55 168.19C617.059 168.874 616.533 169.531 615.974 170.16C615.594 170.576 615.24 171.017 614.915 171.478C614.764 171.701 614.39 171.844 613.829 171.844ZM609.12 168.966C609.708 168.966 610.162 169.5 610.571 169.981C610.726 170.187 610.902 170.375 611.097 170.543C611.933 171.012 612.871 171.272 613.829 171.3C614.23 171.3 614.426 171.22 614.461 171.149C614.801 170.664 615.173 170.203 615.574 169.768C616.14 169.131 616.672 168.465 617.167 167.772V167.7H617.247C617.247 167.7 619.41 166.889 620.336 166.488C621.11 166.15 621.778 164.029 621.653 163.138C621.653 162.978 621.609 162.817 621.582 162.657C621.431 161.766 621.297 160.919 621.733 160.483C622.01 160.031 622.254 159.561 622.463 159.075C622.876 158.016 623.453 157.03 624.172 156.152C624.653 155.751 623.843 153.96 622.775 152.472C622.374 151.91 622.917 150.69 623.549 149.335C623.968 148.444 624.537 147.17 624.368 146.831C624.368 146.831 624.368 146.831 624.288 146.787C624.208 146.742 623.754 146.68 623.656 146.332C623.558 145.985 623.986 145.441 624.475 145.031C624.682 144.855 624.868 144.655 625.027 144.434C625.042 144.36 625.066 144.288 625.098 144.22C622.557 142.117 620.127 139.883 617.817 137.528L617.764 137.457C617.764 137.457 617.238 136.129 616.366 134.383C614.248 135.746 613.108 136.985 613.171 137.876C613.212 138.794 613.056 139.711 612.714 140.564C612.371 141.417 611.85 142.187 611.186 142.821C610.625 143.294 610.758 145.263 611.186 147.001L611.239 147.232C611.55 148.613 612.129 151.189 611.862 152.766C611.577 154.477 609.494 156.428 608.106 157.266C607.644 157.495 607.148 157.648 606.637 157.72C605.284 157.996 604.02 158.255 604.189 160.652C604.341 162.603 605.471 164.742 606.477 166.631C607.051 167.645 607.551 168.699 607.972 169.785C608.104 169.565 608.276 169.371 608.48 169.215C608.66 169.063 608.885 168.975 609.12 168.966Z" fill="#E7E5DD"/>
<path d="M539.842 153.639C537.688 152.561 537.688 155.795 535.534 154.717C534.457 157.952 537.688 162.265 535.534 164.421C533.38 168.734 527.995 166.577 526.918 173.047C525.84 176.281 518.301 173.047 517.224 175.203C512.916 188.141 520.455 195.698 533.38 196.758V201.071C537.688 203.227 543.073 198.915 545.227 196.758C549.536 194.611 550.613 191.412 553.844 188.141C554.921 185.985 552.767 181.672 551.69 179.516C549.535 175.203 554.921 170.89 551.69 165.499C552.746 165.585 553.796 165.266 554.627 164.608H553.844L544.506 163.165V141.494C540.065 144.007 540.803 148.809 539.842 153.639Z" fill="#E7E5DD"/>
<path d="M607.954 157.007C609.298 156.196 611.319 154.334 611.586 152.695C611.853 151.055 611.186 148.239 610.919 147.036C610.651 145.833 610.242 143.258 611.052 142.581C611.683 141.973 612.178 141.237 612.503 140.423C612.828 139.608 612.977 138.734 612.939 137.858C612.85 136.504 614.942 134.944 616.5 133.964C614.63 130.275 611.301 124.875 607.856 124.875H555.437L553.256 123.458L552.606 124.109H544.48V163.156L553.817 164.599C555.741 164.552 557.659 164.37 559.558 164.056C560.635 163.699 595.457 163.343 595.457 163.343C599.396 164.782 603.259 166.424 607.029 168.262C605.889 165.963 604.109 163.2 603.913 160.643C603.655 157.007 606.619 157.818 607.954 157.007Z" fill="#E7E5DD"/>
<path d="M516.272 179.106C513.094 177.155 505.715 175.355 503.418 175.355C500.908 175.355 497.677 175.176 496.6 173.198C495.906 171.924 492.532 169.972 490.209 168.743C484.45 172.022 482.313 176.825 478.468 181.637C477.391 183.793 468.775 180.558 467.698 183.793C464.466 191.34 458.013 184.871 455.859 188.106C454.782 190.262 453.705 192.419 452.628 192.419C445.088 190.262 447.243 196.723 444.011 198.879C441.056 200.661 438.101 200.162 435.11 200.242C436.543 203.611 432.44 204.698 431.763 205.713C431.087 206.729 429.253 212.183 431.051 213.261C432.849 214.339 437.149 214.339 441.101 214.696C445.053 215.052 451.515 210.383 451.515 210.383H510.397C511.221 209.43 512.315 208.749 513.534 208.431C514.753 208.113 516.039 208.172 517.224 208.601C518.301 205.366 517.224 201.053 518.301 201.053C523.419 200.037 526.579 200.937 526.891 195.502C519.253 193.096 514.927 187.509 516.272 179.106Z" fill="#E7E5DD"/>
<path d="M600.691 207.95C599.609 207.956 598.528 208.045 597.46 208.217C597.46 208.217 597.736 206.328 597.736 205.927C597.414 204.921 596.859 204.005 596.116 203.254C595.306 202.452 596.116 203.254 595.039 203.664C593.962 204.074 593.695 204.065 593.018 204.332C592.342 204.6 592.35 202.176 592.885 200.697C593.419 199.218 592.885 200.697 593.285 200.296C593.686 199.895 593.152 198.674 591.131 196.384C589.11 194.094 591.131 196.384 591.407 195.573C591.683 194.762 593.428 194.361 594.229 193.96C595.03 193.559 594.638 192.071 594.505 191.536C594.397 191.264 594.26 191.004 594.095 190.761C593.271 190.487 592.409 190.339 591.54 190.325C590.463 189.246 593.695 186.012 592.618 184.934C588.309 181.699 579.693 179.587 584.001 174.152C585.617 170.875 588.267 168.222 591.54 166.604C593.027 166.604 592.974 165.063 592.092 163.405C583.316 163.503 560.457 163.797 559.585 164.082C557.948 164.378 556.29 164.548 554.627 164.59C553.796 165.248 552.746 165.567 551.69 165.481C554.921 170.872 549.536 175.185 551.69 179.498C552.767 181.654 554.921 185.967 553.844 188.124C550.613 191.358 549.536 194.593 545.227 196.74C543.073 198.897 537.688 203.21 533.38 201.053V196.74C531.177 196.572 529.001 196.157 526.891 195.502C526.579 200.937 523.419 200.037 518.301 201.053C517.224 201.053 518.301 205.366 517.224 208.601C516.04 208.172 514.753 208.113 513.534 208.431C512.315 208.749 511.222 209.43 510.397 210.383H601.421C601.341 209.483 600.985 208.048 600.691 207.95Z" fill="#E7E5DD"/>
<path d="M506.997 236.295C506.997 236.295 512.738 234.139 520.82 236.652L529.615 236.83L536.433 238.612L544.15 241.285L558.873 248.289L564.712 253.234C564.889 252.974 565.136 252.77 565.424 252.646C565.958 252.513 566.902 251.568 567.445 251.434C567.988 251.301 570.115 250.356 571.21 250.757C572.305 251.158 572.99 248.877 573.765 248.735C574.539 248.592 574.174 246.311 575.652 245.643C577.129 244.974 581.981 244.431 582.381 244.021C582.782 243.611 582.657 241.348 583.868 240.118C585.078 238.888 583.868 240.118 584.268 240.118C584.669 240.118 586.048 240.385 586.939 240.519C588.124 240.504 589.302 240.321 590.437 239.975C590.971 239.842 591.514 237.017 590.027 235.52L590.704 234.041L589.386 231.679C589.386 231.679 589.653 229.897 589.787 228.846L591.407 230.058C592.223 229.911 593.064 230.004 593.828 230.325C594.772 230.868 595.715 230.058 596.249 227.233C596.783 224.408 597.193 225.611 597.326 225.21C597.46 224.809 595.849 223.187 595.306 223.187C594.17 222.979 593.047 222.708 591.941 222.377C591.941 222.377 592.484 220.764 593.428 220.487C594.371 220.211 595.039 218.705 596.383 218.474C597.822 218.342 599.269 218.62 600.557 219.276C601.234 219.686 603.388 222.109 603.789 221.949C604.189 221.788 604.056 219.276 604.332 218.581C604.607 217.886 602.551 216.558 601.661 215.346C601.118 214.684 600.748 213.897 600.584 213.056C600.812 212.409 601.083 211.778 601.394 211.167C601.472 210.919 601.49 210.657 601.448 210.401H536.504C534.67 210.908 533.282 211.336 532.481 211.657C532.481 211.657 530.87 212.2 527.46 217.003C524.051 221.806 521.176 220.568 521.176 220.568L516.147 223.802C512.442 224.753 508.788 225.892 505.198 227.215C499.991 229.184 501.638 232.063 501.638 232.063L505.768 237.997C503.32 234.869 506.997 236.295 506.997 236.295Z" fill="#E7E5DD"/>
<path d="M377.128 265.852C375.507 272.687 377.217 284.814 377.217 284.814L385.922 295.953L388.592 299.276L386.082 303.945C386.082 303.945 385.459 305.728 385.815 310.958C385.811 310.976 385.811 310.994 385.815 311.012C387.925 311.297 390.924 311.582 390.924 311.582C390.924 311.582 394.69 312.393 395.633 313.07C396.577 313.747 398.731 312.259 399.941 312.259C401.152 312.259 401.552 310.37 402.362 310.236C403.173 310.103 406.137 311.047 406.938 312.393C407.739 313.738 413.676 317.784 413.676 317.784C413.676 317.784 418.385 318.595 419.996 319.406C421.607 320.217 422.826 319.539 423.369 319.673C423.912 319.807 423.227 316.037 423.636 316.037C424.046 316.037 427.678 318.051 428.755 318.595C429.832 319.138 433.73 321.018 434.14 321.268C434.549 321.517 437.362 319.112 438.439 318.595C439.516 318.078 436.152 315.922 435.208 315.627C434.153 315.241 433.121 314.792 432.119 314.282C432.119 314.282 430.766 311.992 430.633 311.609C430.573 311.096 430.687 310.579 430.957 310.139C431.226 309.7 431.636 309.363 432.119 309.185C433.463 308.784 433.597 306.761 433.73 306.084C433.864 305.407 430.232 301.905 430.232 301.504C430.232 301.103 432.395 301.834 434.22 302.235C434.005 301.176 433.707 300.137 433.33 299.125C432.75 297.784 431.738 296.676 430.455 295.979C428.669 295.001 427.013 293.804 425.523 292.415C422.47 289.742 419.239 292.05 414.299 292.326C409.359 292.602 409.902 290.971 409.902 290.971L409.279 287.47L408.914 283.014C408.914 283.014 408.914 280.136 412.145 277.89C415.376 275.645 411.068 272.054 411.157 267.741C411.189 267.02 411.145 266.297 411.023 265.585H377.208L377.128 265.852Z" fill="#E7E5DD"/>
<path d="M443.851 297.708C443.994 294.607 445.738 295.552 447.082 291.907C448.426 288.263 444.528 275.066 444.795 274.255C445.062 273.444 446.005 268.187 445.471 265.228C444.937 262.27 445.738 261.183 447.759 259.561C449.779 257.939 448.435 246.623 447.759 244.199C447.082 241.775 448.435 240.697 448.969 239.744C449.503 238.79 448.836 237.454 447.892 236.509C447.688 236.219 447.549 235.888 447.483 235.539C447.417 235.19 447.426 234.831 447.51 234.486H418.5C417.975 235.306 417.61 235.841 417.61 235.841C417.258 235.768 416.894 235.777 416.546 235.867C416.199 235.957 415.876 236.127 415.604 236.362C415.332 236.597 415.118 236.892 414.978 237.223C414.838 237.555 414.776 237.914 414.798 238.273C414.612 240.183 413.965 242.018 412.91 243.62L410.845 246.578C410.845 246.578 409.323 246.667 409.412 248.922C409.514 250.395 409.421 251.875 409.136 253.324C408.869 255.204 408.059 253.769 409.136 256.104C410.213 258.438 410.026 258.171 409.946 261.317C409.866 264.462 411.29 263.384 411.201 267.697C411.112 272.009 415.421 275.6 412.19 277.846C408.958 280.091 408.958 282.97 408.958 282.97L409.323 287.425L409.946 290.927C409.946 290.927 409.412 292.549 414.344 292.281C419.275 292.014 422.515 289.67 425.568 292.37C427.057 293.759 428.714 294.957 430.499 295.935C431.782 296.632 432.795 297.739 433.374 299.08C433.751 300.092 434.049 301.132 434.265 302.19C434.665 302.279 435.048 302.35 435.395 302.404C437.273 302.671 437.683 302.137 440.104 301.326C441.332 300.962 442.629 300.897 443.887 301.139C443.842 300.185 443.798 299.036 443.851 297.708Z" fill="#E7E5DD"/>
<path d="M449.913 303.901C451.391 304.578 452.201 303.099 452.334 303.767C452.468 304.436 455.565 302.956 456.509 302.555C456.631 302.486 456.735 302.388 456.813 302.27C456.89 302.153 456.938 302.018 456.954 301.878C456.882 301.286 456.882 300.688 456.954 300.096C456.954 299.802 456.954 299.633 457.016 299.749C457.506 297.236 459.393 294.901 459.927 294.901C460.461 294.901 479.207 294.563 485.411 294.901C485.251 294.447 485.073 294.01 484.877 293.582C483.987 291.56 485.553 290.909 487.165 289.27C488.776 287.63 485.82 286.169 485.82 282.533C485.82 278.897 485.82 279.86 485.687 278.621C485.553 277.383 485.821 276.331 487.307 274.986C488.794 273.64 486.088 271.475 484.476 270.94C482.865 270.405 484.076 267.706 485.82 266.226C487.316 264.961 481.263 241.428 479.456 234.549H447.51C447.426 234.894 447.417 235.253 447.483 235.601C447.549 235.95 447.688 236.281 447.892 236.571C448.836 237.516 449.512 238.861 448.969 239.806C448.426 240.751 447.082 241.829 447.759 244.261C448.435 246.694 449.779 258.011 447.759 259.623C445.738 261.236 444.928 262.297 445.471 265.291C446.014 268.285 445.071 273.506 444.795 274.317C444.519 275.128 448.435 288.334 447.082 291.969C445.729 295.605 443.994 294.643 443.851 297.77C443.798 299.098 443.851 300.248 443.851 301.219C444.304 301.291 444.75 301.398 445.186 301.54C445.186 301.54 448.435 303.233 449.913 303.901Z" fill="#E7E5DD"/>
<path d="M358.462 147.437L362.022 152.106L364.621 155.795L365.698 162.265L373.06 166.488V212.664H419.248C419.248 212.664 420.592 218.598 420.049 220.211C419.782 221.022 421.829 222.938 423.93 224.765C424.877 223.311 425.485 221.664 425.71 219.944C426.209 217.191 428.443 214.74 430.704 212.896C429.618 211.265 431.158 206.729 431.808 205.767C432.458 204.805 436.837 203.611 435.039 200.011C433.241 196.411 434.327 196.063 432.885 192.472C431.443 188.881 427.5 186.716 426.066 184.925C424.633 183.134 422.114 184.203 422.506 179.89C422.898 175.577 423.218 173.421 421.064 171.265C418.91 169.108 418.554 168.386 415.323 166.595C412.092 164.804 409.982 168.03 408.139 160.839C406.297 153.648 403.119 152.579 405.273 148.266C405.478 147.838 405.727 147.375 405.985 146.911H358.39L358.462 147.437Z" fill="#E7E5DD"/>
<path d="M345.982 105.931L349.845 112.757L350.112 121.828L354.331 130.453L356.486 135.933L357.652 141.146L358.39 146.894H405.896C407.917 143.231 411.237 138.286 412.768 135.087C413.08 127.067 413.569 116.374 414.068 114.592C414.878 111.625 414.878 112.436 413.258 106.234C412.127 101.903 411.531 103.097 411.477 102.456H346.409L345.982 105.931Z" fill="#E7E5DD"/>
<path d="M456.633 70.885C458.253 68.7286 451.791 62.5356 448.293 60.3792C444.795 58.2228 439.676 58.4901 439.134 56.0664C438.591 53.6427 431.06 52.0209 429.173 51.2101C428.283 50.818 427.126 48.715 426.191 46.4695L426.12 46.5408C426.12 46.5408 422.622 46.8081 421.901 46.8081C421.18 46.8081 419.124 46.8081 419.035 47.1735C418.946 47.5388 416.426 48.6081 415.981 48.7863C415.536 48.9645 413.916 47.7081 414.005 47.4408C414.68 46.6237 415.399 45.8443 416.159 45.1062L418.225 43.0389V40.3657C418.225 40.3657 415.803 39.831 415.349 40.1875C414.895 40.5439 412.679 43.6003 412.679 43.6003C412.679 43.6003 410.009 43.333 409.893 43.6003C409.777 43.8676 407.294 46.024 407.223 46.2735C407.151 46.523 403.813 46.2735 403.003 46.1933C401.294 48.4904 399.874 50.9894 398.775 53.6338C397.698 56.307 393.657 56.0664 392.313 58.4901C390.969 60.9139 393.924 63.3376 393.39 65.7702C392.856 68.2028 390.72 70.083 393.39 75.474C396.06 80.865 407.392 88.6797 409.546 91.9143C411.7 95.1489 412.216 94.8816 411.7 99.9964C411.184 105.111 411.7 99.9964 413.311 106.234C414.922 112.471 414.931 111.58 414.121 114.592C413.623 116.374 413.133 127.067 412.821 135.087C413.08 134.577 413.303 134.05 413.489 133.51C414.566 130.275 431.443 131.728 434.318 131.353C437.193 130.979 441.136 131.71 443.646 131.353C446.157 130.997 449.753 128.84 452.263 127.406C453.393 126.755 455.013 126.907 456.571 126.978C455.743 123.859 455.049 117.622 455.565 116.036C456.242 114.013 454.898 113.478 454.488 112.534C454.079 111.589 453.954 109.433 453.545 107.276C453.135 105.12 455.565 99.3281 456.375 98.1073C457.185 96.8865 456.375 98.1073 455.432 96.4945C454.488 94.8816 455.432 96.4945 455.298 96.0935C455.165 95.6925 455.565 94.739 456.642 94.2044C457.719 93.6698 457.319 92.5826 457.052 91.3708C456.785 90.1589 458.129 85.0352 460.817 81.266C462.624 78.6864 464.288 76.0091 465.802 73.2463C465.317 72.8548 464.805 72.4975 464.271 72.177C464.004 72.079 462.49 72.8008 462.392 73.2552C462.295 73.7097 460.683 75.2245 460.327 75.679C459.545 76.2037 458.698 76.626 457.808 76.9354L456.633 79.7868L450.26 87.1471L449.904 90.3817L446.228 92.3599L446.139 88.9471C446.495 88.9471 447.216 87.1649 447.216 86.8798C447.806 85.9924 448.463 85.1523 449.183 84.3669C449.183 84.3669 452.147 81.5779 452.414 81.6937C452.681 81.8096 452.058 78.1294 452.058 78.1294L455.619 74.8057L456.509 71.3573C456.485 71.2746 456.485 71.1872 456.507 71.1041C456.529 71.0211 456.572 70.9454 456.633 70.885Z" fill="#E7E5DD"/>
<path d="M343.739 50.3992L342.306 41.5063L340.775 25.3333L335.933 18.9532L339.253 11.1384L338.22 0H252.012V55.7991H344.54L343.739 50.3992Z" fill="#E7E5DD"/>
<path d="M332.016 107.276C333.093 107.276 335.247 104.042 335.247 105.12C340.223 105.12 343.258 109.575 347.86 109.183L346.018 105.931L347.006 97.84V68.0157L343.445 61.5465L344.7 56.4229L344.602 55.7902H252.012V106.332C278.671 106.198 305.312 106.207 332.016 107.276Z" fill="#E7E5DD"/>
<path d="M373.086 166.488L365.725 162.265L364.648 155.795L364.399 155.43H277.861V203.949H373.086V166.488Z" fill="#E7E5DD"/>
<path d="M91.8073 0H21.265C19.921 2.02274 25.5732 3.63558 25.5732 3.63558C25.5732 3.63558 25.8403 4.84745 27.9944 6.60286C30.1485 8.35828 27.3268 8.6256 27.1933 10.381C27.0597 12.1364 26.6503 13.0542 24.7632 14.9611C22.8762 16.868 24.2292 17.1175 24.4962 19.6749C24.8023 22.1663 24.2327 24.6867 22.8851 26.8035C21.7071 28.5836 20.7139 30.4796 19.921 32.4618C18.6926 35.4469 13.8592 44.8745 13.8592 44.4735C13.8592 44.0725 8.88343 50.1319 8.07341 53.3843C7.89173 54.2134 7.78743 55.0576 7.76187 55.906H91.8073V0Z" fill="#E7E5DD"/>
<path d="M90.3742 109.076C91.0952 104.764 89.6532 92.146 92.8844 90.0252C96.1155 87.9045 92.1723 82.1214 91.4513 78.165C90.7303 74.2087 91.4513 78.1651 93.9614 77.4433C96.4716 76.7215 92.8844 70.6176 92.1812 67.7395C91.478 64.8613 92.5372 64.5138 95.0474 60.9138C97.5575 57.3139 91.8162 56.2446 91.8162 56.2446V55.8882H7.76187C7.68582 58.601 7.7899 61.3158 8.07341 64.0148C8.07341 64.0148 8.74991 74.3958 9.28398 77.5235C9.81806 80.6511 7.39692 83.8234 7.2634 86.4342C7.12988 89.0451 9.69344 94.5163 9.82696 95.345C9.96048 96.1737 6.72933 97.9024 5.24282 98.0182C3.75632 98.134 3.6317 100.175 4.3527 101.796C5.0737 103.418 2.99971 107.722 3.54269 111.233C3.89874 113.567 5.45645 119.796 6.65812 124.599H90.4187L90.3742 109.076Z" fill="#E7E5DD"/>
<path d="M166.453 124.171V82.0591C164.151 81.3366 161.743 81.0082 159.332 81.0878C153.947 81.4442 149.274 82.5224 147.12 82.166C144.966 81.8096 142.42 86.0689 140.64 80.6779C138.859 75.2869 144.592 79.5997 138.859 75.2869C133.127 70.9741 138.859 66.3049 130.964 65.5831C123.068 64.8613 123.06 70.6177 123.06 64.8702C123.06 59.1228 120.905 55.5229 123.06 54.0882C125.214 52.6536 128.445 51.9318 123.06 47.2626C117.674 42.5934 113.366 46.1844 114.087 37.9152C114.808 29.6461 103.673 22.464 104.038 18.864C104.403 15.2641 102.961 7.72562 104.038 4.49102C104.37 3.0298 104.525 1.53396 104.5 0.0356445H91.8073V56.2446C91.8073 56.2446 97.5575 57.3228 95.0385 60.9139C92.5194 64.5049 91.478 64.8702 92.1723 67.7395C92.8666 70.6087 96.4805 76.7304 93.9525 77.4433C91.4246 78.1562 90.7214 74.2087 91.4424 78.1651C92.1634 82.1214 96.1333 87.8689 92.8844 89.9985C89.6354 92.1282 91.1041 104.737 90.3742 109.05V125.98H128.819C128.819 124.822 128.819 124.198 128.819 124.198L166.453 124.171Z" fill="#E7E5DD"/>
<path d="M120.888 216.888C124.448 213.653 128.792 224.791 128.792 213.323C128.792 201.855 127.715 199.663 128.792 197.15C129.762 194.869 128.97 136.985 128.792 125.989H90.3742V124.554H57.7067V173.047C57.7067 173.047 100.068 206.462 102.578 212.575C105.088 218.687 105.097 226.948 109.405 226.235C113.713 225.522 118.021 225.513 120.532 228.748C121.422 229.87 122.659 231.59 124.003 233.346C121.511 226.333 118.68 218.884 120.888 216.888Z" fill="#E7E5DD"/>
<path d="M165.047 124.171H128.792C128.792 124.171 129.869 194.611 128.792 197.124C128.035 198.906 128.329 200.456 128.578 205.143H191.305C191.412 176.629 191.555 150.226 191.599 142.581C176.396 142.456 165.047 142.34 165.047 142.34V124.171Z" fill="#E7E5DD"/>
<path d="M128.792 213.297C128.792 224.791 124.484 213.653 120.888 216.861C117.292 220.069 126.994 237.703 126.994 244.538C126.994 251.372 126.273 248.85 123.042 254.598C119.811 260.345 123.042 254.598 123.042 261.067C123.022 262.953 122.847 264.833 122.517 266.69C123.341 266.76 124.152 266.939 124.929 267.224C126.816 267.759 130.448 270.183 131.258 271.528C132.068 272.874 141.895 275.574 144.316 276.786C146.737 277.997 169.622 286.356 169.622 286.356C169.622 286.356 187.531 286.222 189.142 286.356C189.891 286.425 190.644 286.44 191.394 286.4C191.145 274.032 191.19 238.184 191.305 205.09H128.578C128.685 207.166 128.792 209.786 128.792 213.297Z" fill="#E7E5DD"/>
<path d="M420.023 220.211C420.566 218.598 419.221 212.664 419.221 212.664H373.086V234.771L375.507 241.597L375.596 247.077L377.573 251.533L378.383 255.845C378.383 255.845 378.721 258.884 377.208 265.46H411.095C410.756 263.58 409.902 263.678 409.973 261.236C410.062 258.091 410.24 258.358 409.163 256.024C408.086 253.689 408.896 255.132 409.163 253.243C409.448 251.795 409.541 250.315 409.439 248.842C409.35 246.587 410.872 246.498 410.872 246.498L412.937 243.54C413.991 241.938 414.639 240.102 414.824 238.193C414.806 237.838 414.868 237.484 415.007 237.157C415.145 236.83 415.356 236.538 415.624 236.305C415.891 236.071 416.208 235.902 416.551 235.809C416.894 235.716 417.253 235.703 417.601 235.769C417.601 235.769 420.833 231.18 421.643 228.222C422.105 226.52 423.013 225.968 423.904 224.658C421.803 222.938 419.756 220.987 420.023 220.211Z" fill="#E7E5DD"/>
<path d="M501.611 232.161C501.611 232.161 499.991 229.282 505.172 227.313C508.761 225.99 512.415 224.851 516.12 223.9L521.149 220.666C521.149 220.666 524.025 221.922 527.434 217.101C530.843 212.281 532.454 211.755 532.454 211.755C533.255 211.434 534.644 211.006 536.477 210.499H451.533C451.533 210.499 445.071 215.168 441.118 214.811C437.166 214.455 432.858 214.455 431.069 213.377C430.909 213.276 430.775 213.138 430.677 212.976C428.416 214.82 426.227 217.271 425.684 220.024C424.607 225.95 422.453 225.371 421.643 228.382C420.873 230.591 419.817 232.688 418.5 234.62H503.24L501.611 232.161Z" fill="#E7E5DD"/>
<path d="M503.748 234.771H418.011L418.278 234.353C419.569 232.453 420.613 230.395 421.384 228.231C421.662 227.254 422.175 226.36 422.88 225.629C423.77 224.586 424.776 223.401 425.417 219.89C425.844 217.52 427.562 215.096 430.499 212.682L430.731 212.495L430.9 212.744C430.977 212.871 431.08 212.98 431.202 213.065C432.52 213.858 435.342 214.045 438.323 214.25C439.214 214.312 440.202 214.375 441.136 214.464C444.964 214.811 451.301 210.249 451.364 210.204L451.435 210.151H538.525L536.602 210.677C534.768 211.185 533.389 211.568 532.605 211.924C532.605 211.924 530.985 212.557 527.701 217.226C525.467 220.407 523.428 221.076 522.111 221.076C521.81 221.083 521.51 221.044 521.221 220.96L516.227 224.159C512.53 225.103 508.884 226.239 505.305 227.563C503.4 228.284 502.19 229.229 501.798 230.307C501.689 230.582 501.637 230.877 501.646 231.173C501.655 231.468 501.725 231.759 501.852 232.027L503.748 234.771ZM418.99 234.228H502.724L501.389 232.312C501.218 231.978 501.12 231.612 501.1 231.237C501.08 230.863 501.139 230.488 501.273 230.138C501.727 228.89 503.053 227.848 505.101 227.055C510.032 225.192 515.497 223.784 516.04 223.642L521.149 220.354L521.283 220.416C521.54 220.505 521.812 220.547 522.084 220.541C523.054 220.541 525.021 220.069 527.238 216.914C530.656 212.04 532.329 211.443 532.401 211.425C532.899 211.22 533.638 210.971 534.581 210.686H451.613C450.865 211.22 444.919 215.355 441.092 214.998C440.202 214.918 439.223 214.847 438.288 214.785C435.244 214.58 432.36 214.384 430.927 213.528C430.819 213.458 430.72 213.374 430.633 213.279C427.918 215.551 426.342 217.805 425.942 219.988C425.283 223.642 424.224 224.88 423.271 225.976C422.617 226.648 422.14 227.471 421.883 228.373C421.172 230.44 420.199 232.408 418.99 234.228Z" fill="#E7E5DD"/>
</g>
</svg>
