<svg width="160" height="42" viewBox="0 0 160 42" fill="none" xmlns="http://www.w3.org/2000/svg">
<g clip-path="url(#clip0_7:419)">
<path d="M64.79 30.5498V31.0698H58.22V30.5498H58.39C58.5628 30.5736 58.7388 30.5572 58.904 30.501C59.0691 30.4448 59.2188 30.3504 59.3412 30.2261C59.4636 30.1017 59.5552 29.9507 59.6089 29.7847C59.6625 29.6187 59.6766 29.4424 59.65 29.27V22.5103C59.6787 22.0195 59.5256 21.535 59.22 21.1499C59.078 20.9958 58.9044 20.8741 58.7112 20.793C58.5179 20.7119 58.3095 20.6735 58.1 20.6802C57.6428 20.6901 57.1943 20.8064 56.79 21.02C56.3553 21.2304 55.9805 21.5467 55.7 21.9399V29.4902C55.6801 29.6341 55.6938 29.7803 55.74 29.918C55.7862 30.0557 55.8637 30.181 55.9664 30.2837C56.0691 30.3864 56.1943 30.4635 56.3319 30.5098C56.4696 30.556 56.6161 30.5697 56.76 30.5498H56.91V31.0698H50.6V30.5498H50.99C51.1628 30.5736 51.3388 30.5572 51.504 30.501C51.6691 30.4448 51.8188 30.3504 51.9412 30.2261C52.0636 30.1017 52.1553 29.9507 52.2089 29.7847C52.2625 29.6187 52.2766 29.4424 52.25 29.27V16.96C52.2932 16.4826 52.1772 16.0045 51.92 15.6001C51.7675 15.4564 51.5859 15.3471 51.3875 15.2798C51.189 15.2125 50.9784 15.1886 50.77 15.21H50.47V14.7603L55.7 13.21V21.3301C56.1082 20.5954 56.6923 19.9734 57.4 19.52C58.107 19.0665 58.93 18.827 59.77 18.8301C60.6525 18.7984 61.5128 19.1104 62.17 19.7002C62.4962 20.0335 62.7478 20.4322 62.9081 20.8701C63.0684 21.308 63.1339 21.7751 63.1 22.2402V29.2402C63.0809 29.42 63.0994 29.6017 63.1545 29.7739C63.2096 29.9461 63.3001 30.105 63.42 30.2402C63.5577 30.3559 63.717 30.4429 63.8887 30.4961C64.0605 30.5493 64.2411 30.5673 64.42 30.5498H64.79Z" fill="#E7E5DD"/>
<path d="M76.45 24.1399H67.45L67.5 23.4998H71.25C71.758 23.5373 72.2651 23.4148 72.7 23.1497C72.8712 22.9768 73.0007 22.7673 73.0787 22.5369C73.1566 22.3064 73.181 22.0609 73.15 21.8196C73.1564 21.2364 73.0227 20.6606 72.76 20.1399C72.6591 19.9097 72.4922 19.7146 72.2804 19.5794C72.0685 19.4441 71.8213 19.3743 71.57 19.3796C71.3169 19.3889 71.0695 19.4569 70.8473 19.5784C70.6251 19.6999 70.4343 19.8717 70.29 20.0798C69.8659 20.644 69.5659 21.2914 69.41 21.9797C69.202 22.8475 69.1013 23.7374 69.11 24.6296C69.0767 25.6152 69.2258 26.5983 69.55 27.5295C69.782 28.2031 70.2061 28.7943 70.77 29.2297C71.2859 29.5989 71.9056 29.795 72.54 29.7898C73.2631 29.8091 73.9704 29.5756 74.54 29.1296C75.1307 28.6608 75.6005 28.0576 75.91 27.3699L76.35 27.6199C75.9312 28.7401 75.1813 29.7062 74.2 30.3899C73.2454 31.0286 72.1184 31.3598 70.97 31.3396C69.9841 31.3803 69.0088 31.124 68.1706 30.6033C67.3325 30.0826 66.6702 29.3216 66.27 28.4197C65.8637 27.5074 65.659 26.5184 65.67 25.5198C65.6641 24.3963 65.8994 23.2848 66.36 22.26C66.7944 21.2703 67.4848 20.4137 68.36 19.7795C69.3072 19.1332 70.4336 18.8012 71.58 18.8298C72.8324 18.8026 74.0519 19.2327 75.01 20.0398C75.98 20.8498 76.45 22.2099 76.45 24.1399Z" fill="#E7E5DD"/>
<path d="M89.48 27.6401C89.4322 28.206 89.5321 28.7744 89.77 29.29C89.9238 29.4612 90.1174 29.5919 90.3337 29.6704C90.55 29.7489 90.7823 29.7729 91.01 29.7402H91.22V30.2603L86.12 31.3398V29.8599C85.69 30.338 85.1611 30.7171 84.57 30.9702C83.9987 31.2171 83.3824 31.3427 82.76 31.3398C81.886 31.3394 81.0286 31.1009 80.28 30.6499C79.4766 30.1684 78.8197 29.4769 78.38 28.6499C77.8782 27.6631 77.6307 26.5666 77.66 25.46C77.6311 24.2254 77.9167 23.0039 78.49 21.9102C78.9937 20.9705 79.7439 20.1857 80.66 19.6401C81.5151 19.1379 82.4884 18.8721 83.48 18.8701C83.9686 18.8687 84.4532 18.9566 84.91 19.1299C85.3207 19.2881 85.6901 19.5377 85.99 19.8599V17C86.0332 16.5227 85.9172 16.0446 85.66 15.6401C85.5083 15.4953 85.3268 15.3852 85.1281 15.3179C84.9295 15.2505 84.7185 15.2273 84.51 15.25H84.22V14.7998L89.45 13.25L89.48 27.6401ZM86.02 20.46C85.8064 20.2272 85.5479 20.0403 85.26 19.9102C84.988 19.7822 84.6906 19.7174 84.39 19.7202C83.8705 19.729 83.3723 19.9279 82.99 20.2798C82.515 20.7542 82.1706 21.3437 81.99 21.9902C81.4768 23.8386 81.4768 25.7918 81.99 27.6401C82.1655 28.2831 82.5109 28.8668 82.99 29.3301C83.3845 29.6879 83.8974 29.8874 84.43 29.8901C84.715 29.8868 84.9967 29.8292 85.26 29.7202C85.5454 29.6118 85.807 29.4487 86.03 29.2402L86.02 20.46Z" fill="#E7E5DD"/>
<path d="M101.22 29.2203C101.936 29.2024 102.645 29.3676 103.28 29.7003C103.832 29.9911 104.298 30.4222 104.63 30.9503C104.935 31.4358 105.098 31.9966 105.1 32.5699C105.087 33.3504 104.812 34.104 104.32 34.7101C103.679 35.4727 102.842 36.0467 101.9 36.3702C100.598 36.8331 99.2213 37.0502 97.84 37.0104C96.4132 37.0549 94.992 36.813 93.66 36.2999C93.1939 36.1708 92.7801 35.8988 92.4769 35.5221C92.1737 35.1453 91.9964 34.6832 91.97 34.2003C91.9666 33.9043 92.037 33.6121 92.175 33.3502C92.3129 33.0883 92.514 32.8649 92.76 32.7003C93.4025 32.2736 94.123 31.9778 94.88 31.8302C94.2023 31.7223 93.5891 31.3658 93.16 30.8302C92.7751 30.3897 92.5621 29.8253 92.56 29.2403C92.5617 28.9487 92.6218 28.6601 92.7369 28.3922C92.852 28.1242 93.0197 27.8823 93.23 27.6803C93.7464 27.1766 94.3729 26.7999 95.06 26.5802C94.3871 26.2683 93.8103 25.7811 93.39 25.17C92.9833 24.5575 92.7739 23.8353 92.79 23.1002C92.7811 22.3333 92.9928 21.5802 93.4 20.9303C93.8438 20.2435 94.4755 19.6982 95.22 19.36C96.1142 18.9545 97.0885 18.7562 98.07 18.7799C98.33 18.7799 98.71 18.7799 99.2 18.7799C99.2028 18.3053 99.3037 17.8366 99.4964 17.4029C99.6892 16.9692 99.9696 16.5804 100.32 16.2604C100.916 15.732 101.683 15.4372 102.48 15.4303C102.997 15.3958 103.511 15.5249 103.95 15.7999C104.109 15.9023 104.24 16.0431 104.33 16.2091C104.421 16.3751 104.468 16.561 104.468 16.7501C104.468 16.9391 104.421 17.1251 104.33 17.2911C104.24 17.4571 104.109 17.5979 103.95 17.7003C103.546 17.9426 103.08 18.0607 102.61 18.0401C101.866 18.0547 101.138 17.8225 100.54 17.38C100.312 17.5697 100.123 17.8005 99.98 18.0602C99.8319 18.3095 99.7207 18.5787 99.65 18.86C100.695 19.0381 101.668 19.5059 102.46 20.2101C102.82 20.5464 103.104 20.9562 103.292 21.4117C103.48 21.8672 103.568 22.3578 103.55 22.8502C103.553 23.6239 103.338 24.3828 102.93 25.0401C102.486 25.7275 101.859 26.2778 101.12 26.63C100.227 27.0416 99.2526 27.2437 98.27 27.2203C97.3341 27.2287 96.4049 27.0623 95.53 26.7301C95.2892 26.8963 95.0933 27.1195 94.96 27.38C94.864 27.5834 94.8129 27.805 94.81 28.0299C94.8006 28.1894 94.8325 28.3491 94.9025 28.4928C94.9726 28.6364 95.0785 28.7594 95.21 28.8502C95.5516 29.05 95.9449 29.144 96.34 29.1202L101.22 29.2203ZM98.22 36.4C98.9749 36.4027 99.7273 36.3119 100.46 36.13C101.105 35.975 101.709 35.6816 102.23 35.2701C102.453 35.0989 102.633 34.8773 102.755 34.6236C102.876 34.37 102.936 34.0914 102.93 33.8102C102.939 33.5676 102.889 33.3266 102.782 33.1085C102.676 32.8904 102.517 32.702 102.32 32.5602C101.788 32.2278 101.166 32.0703 100.54 32.11H95.22C95.0228 32.344 94.8764 32.6167 94.79 32.9103C94.7007 33.2189 94.6569 33.5387 94.66 33.86C94.6355 34.2408 94.7157 34.6211 94.892 34.9596C95.0683 35.298 95.3339 35.5816 95.66 35.7799C96.4602 36.2222 97.3664 36.4368 98.28 36.4H98.22ZM98.12 19.5001C97.9301 19.501 97.7427 19.5423 97.5702 19.6217C97.3977 19.701 97.2442 19.8165 97.12 19.9601C96.8125 20.3162 96.5963 20.742 96.49 21.2003C96.204 22.4103 96.204 23.67 96.49 24.88C96.6034 25.3557 96.8337 25.796 97.16 26.1603C97.2853 26.3033 97.4388 26.4187 97.6109 26.4996C97.783 26.5805 97.9699 26.6248 98.16 26.63C98.3503 26.626 98.5376 26.582 98.7099 26.5011C98.8821 26.4201 99.0355 26.3042 99.16 26.1603C99.4634 25.7952 99.6759 25.3631 99.78 24.9C99.916 24.3099 99.9798 23.7057 99.97 23.1002C99.9837 22.4592 99.9062 21.8195 99.74 21.2003C99.619 20.7375 99.397 20.3069 99.09 19.94C98.8638 19.6917 98.5541 19.5351 98.22 19.5001H98.12Z" fill="#E7E5DD"/>
<path d="M116.66 24.1399H107.66L107.71 23.4998H111.46C111.965 23.5393 112.469 23.4166 112.9 23.1497C113.075 22.9791 113.207 22.7702 113.287 22.5393C113.367 22.3084 113.392 22.0618 113.36 21.8196C113.368 21.2351 113.23 20.6581 112.96 20.1399C112.862 19.9097 112.697 19.7139 112.487 19.5784C112.276 19.4429 112.03 19.3737 111.78 19.3796C111.527 19.3873 111.279 19.4548 111.056 19.5764C110.834 19.6981 110.643 19.8706 110.5 20.0798C110.076 20.644 109.776 21.2914 109.62 21.9797C109.408 22.847 109.304 23.7369 109.31 24.6296C109.28 25.6158 109.432 26.5989 109.76 27.5295C109.989 28.2048 110.414 28.7968 110.98 29.2297C111.493 29.5968 112.109 29.7929 112.74 29.7898C113.463 29.8108 114.171 29.5771 114.74 29.1296C115.337 28.6666 115.808 28.0618 116.11 27.3699L116.56 27.6199C116.135 28.7367 115.387 29.7012 114.41 30.3899C113.455 31.0275 112.328 31.3585 111.18 31.3396C110.155 31.3694 109.145 31.0908 108.28 30.5398C107.492 30.0176 106.867 29.2824 106.48 28.4197C106.07 27.5082 105.862 26.5191 105.87 25.5198C105.868 24.3956 106.106 23.2841 106.57 22.26C107.001 21.2682 107.692 20.4109 108.57 19.7795C109.517 19.1332 110.644 18.8012 111.79 18.8298C113.039 18.8006 114.257 19.2231 115.22 20.0198C116.22 20.8498 116.66 22.2099 116.66 24.1399Z" fill="#E7E5DD"/>
<path d="M131.93 30.5498V31.0698H125.39V30.5498H125.56C125.733 30.5736 125.909 30.5572 126.074 30.501C126.239 30.4448 126.389 30.3504 126.511 30.2261C126.634 30.1017 126.725 29.9507 126.779 29.7847C126.832 29.6187 126.847 29.4424 126.82 29.27V22.5103C126.849 22.0195 126.696 21.535 126.39 21.1499C126.248 20.9958 126.074 20.8741 125.881 20.793C125.688 20.7119 125.479 20.6735 125.27 20.6802C124.813 20.6901 124.364 20.8064 123.96 21.02C123.528 21.2304 123.156 21.5468 122.88 21.9399V29.4902C122.858 29.6345 122.87 29.7817 122.916 29.9204C122.961 30.0591 123.038 30.1854 123.142 30.2886C123.245 30.3918 123.371 30.4692 123.51 30.5146C123.648 30.5601 123.796 30.5719 123.94 30.5498H124.08V31.0698H117.77V30.5498H118.16C118.333 30.5736 118.509 30.5572 118.674 30.501C118.839 30.4448 118.989 30.3504 119.111 30.2261C119.234 30.1017 119.325 29.9507 119.379 29.7847C119.432 29.6187 119.447 29.4424 119.42 29.27V16.96C119.463 16.4826 119.347 16.0045 119.09 15.6001C118.938 15.4558 118.756 15.3461 118.558 15.2788C118.359 15.2115 118.148 15.188 117.94 15.21H117.65V14.7603L122.88 13.21V21.3301C123.285 20.5934 123.87 19.9708 124.58 19.52C125.283 19.0657 126.103 18.826 126.94 18.8301C127.823 18.7963 128.684 19.1085 129.34 19.7002C129.666 20.0335 129.918 20.4322 130.078 20.8701C130.238 21.308 130.304 21.7751 130.27 22.2402V29.2402C130.25 29.4209 130.269 29.6038 130.326 29.7764C130.382 29.949 130.476 30.1072 130.6 30.2402C130.736 30.3579 130.896 30.4457 131.068 30.499C131.24 30.5524 131.421 30.5697 131.6 30.5498H131.93Z" fill="#E7E5DD"/>
<path d="M139.03 18.8299C140.21 18.8016 141.375 19.1064 142.39 19.7098C143.294 20.2609 144.025 21.0543 144.5 21.9999C144.967 22.9488 145.21 23.9921 145.21 25.0497C145.21 26.1072 144.967 27.151 144.5 28.1C144.022 29.0632 143.284 29.8735 142.37 30.4398C141.34 31.0628 140.153 31.3752 138.95 31.3397C137.772 31.3774 136.608 31.0718 135.6 30.4598C134.702 29.904 133.978 29.1073 133.51 28.16C133.043 27.2078 132.804 26.1604 132.81 25.1C132.804 24.0373 133.05 22.9882 133.53 22.0399C134.006 21.0803 134.744 20.2759 135.66 19.7201C136.677 19.1124 137.845 18.8038 139.03 18.8299ZM138.93 19.4501C138.677 19.4488 138.428 19.5101 138.204 19.6288C137.981 19.7474 137.791 19.9194 137.65 20.1297C137.273 20.7079 137.034 21.3646 136.95 22.0497C136.797 23.0589 136.727 24.0793 136.74 25.1C136.726 26.1066 136.816 27.112 137.01 28.1C137.128 28.7923 137.401 29.4487 137.81 30.0199C137.957 30.2274 138.152 30.3965 138.378 30.513C138.605 30.6296 138.856 30.6903 139.11 30.6898C139.362 30.6921 139.61 30.6314 139.832 30.5126C140.054 30.3937 140.242 30.2209 140.38 30.0101C140.748 29.4278 140.987 28.7725 141.08 28.0897C141.24 27.0979 141.313 26.0942 141.3 25.0897C141.315 24.083 141.224 23.0775 141.03 22.0897C140.91 21.392 140.637 20.7295 140.23 20.1498C140.084 19.9384 139.89 19.7646 139.664 19.6429C139.438 19.5212 139.187 19.4554 138.93 19.4501Z" fill="#E7E5DD"/>
<path d="M155.56 29.2204C156.276 29.2038 156.985 29.3689 157.62 29.7004C158.169 29.9914 158.632 30.4227 158.96 30.9504C159.265 31.4359 159.428 31.9967 159.43 32.57C159.417 33.3505 159.142 34.1041 158.65 34.7102C158.015 35.4748 157.181 36.0494 156.24 36.3703C154.938 36.8325 153.561 37.0496 152.18 37.0105C150.753 37.0558 149.332 36.8139 148 36.3C147.532 36.1737 147.117 35.9024 146.813 35.5251C146.51 35.1478 146.333 34.6842 146.31 34.2004C146.305 33.9041 146.374 33.6111 146.512 33.3488C146.651 33.0866 146.853 32.8637 147.1 32.7004C147.741 32.2701 148.462 31.974 149.22 31.8303C148.54 31.722 147.923 31.3658 147.49 30.8303C147.112 30.3865 146.903 29.8235 146.9 29.2404C146.899 28.9485 146.958 28.6591 147.074 28.3908C147.189 28.1225 147.358 27.8809 147.57 27.6804C148.084 27.1789 148.707 26.8024 149.39 26.5803C148.72 26.2681 148.146 25.7808 147.73 25.1701C147.316 24.5607 147.102 23.8371 147.12 23.1003C147.114 22.3324 147.329 21.5792 147.74 20.9304C148.18 20.2443 148.809 19.699 149.55 19.3601C150.445 18.9566 151.419 18.7583 152.4 18.78C152.66 18.78 153.04 18.78 153.54 18.78C153.54 18.305 153.64 17.8356 153.833 17.4016C154.026 16.9675 154.308 16.579 154.66 16.2605C155.254 15.729 156.023 15.4336 156.82 15.4304C157.334 15.3938 157.846 15.5232 158.28 15.8C158.434 15.8976 158.561 16.0323 158.65 16.1911C158.739 16.3499 158.787 16.5281 158.79 16.7102C158.798 16.9089 158.754 17.1062 158.661 17.2819C158.567 17.4577 158.429 17.6056 158.26 17.7102C157.853 17.9538 157.384 18.0719 156.91 18.05C156.166 18.0631 155.439 17.8315 154.84 17.3903C154.616 17.5806 154.429 17.8109 154.29 18.07C154.139 18.3191 154.025 18.5888 153.95 18.8703C154.998 19.0482 155.974 19.5159 156.77 20.2204C157.127 20.5588 157.408 20.9689 157.594 21.424C157.78 21.8792 157.867 22.3686 157.85 22.8601C157.857 23.6329 157.645 24.3919 157.24 25.05C156.792 25.7377 156.162 26.2884 155.42 26.6403C154.528 27.0529 153.553 27.2546 152.57 27.2302C151.637 27.2387 150.711 27.0728 149.84 26.7404C149.599 26.9067 149.403 27.1299 149.27 27.3903C149.174 27.5938 149.123 27.8153 149.12 28.0402C149.109 28.2 149.14 28.3601 149.21 28.5041C149.28 28.6481 149.387 28.7707 149.52 28.8601C149.862 29.0599 150.255 29.1539 150.65 29.1301L155.56 29.2204ZM152.56 36.4001C153.312 36.4021 154.061 36.3114 154.79 36.1301C155.439 35.9773 156.047 35.6839 156.57 35.2702C156.793 35.099 156.973 34.8774 157.095 34.6237C157.216 34.3701 157.276 34.0915 157.27 33.8103C157.277 33.567 157.225 33.3257 157.117 33.1076C157.008 32.8896 156.848 32.7016 156.65 32.5603C156.121 32.23 155.502 32.0725 154.88 32.1101H149.45C149.249 32.3416 149.102 32.6151 149.02 32.9104C148.927 33.2185 148.88 33.5383 148.88 33.8601C148.858 34.2406 148.939 34.6201 149.115 34.9582C149.291 35.2963 149.555 35.5801 149.88 35.78C150.711 36.2359 151.653 36.4508 152.6 36.4001H152.56ZM152.46 19.5002C152.27 19.5023 152.083 19.5445 151.911 19.6237C151.739 19.703 151.585 19.8175 151.46 19.9602C151.153 20.3163 150.936 20.7421 150.83 21.2004C150.537 22.4095 150.537 23.6709 150.83 24.8801C150.94 25.355 151.167 25.7952 151.49 26.1604C151.616 26.3024 151.77 26.4174 151.942 26.4982C152.114 26.579 152.3 26.6237 152.49 26.6301C152.681 26.6286 152.869 26.5862 153.042 26.5051C153.214 26.4239 153.367 26.3063 153.49 26.1604C153.798 25.7982 154.011 25.365 154.11 24.9001C154.25 24.3105 154.317 23.7062 154.31 23.1003C154.321 22.4588 154.24 21.8191 154.07 21.2004C153.957 20.7345 153.734 20.3022 153.42 19.9401C153.182 19.6797 152.852 19.522 152.5 19.5002H152.46Z" fill="#E7E5DD"/>
<path d="M23.12 24.6898C23.9981 24.6898 24.71 23.9779 24.71 23.0998C24.71 22.2216 23.9981 21.5098 23.12 21.5098C22.2419 21.5098 21.53 22.2216 21.53 23.0998C21.53 23.9779 22.2419 24.6898 23.12 24.6898Z" fill="#E7E5DD"/>
<path d="M35.62 24.12C36.1944 24.12 36.66 23.6544 36.66 23.08C36.66 22.5057 36.1944 22.04 35.62 22.04C35.0456 22.04 34.58 22.5057 34.58 23.08C34.58 23.6544 35.0456 24.12 35.62 24.12Z" fill="#E7E5DD"/>
<path d="M33.19 25.8799H31.37C30.8122 25.8799 30.36 26.3321 30.36 26.8899V27.2799C30.36 27.8377 30.8122 28.2899 31.37 28.2899H33.19C33.7478 28.2899 34.2 27.8377 34.2 27.2799V26.8899C34.2 26.3321 33.7478 25.8799 33.19 25.8799Z" fill="#E7E5DD"/>
<path d="M38.52 13.9597C37.1051 11.1987 35.1157 8.77284 32.6854 6.84448C30.2551 4.91613 27.4403 3.52981 24.43 2.77954C21.4309 2.02485 18.4763 1.10366 15.58 0.0197767C15.5335 0.00107492 15.4829 -0.00483899 15.4333 0.00268685C15.3838 0.0102127 15.3372 0.0310835 15.2984 0.0627454C15.2596 0.0944074 15.23 0.135864 15.2127 0.182863C15.1954 0.229862 15.191 0.28056 15.2 0.329835C15.3441 1.23876 15.7429 2.08794 16.35 2.77954C17.56 4.11954 15.94 4.02968 14.92 4.16968C13.9 4.30968 9.62997 4.58987 7.77997 5.36987C5.92997 6.14987 5.77997 6.43987 6.77997 7.36987C7.77997 8.29987 8.77996 8.52972 7.97996 9.45972C7.17996 10.3897 3.15998 11.8699 1.53998 13.3499C-0.0800246 14.8299 -0.270034 15.7597 1.02997 15.6697C2.32997 15.5797 3.62997 15.07 3.43997 15.95C3.21997 16.95 2.22997 17.9499 1.67997 18.8699C0.948284 20.0582 0.44941 21.3749 0.209974 22.7498C0.159974 23.0298 -0.330029 25.4297 0.519971 24.9397C1.36997 24.4497 2.41997 22.81 3.15997 22.99C4.25997 23.27 4.06997 26.9895 4.15997 27.7795C4.27462 29.8559 4.60984 31.9143 5.15997 33.9197C5.46997 35.0997 5.89997 37.5496 7.51997 37.5496C8.81997 37.5496 9.09997 36.7599 9.37997 35.1799C9.65997 33.5999 10.44 33.1799 11.55 34.1199C12.9944 35.1792 14.3339 36.3745 15.55 37.6897C16.1465 38.4233 16.6163 39.2515 16.94 40.1399C17.2 40.8499 17.44 41.7696 18.34 41.8596C19.24 41.9496 20.47 42.3696 21.44 40.3796C21.83 39.5896 22.03 38.6897 22.44 37.9397C23.1 36.8397 24.71 36.8495 25.84 36.7795C27.33 36.6895 28.77 36.29 30.26 36.2C31.75 36.11 31.92 37.27 32.26 38.01C32.6 38.75 32.86 39.9597 34.11 39.9597C35.36 39.9597 35.73 39.9596 36.98 37.1296C39.81 30.6396 41.53 22.33 39.08 15.49C38.8926 14.955 38.6756 14.4305 38.43 13.9197L38.52 13.9597ZM32.86 28.3499C29.903 29.1166 26.8224 29.283 23.8 28.8396C22.1679 28.7542 20.5816 28.2704 19.18 27.4299C15.58 24.8699 16.48 17.9098 21.08 17.0398C23.44 16.5998 25.35 18.21 27.3 19.22C28.75 19.97 30.1 21.1099 31.83 20.6799C33.16 20.3499 34.34 19.21 35.75 19.24C37.37 19.24 37.83 20.9498 37.75 22.2898C37.6626 23.6385 37.1742 24.9302 36.3475 25.9993C35.5207 27.0684 34.3933 27.866 33.11 28.2898L32.84 28.3699" fill="#E7E5DD"/>
</g>
<defs>
<clipPath id="clip0_7:419">
<rect width="159.43" height="42" fill="white"/>
</clipPath>
</defs>
</svg>
