<svg width="374" height="94" viewBox="0 0 374 94" fill="none" xmlns="http://www.w3.org/2000/svg">
<g clip-path="url(#clip0_12:2364)">
<path d="M124.9 28.51C115.05 28.51 105.21 29.01 95.39 29.72C85.57 30.43 75.77 31.4 66.04 32.86C56.3042 34.2559 46.6654 36.2598 37.18 38.86C32.4481 40.1604 27.8079 41.774 23.29 43.69C18.7868 45.5829 14.5346 48.0247 10.63 50.96C8.69564 52.4359 6.9225 54.1118 5.34004 55.96C3.73764 57.7033 2.62345 59.8385 2.10999 62.15C1.89802 63.2749 1.94738 64.4334 2.25428 65.5361C2.56118 66.6389 3.11742 67.6564 3.88001 68.51C5.52701 70.2393 7.48433 71.6437 9.65003 72.65C14.0192 74.8092 18.6567 76.3763 23.44 77.31C28.2438 78.2868 33.0978 78.9978 37.98 79.44C57.5633 81.2997 77.2584 81.6907 96.9 80.61C106.72 80.12 116.54 79.37 126.33 78.44C136.123 77.5328 145.86 76.1008 155.5 74.15C160.31 73.15 165.1 72.07 169.79 70.68C174.492 69.3479 179.059 67.5768 183.43 65.39C185.573 64.2596 187.611 62.9411 189.52 61.45C191.416 60.0108 192.987 58.1877 194.13 56.1C194.67 55.0784 194.997 53.9575 195.09 52.8056C195.182 51.6537 195.04 50.4949 194.67 49.4C194.276 48.3157 193.709 47.3025 192.99 46.4C192.236 45.4829 191.381 44.6543 190.44 43.93C188.482 42.5236 186.334 41.4024 184.06 40.6C181.775 39.7269 179.437 38.9988 177.06 38.42C172.288 37.2771 167.448 36.4387 162.57 35.91C152.8 34.77 142.98 34.14 133.14 33.91C123.3 33.68 113.45 33.71 103.61 33.99L96.23 34.23L88.86 34.61L74.1 35.41L88.84 34.41L96.22 33.94L103.6 33.61C113.44 33.21 123.3 33.01 133.16 33.17C143.02 33.33 152.87 33.92 162.68 35C167.6 35.501 172.483 36.3126 177.3 37.43C179.715 38.0088 182.093 38.7335 184.42 39.6C186.803 40.4244 189.056 41.5862 191.11 43.05C192.13 43.8195 193.056 44.7055 193.87 45.69C194.683 46.7038 195.322 47.8462 195.76 49.07C196.191 50.3109 196.364 51.6265 196.269 52.9366C196.175 54.2467 195.814 55.5238 195.21 56.69C194.006 58.9487 192.327 60.9204 190.29 62.47C188.318 64.0168 186.214 65.3854 184 66.56C179.562 68.7996 174.921 70.6112 170.14 71.97C165.4 73.39 160.58 74.51 155.75 75.51C146.083 77.4547 136.319 78.8801 126.5 79.78C116.68 80.78 106.86 81.52 97 82.02C77.2745 83.0586 57.4989 82.614 37.84 80.69C32.9139 80.2317 28.0165 79.5039 23.17 78.51C18.2762 77.5438 13.534 75.926 9.07002 73.7C6.76017 72.6186 4.6766 71.1085 2.93 69.25C2.05835 68.2503 1.42535 67.0656 1.07887 65.7853C0.732383 64.5051 0.681487 63.1628 0.930001 61.86C1.50284 59.3463 2.72321 57.0262 4.46998 55.13C6.12098 53.2428 7.96804 51.5365 9.97999 50.04C13.9751 47.0759 18.3214 44.6173 22.92 42.72C27.4753 40.8174 32.1523 39.2205 36.92 37.94C46.4551 35.3966 56.141 33.4561 65.92 32.13C75.7 30.79 85.52 29.93 95.35 29.34C105.18 28.75 115.04 28.34 124.89 28.49" fill="#C3CF7B"/>
<path d="M124.9 28.51C115.05 28.51 105.21 29.01 95.39 29.72C85.57 30.43 75.77 31.4 66.04 32.86C56.3042 34.2559 46.6654 36.2598 37.18 38.86C32.4481 40.1604 27.8079 41.774 23.29 43.69C18.7868 45.5829 14.5346 48.0247 10.63 50.96C8.69564 52.4359 6.9225 54.1118 5.34004 55.96C3.73764 57.7033 2.62345 59.8385 2.10999 62.15C1.89802 63.2749 1.94738 64.4334 2.25428 65.5361C2.56118 66.6389 3.11742 67.6564 3.88001 68.51C5.52701 70.2393 7.48433 71.6437 9.65003 72.65C14.0192 74.8092 18.6567 76.3763 23.44 77.31C28.2438 78.2868 33.0978 78.9978 37.98 79.44C57.5633 81.2997 77.2584 81.6907 96.9 80.61C106.72 80.12 116.54 79.37 126.33 78.44C136.123 77.5328 145.86 76.1008 155.5 74.15C160.31 73.15 165.1 72.07 169.79 70.68C174.492 69.3479 179.059 67.5768 183.43 65.39C185.573 64.2596 187.611 62.9411 189.52 61.45C191.416 60.0108 192.987 58.1877 194.13 56.1C194.67 55.0784 194.997 53.9575 195.09 52.8056C195.182 51.6537 195.04 50.4949 194.67 49.4C194.276 48.3157 193.709 47.3025 192.99 46.4C192.236 45.4829 191.381 44.6543 190.44 43.93C188.482 42.5236 186.334 41.4024 184.06 40.6C181.775 39.7269 179.437 38.9988 177.06 38.42C172.288 37.2771 167.448 36.4387 162.57 35.91C152.8 34.77 142.98 34.14 133.14 33.91C123.3 33.68 113.45 33.71 103.61 33.99L96.23 34.23L88.86 34.61L74.1 35.41L88.84 34.41L96.22 33.94L103.6 33.61C113.44 33.21 123.3 33.01 133.16 33.17C143.02 33.33 152.87 33.92 162.68 35C167.6 35.501 172.483 36.3126 177.3 37.43C179.715 38.0088 182.093 38.7335 184.42 39.6C186.803 40.4244 189.056 41.5862 191.11 43.05C192.13 43.8195 193.056 44.7055 193.87 45.69C194.683 46.7038 195.322 47.8462 195.76 49.07C196.191 50.3109 196.364 51.6265 196.269 52.9366C196.175 54.2467 195.814 55.5238 195.21 56.69C194.006 58.9487 192.327 60.9204 190.29 62.47C188.318 64.0168 186.214 65.3854 184 66.56C179.562 68.7996 174.921 70.6112 170.14 71.97C165.4 73.39 160.58 74.51 155.75 75.51C146.083 77.4547 136.319 78.8801 126.5 79.78C116.68 80.78 106.86 81.52 97 82.02C77.2745 83.0586 57.4989 82.614 37.84 80.69C32.9139 80.2317 28.0165 79.5039 23.17 78.51C18.2762 77.5438 13.534 75.926 9.07002 73.7C6.76017 72.6186 4.6766 71.1085 2.93 69.25C2.05835 68.2503 1.42535 67.0656 1.07887 65.7853C0.732383 64.5051 0.681487 63.1628 0.930001 61.86C1.50284 59.3463 2.72321 57.0262 4.46998 55.13C6.12098 53.2428 7.96804 51.5365 9.97999 50.04C13.9751 47.0759 18.3214 44.6173 22.92 42.72C27.4753 40.8174 32.1523 39.2205 36.92 37.94C46.4551 35.3966 56.141 33.4561 65.92 32.13C75.7 30.79 85.52 29.93 95.35 29.34C105.18 28.75 115.04 28.34 124.89 28.49" stroke="#C0CC7C" stroke-width="1.5" stroke-linecap="round" stroke-linejoin="round"/>
<path d="M200.12 23.8499C218.277 15.7386 237.22 9.51593 256.65 5.28C266.378 3.0822 276.239 1.52216 286.17 0.609958C296.155 -0.308334 306.207 -0.2011 316.17 0.929965C321.202 1.48836 326.175 2.4923 331.03 3.92997C335.962 5.37293 340.673 7.48601 345.03 10.21C349.468 13.0037 353.281 16.6839 356.23 21.02C357.685 23.1876 358.905 25.504 359.87 27.93C360.854 30.3288 361.617 32.8124 362.15 35.3499C364.34 45.4399 363.43 55.9099 360.85 65.5999C358.27 75.2899 354.28 84.43 350.27 93.51C352.27 83.76 355.44 74.32 357.45 64.78C357.99 62.41 358.45 60.02 358.76 57.62C359.117 55.2404 359.351 52.8438 359.46 50.44C359.58 48.0466 359.54 45.648 359.34 43.26C359.171 40.9025 358.816 38.5619 358.28 36.26C357.775 33.9536 357.062 31.6978 356.15 29.52C355.257 27.3552 354.145 25.2876 352.83 23.3499C350.187 19.4737 346.785 16.1738 342.83 13.65C338.789 11.0915 334.414 9.10274 329.83 7.73996C325.192 6.34421 320.446 5.34068 315.64 4.73996C305.935 3.48809 296.126 3.24013 286.37 3.99997C276.566 4.75218 266.822 6.14514 257.2 8.16996C237.871 12.1635 218.944 17.9003 200.65 25.31C200.558 25.3507 200.458 25.3724 200.357 25.3737C200.256 25.375 200.156 25.356 200.063 25.3177C199.969 25.2794 199.885 25.2227 199.814 25.1509C199.743 25.0791 199.687 24.9938 199.65 24.9C199.6 24.8017 199.573 24.6934 199.57 24.5832C199.567 24.4729 199.589 24.3635 199.634 24.2629C199.68 24.1622 199.746 24.0729 199.83 24.0015C199.914 23.9301 200.013 23.8783 200.12 23.8499Z" fill="#C3CF7B"/>
<path d="M343.87 73.21C345.743 76.7695 347.389 80.4435 348.8 84.21C349.52 86.08 350.19 87.97 350.8 89.86C350.844 89.9983 350.901 90.1323 350.97 90.26C350.926 90.1775 350.86 90.1083 350.78 90.06C350.636 89.959 350.466 89.9033 350.29 89.9C350.19 89.9 350.22 89.9 350.29 89.9C350.58 89.77 351.54 88.9 352.29 88.33C355.454 85.8058 358.796 83.5132 362.29 81.47C365.778 79.3948 369.462 77.6697 373.29 76.32C370.29 79.07 367.16 81.56 364.08 84.06L354.8 91.46L353.64 92.37L353.35 92.61L352.96 92.9C352.644 93.116 352.309 93.3034 351.96 93.46C351.512 93.6764 351.026 93.8022 350.53 93.83C349.851 93.8752 349.177 93.696 348.61 93.32C348.124 92.9809 347.737 92.5183 347.49 91.98C347.342 91.6585 347.225 91.3237 347.14 90.98C346.64 89.0533 346.173 87.11 345.74 85.15C344.867 81.2131 344.243 77.2253 343.87 73.21Z" fill="#C3CF7B"/>
</g>
<defs>
<clipPath id="clip0_12:2364">
<rect width="373.3" height="93.85" fill="white"/>
</clipPath>
</defs>
</svg>
