<svg width="133" height="26" viewBox="0 0 133 26" fill="none" xmlns="http://www.w3.org/2000/svg">
<g clip-path="url(#clip0_7:153)">
<path d="M84.3675 0.246338C77.6977 0.246338 71.0279 0.483424 64.3766 0.820968C57.7252 1.15851 51.083 1.61476 44.4869 2.29897C37.8908 2.98318 31.3684 3.89557 24.9197 5.14539C21.723 5.77487 18.5631 6.50468 15.5138 7.41696C12.5479 8.2782 9.67503 9.42717 6.93699 10.8471C5.66953 11.5099 4.46944 12.2919 3.35335 13.1824C2.34144 13.9138 1.57702 14.9316 1.16079 16.1017C1.03498 16.6641 1.08278 17.2512 1.29798 17.7864C1.51318 18.3216 1.88584 18.7802 2.36762 19.1031C3.55822 19.9527 4.87635 20.6116 6.2737 21.0555C9.30738 22.0892 12.4362 22.8255 15.6151 23.254C18.8579 23.7284 22.1559 24.0204 25.4632 24.2576C38.7501 25.1334 52.0744 25.316 65.3807 24.8049C72.0321 24.5768 78.6927 24.2211 85.3164 23.7832C91.9402 23.3453 98.5547 22.725 105.068 21.7854C108.329 21.3201 111.572 20.8092 114.759 20.1432C117.886 19.5314 120.965 18.6991 123.972 17.6527C125.391 17.1458 126.77 16.536 128.099 15.8282C129.309 15.2143 130.373 14.353 131.222 13.3011C131.582 12.8649 131.807 12.3355 131.873 11.7761C131.938 11.2167 131.84 10.6507 131.591 10.1447C131.302 9.60176 130.915 9.11615 130.448 8.71233C129.917 8.26429 129.339 7.87286 128.725 7.54458C127.348 6.86518 125.899 6.33896 124.405 5.97549C122.857 5.56496 121.273 5.2273 119.67 4.94449C116.454 4.388 113.156 4.0324 109.858 3.76784C103.244 3.22959 96.5832 2.92854 89.9226 2.85556C83.2621 2.78258 76.583 2.75521 69.9132 2.85556L64.9109 2.96492L59.9177 3.14733L49.9222 3.52151L59.9085 3.06537L64.9109 2.8373L69.904 2.68206C76.5738 2.4996 83.2529 2.39928 89.9319 2.48138C96.6109 2.56349 103.281 2.82799 109.932 3.33887C113.249 3.60343 116.574 3.93186 119.835 4.48835C121.466 4.76204 123.087 5.09969 124.663 5.51022C126.227 5.882 127.744 6.42673 129.186 7.1341C129.847 7.47859 130.465 7.89789 131.029 8.38381C131.557 8.82632 131.995 9.36519 132.318 9.97117C132.606 10.5441 132.723 11.1863 132.656 11.8227C132.589 12.4591 132.341 13.0636 131.941 13.5657C131.037 14.7016 129.9 15.6344 128.606 16.3026C127.237 17.0481 125.815 17.6914 124.35 18.2274C121.285 19.2954 118.148 20.1491 114.962 20.7818C111.747 21.4478 108.513 21.9769 105.206 22.4422C98.656 23.3545 92.0139 24.0296 85.3625 24.4857C78.7111 24.9418 72.0597 25.3067 65.3807 25.5439C52.027 26.0306 38.6568 25.8236 25.325 24.9236C21.9993 24.6864 18.6736 24.3852 15.3848 23.8926C12.1331 23.4507 8.93325 22.6929 5.8315 21.6301C4.34289 21.1535 2.9404 20.4452 1.67668 19.5319C1.11986 19.1556 0.690846 18.6216 0.445896 17.9997C0.200945 17.3778 0.151496 16.6973 0.304032 16.0471C0.758619 14.7727 1.59403 13.6654 2.69926 12.8724C3.84854 11.9595 5.08235 11.156 6.38424 10.473C9.18645 9.03922 12.1239 7.88113 15.1545 7.01539C18.2407 6.10311 21.4374 5.39157 24.6617 4.77121C31.1104 3.54876 37.6973 2.67297 44.3119 2.03437C50.9264 1.39578 57.587 0.994417 64.2476 0.71161C70.9082 0.428803 77.6977 0.246338 84.3675 0.246338Z" fill="#C2CE7C" stroke="#C0CC7C" stroke-width="0.56" stroke-miterlimit="10"/>
</g>
<defs>
<clipPath id="clip0_7:153">
<rect width="133" height="26" fill="white"/>
</clipPath>
</defs>
</svg>
